<svg id="Layer_1" data-name="Layer 1" xmlns="http://www.w3.org/2000/svg" xmlns:xlink="http://www.w3.org/1999/xlink" viewBox="0 0 125 50"><defs><style>.cls-1{fill:none;}.cls-2{fill:#fff;}.cls-3{fill:url(#linear-gradient);}.cls-4{fill:url(#linear-gradient-2);}</style><linearGradient id="linear-gradient" x1="157.82" y1="1216.92" x2="205.3" y2="1216.92" gradientTransform="matrix(0.97, 0.01, -0.01, 1, -133.4, -1185.07)" gradientUnits="userSpaceOnUse"><stop offset="0" stop-color="#ba36d4"/><stop offset="0.52" stop-color="#7286f5"/><stop offset="1" stop-color="#b936d4"/></linearGradient><linearGradient id="linear-gradient-2" x1="1.67" y1="23.01" x2="55.77" y2="23.01" gradientUnits="userSpaceOnUse"><stop offset="0.15" stop-color="#c941d9"/><stop offset="1" stop-color="#7288f6"/></linearGradient></defs><title>DVM-125x50</title><path class="cls-1" d="M93.21,23.38c0-.12.09-.24.14-.36l-.09,0-.12.36Z"/><path class="cls-2" d="M121.14,23.29c.29-.88.59-1.75.89-2.6.57-1.57,1-2.66,1.22-3.24a1.64,1.64,0,0,0-.35-1.82,2.64,2.64,0,0,0-1.27-.7,4.59,4.59,0,0,0-1.15-.14,7.15,7.15,0,0,0-2.42.43,1.66,1.66,0,0,0-1,1c-.3.74-.74,1.95-1.32,3.6-.18.54-.37,1.1-.55,1.66a2,2,0,0,0-.29-.36,2.76,2.76,0,0,0-1.23-.66,4.66,4.66,0,0,0-1.15-.13,5.87,5.87,0,0,0-1.77.25,3.11,3.11,0,0,0-.76.35l-.26-.13a5.51,5.51,0,0,0-2.23-.47,3.36,3.36,0,0,0-1.58.39,4.28,4.28,0,0,0-1.14.86,6.4,6.4,0,0,0-.42.49,2.54,2.54,0,0,0-1.08-1.39,3.5,3.5,0,0,0-1.84-.5,4.16,4.16,0,0,0-2.16.6,4.53,4.53,0,0,0-2.6-.42,5.13,5.13,0,0,0-.83.14,1.58,1.58,0,0,0-.37-.87,1.7,1.7,0,0,0-.83-.54c.24-.63.44-1.16.63-1.59a1.68,1.68,0,0,0-.35-1.82,2.68,2.68,0,0,0-1.27-.7,4.65,4.65,0,0,0-1.15-.14,7.1,7.1,0,0,0-2.42.43,1.65,1.65,0,0,0-1,1c-.24.59-.56,1.5-1,2.76a1.67,1.67,0,0,0-1.55.93,2.84,2.84,0,0,0-.28,1.23,2.82,2.82,0,0,0-.51-.38A3.54,3.54,0,0,0,84,20.24a4.49,4.49,0,0,0-2.61.85A1.76,1.76,0,0,0,81,20.8a4.3,4.3,0,0,0-2.15-.52,3.75,3.75,0,0,0-3.28,1.35l-.13.23-.15.33L75.15,22a3.94,3.94,0,0,0-1.36-1.13l-.06,0a5.74,5.74,0,0,0-2.46-.54,5.32,5.32,0,0,0-2.15.42,1.1,1.1,0,0,1-.68-.11.88.88,0,0,1,0-.15,6.25,6.25,0,0,0,.27-1.81v-.11a4.43,4.43,0,0,0-.55-2.06,3.94,3.94,0,0,0-1.78-1.63,6.2,6.2,0,0,0-2.71-.53,7.25,7.25,0,0,0-3.45.84,8.71,8.71,0,0,0-2.57,2.13A12.21,12.21,0,0,0,56,20.06a14.71,14.71,0,0,0-1,3.11.36.36,0,0,0,0,.1,1.39,1.39,0,0,0-.31.23l0-.06C56,19.1,56.16,17.72,56.16,17a2.47,2.47,0,0,0-1.22-2.19,3.27,3.27,0,0,0-1.67-.47,4.45,4.45,0,0,0-3,1.26l-.31.28a2.09,2.09,0,0,0,0-.24,2.92,2.92,0,0,0-.24-1.14,2.64,2.64,0,0,0-1-1.16,3.05,3.05,0,0,0-1.64-.42,4.7,4.7,0,0,0-3.22,1.38c-.18.16-.35.34-.53.52,0-.11,0-.22-.05-.33a2.83,2.83,0,0,0-1-1.65,3.14,3.14,0,0,0-2-.64,8.26,8.26,0,0,0-3.63.89A12.31,12.31,0,0,0,33.82,15c0-.08,0-.15,0-.22a4,4,0,0,0-.93-1.92,3.08,3.08,0,0,0-2.37-1A3.14,3.14,0,0,0,28,13.16a3.47,3.47,0,0,0-.74-.55,3.24,3.24,0,0,0-1.65-.42,8.33,8.33,0,0,0-3.63.89,12.3,12.3,0,0,0-3.17,2.23A11.71,11.71,0,0,0,17.5,16.8a7.41,7.41,0,0,0-2.61-3.17,9,9,0,0,0-5.23-1.44,11.58,11.58,0,0,0-3.74.56A9,9,0,0,0,3.09,14.3,8,8,0,0,0,.94,17a6.9,6.9,0,0,0-.71,3A5.23,5.23,0,0,0,.63,22a4.21,4.21,0,0,0,.93,1.36,8,8,0,0,0-.55.83,7.33,7.33,0,0,0-1,3.66,6.33,6.33,0,0,0,.48,2.52,5.21,5.21,0,0,0,1.43,2,6.53,6.53,0,0,0,4.31,1.45h.14a1.59,1.59,0,0,0,0,.38A1.67,1.67,0,0,0,7.77,35.7a185.16,185.16,0,0,0,22.84,1.58c10.08,0,17.63-1.13,22.49-3.36A6.54,6.54,0,0,0,54,36.41a4.33,4.33,0,0,0,1.29,1.43,1.12,1.12,0,0,0,.62.18h.68a1,1,0,0,0,.89-.48,1.07,1.07,0,0,0,.89.48h.72a1.08,1.08,0,0,0,.87-.45v0a7.92,7.92,0,0,0,1.14-.07,1,1,0,0,0,.93.55h.82a1.06,1.06,0,0,0,1-.7l.07-.19a2.26,2.26,0,0,0,.71.63,2.53,2.53,0,0,0,1.22.3,2.3,2.3,0,0,0,1.44-.46l.12-.1h0a1.92,1.92,0,0,0,1.38.51h.43a1.06,1.06,0,0,0,1.06-1l.1,0a2.36,2.36,0,0,0,.72.72,2.19,2.19,0,0,0,1.18.33,2.09,2.09,0,0,0,.61-.08.8.8,0,0,0,.27,0h.68a1,1,0,0,0,.43-.09,1,1,0,0,0,.43.09h.67a1.11,1.11,0,0,0,.6-.18,1.08,1.08,0,0,0,.59.18h.68a1.08,1.08,0,0,0,.72-.28,2.14,2.14,0,0,0,1.16.32,2.35,2.35,0,0,0,.6-.07A1.27,1.27,0,0,0,80,38h.68a1.06,1.06,0,0,0,.76-.32,7.6,7.6,0,0,0,1.42,0,1.06,1.06,0,0,0,.73.29h.67a1.07,1.07,0,0,0,1-.68,2.29,2.29,0,0,0,.54.42,2.47,2.47,0,0,0,1.21.3,2.35,2.35,0,0,0,1.45-.46l.12-.1a2.31,2.31,0,0,0,.36.25,2.58,2.58,0,0,0,2.45,0,1.06,1.06,0,0,0,.71.27h.68a1.08,1.08,0,0,0,.59-.18A1.11,1.11,0,0,0,94,38h.68A1.07,1.07,0,0,0,95.74,37v-.83a2.87,2.87,0,0,0,.24.57,2.77,2.77,0,0,0,2.41,1.36,2.78,2.78,0,0,0,1.59-.47,2.23,2.23,0,0,0,.24-.19,2.32,2.32,0,0,0,.5.37,2.47,2.47,0,0,0,1.21.3,2.52,2.52,0,0,0,1.21-.3l.11-.06A1,1,0,0,0,104,38h.67a1.11,1.11,0,0,0,.6-.18,1.11,1.11,0,0,0,.6.18h.67a1.11,1.11,0,0,0,.6-.18,1.08,1.08,0,0,0,.59.18h.44v.21a1.06,1.06,0,0,0,1.07,1.06h.67A1.06,1.06,0,0,0,111,38.23v-.17a2.2,2.2,0,0,0,1-.33,3.15,3.15,0,0,0,.29-.22,3.15,3.15,0,0,0,.29.22,2.21,2.21,0,0,0,1.18.33,2,2,0,0,0,.61-.08.86.86,0,0,0,.28,0h.68a1,1,0,0,0,.42-.09,1,1,0,0,0,.43.09h.67a1.11,1.11,0,0,0,.6-.18,1.11,1.11,0,0,0,.6.18h.64a1.06,1.06,0,0,0,1.08,1.26h.69a1.06,1.06,0,0,0,1-.65l.83-2a24.56,24.56,0,0,0,2.33-4.84,7.14,7.14,0,0,0,.3-1.19h0v0C125.44,27.06,123.85,22.3,121.14,23.29Zm-27.88-.24.09,0c0,.12-.1.24-.14.36l-.07,0Z"/><path class="cls-3" d="M13.28,31.1A13.16,13.16,0,0,1,8,34.26s34,4.79,46-2.48c0,0-9.42,4.94-40.41-.86C13.47,30.9,13.37,31,13.28,31.1Z"/><path d="M1.67,28.05a5.68,5.68,0,0,1,.79-2.84,6.42,6.42,0,0,1,2.46-2.35,1,1,0,0,1-.27.05l-.37,0A2.24,2.24,0,0,1,3,22.56a2.44,2.44,0,0,1-.8-1,3.63,3.63,0,0,1-.27-1.42,5.14,5.14,0,0,1,.56-2.23,6.19,6.19,0,0,1,1.7-2.11,7.48,7.48,0,0,1,2.31-1.25,9.94,9.94,0,0,1,3.2-.47,7.38,7.38,0,0,1,4.28,1.14,5.84,5.84,0,0,1,2.28,3.14A8.82,8.82,0,0,1,16.6,21a13,13,0,0,1-.15,1.91,6.83,6.83,0,0,1,3.11,2.48,9.13,9.13,0,0,0-3.23-1.85,11.68,11.68,0,0,1-4,6.64,9.6,9.6,0,0,1-2.81,1.58,9.76,9.76,0,0,1-3.32.56A4.88,4.88,0,0,1,3,31.25a3.56,3.56,0,0,1-1-1.33A4.73,4.73,0,0,1,1.67,28.05Zm8-5.59c-.21.67-.45,1.36-.7,2.05-.37,1-.71,1.88-1,2.7-.19.5-.36.92-.49,1.27A1.84,1.84,0,0,1,6,29.75l-.19,0a2.12,2.12,0,0,1-1.61-.83c.06-.16.18-.47.36-.91s.52-1.3.86-2.17.65-1.78,1-2.73a6.23,6.23,0,0,0-1.67,1.11A5.46,5.46,0,0,0,3.44,26,4.52,4.52,0,0,0,3,27.76a3.06,3.06,0,0,0,1,2.5A3.33,3.33,0,0,0,6.24,31a5.8,5.8,0,0,0,2.39-.58A7.7,7.7,0,0,0,11,28.65a9,9,0,0,0,1.57-2.51,11.19,11.19,0,0,0,.81-3.28A16.05,16.05,0,0,0,9.71,22.46Zm-3-.34c.18-.59.34-1.16.48-1.7a8.72,8.72,0,0,0,.3-2v-.07c0-.54-.21-.82-.58-.82a3,3,0,0,1,1.51-.44,1.79,1.79,0,0,1,1.2.37,1.9,1.9,0,0,1,.57.89,3.52,3.52,0,0,1,.15,1A9,9,0,0,1,10,21.63l0,.07h.13a16.46,16.46,0,0,1,3.32.37l0-.42a11.91,11.91,0,0,0-.17-2,6.71,6.71,0,0,0-.66-2.1,4,4,0,0,0-1.38-1.5,4.19,4.19,0,0,0-2.27-.56,4.46,4.46,0,0,0-1.74.34,4.54,4.54,0,0,0-1.38.91,4.48,4.48,0,0,0-1.39,3.17,3.46,3.46,0,0,0,.25,1.37,3.35,3.35,0,0,0,.51.88,2.66,2.66,0,0,0,.37.38,0,0,0,0,0,0,0A6.75,6.75,0,0,1,6.72,22.12Z"/><path d="M25.63,14.07a1.63,1.63,0,0,1,.82.19,1.88,1.88,0,0,1,.54.44,2,2,0,0,1,.28.39,29.75,29.75,0,0,0-.85,4c-.33,1.95-.61,3.95-.86,6a39.67,39.67,0,0,0-.38,4.36,1.74,1.74,0,0,0,.05.39.24.24,0,0,0,.25.19c.39,0,1-.79,1.82-2.38a33.52,33.52,0,0,0,2.2-5.43,2.79,2.79,0,0,1-1.28-1.37A4.75,4.75,0,0,1,27.84,19a7.83,7.83,0,0,1,.39-2.44,6.81,6.81,0,0,1,1-2,1.64,1.64,0,0,1,1.24-.8,1.43,1.43,0,0,1,1.13.44,2.33,2.33,0,0,1,.53,1.13,5.83,5.83,0,0,1,.14,1.35v.11a19.31,19.31,0,0,1-1.16,5.5,9.23,9.23,0,0,0,1.18.08A8.83,8.83,0,0,0,34.73,22a4.88,4.88,0,0,1-2.79.74c-.3,0-.62,0-1-.05a35.4,35.4,0,0,1-1.38,3.39,24.23,24.23,0,0,1-1.71,3.09A10.72,10.72,0,0,1,26,31.39a3.08,3.08,0,0,1-2,.85A1.68,1.68,0,0,1,22.24,31a3.52,3.52,0,0,1-.15-1c0-.92.09-2.36.28-4.32s.43-3.89.73-5.82A32.6,32.6,0,0,1,24,15.44a3.51,3.51,0,0,0-2.32,1,7.68,7.68,0,0,0-1.83,2.38,6.17,6.17,0,0,0-.72,2.8,3.91,3.91,0,0,0,.31,1.56,2.75,2.75,0,0,0,1,1.2l-.08,0a2.74,2.74,0,0,1-.53.23,2.14,2.14,0,0,1-.69.09A1.83,1.83,0,0,1,18,24.34a2.12,2.12,0,0,1-.66-.88,2.73,2.73,0,0,1-.21-1,6.34,6.34,0,0,1,.79-3,10.19,10.19,0,0,1,2-2.7,11,11,0,0,1,2.75-1.93A6.63,6.63,0,0,1,25.63,14.07Zm4,7.62a15.43,15.43,0,0,0,.7-4.22,4.48,4.48,0,0,0-.08-.88c-.05-.25-.17-.38-.35-.38s-.6.32-.92,1a4.76,4.76,0,0,0-.47,2.1,3.62,3.62,0,0,0,.25,1.34A2.38,2.38,0,0,0,29.66,21.69Z"/><path d="M38.29,16.53v0a1,1,0,0,0,.07-.21,1.15,1.15,0,0,0,0-.26.31.31,0,0,0-.07-.21.29.29,0,0,0-.25-.09,2.54,2.54,0,0,0-1.57.6,6.38,6.38,0,0,0-1.39,1.52,9,9,0,0,0-1,1.93,5.21,5.21,0,0,0-.37,1.81,3.91,3.91,0,0,0,.31,1.56,2.8,2.8,0,0,0,1,1.2l-.06,0a3,3,0,0,1-.53.23,2.27,2.27,0,0,1-.71.09,1.82,1.82,0,0,1-1.14-.35,2.3,2.3,0,0,1-.66-.88,2.73,2.73,0,0,1-.21-1,6.34,6.34,0,0,1,.79-3,10.23,10.23,0,0,1,2-2.7,10.9,10.9,0,0,1,2.74-1.93,6.6,6.6,0,0,1,2.9-.72,1.54,1.54,0,0,1,1,.26,1.09,1.09,0,0,1,.4.67,2.73,2.73,0,0,1,.05.5,2.34,2.34,0,0,1,0,.38,6.37,6.37,0,0,1-.21.91c0,.1-.08.22-.13.35-.29.89-.69,2.16-1.2,3.79s-1,3.28-1.41,4.94A16.48,16.48,0,0,0,38,29.58c0,.33.06.49.19.49.13-.46.33-1.15.62-2.06s.63-1.94,1-3.09.89-2.31,1.42-3.49A29.43,29.43,0,0,1,43,18.16,11.06,11.06,0,0,1,45,15.73a3.08,3.08,0,0,1,2.09-.94,1.35,1.35,0,0,1,.75.17.93.93,0,0,1,.38.41,1.24,1.24,0,0,1,.11.48,46.06,46.06,0,0,1-1.72,6.43,33.54,33.54,0,0,0-1.72,7.3c0,.33.06.49.19.49.12-.46.32-1.11.59-1.95s.61-1.78,1-2.83S47.5,23.2,48,22.14a25.12,25.12,0,0,1,1.59-2.92A10.43,10.43,0,0,1,51.37,17a2.88,2.88,0,0,1,1.9-.83,1.58,1.58,0,0,1,.82.24.82.82,0,0,1,.41.76,28.47,28.47,0,0,1-1.45,5.95,26.31,26.31,0,0,0-1.45,6.33,1.74,1.74,0,0,0,0,.39.25.25,0,0,0,.26.19c.29,0,.71-.35,1.27-1.05a22.51,22.51,0,0,0,1.59-2.25,13.63,13.63,0,0,0,1-1.85,4.1,4.1,0,0,1-.32,1c-.22.55-.51,1.17-.88,1.88a20.69,20.69,0,0,1-1.24,2,9.33,9.33,0,0,1-1.44,1.67,2.25,2.25,0,0,1-1.45.67,1.57,1.57,0,0,1-1.34-.61A3.38,3.38,0,0,1,48.56,30c0-.26,0-.52,0-.78a13,13,0,0,1,.1-1.48,23.88,23.88,0,0,1,.46-2.54c.21-.87.43-1.69.68-2.47s.47-1.45.68-2,.39-1,.51-1.24c-.26,0-.65.47-1.17,1.4s-1.05,2.07-1.63,3.42S47,27,46.56,28.38s-.86,2.53-1.11,3.49a4,4,0,0,1-1.51.37h0A1.7,1.7,0,0,1,42.19,31a6,6,0,0,1-.27-1.89A11,11,0,0,1,42,27.85a27.27,27.27,0,0,1,.71-3.9c.35-1.35.7-2.55,1.06-3.62s.63-1.82.81-2.25c-.26,0-.78.78-1.55,2.36S41.47,23.85,40.68,26a48.48,48.48,0,0,0-1.82,5.81,3.66,3.66,0,0,1-.94.36,3.82,3.82,0,0,1-.84.12,1.79,1.79,0,0,1-1.39-.57A2.35,2.35,0,0,1,35.17,30a20.17,20.17,0,0,1,.55-4.25q.56-2.5,1.26-4.93c.47-1.62.88-3,1.24-4.08C38.24,16.68,38.27,16.6,38.29,16.53Z"/><path class="cls-4" d="M1.67,28.05a5.68,5.68,0,0,1,.79-2.84,6.42,6.42,0,0,1,2.46-2.35,1,1,0,0,1-.27.05l-.37,0A2.24,2.24,0,0,1,3,22.56a2.44,2.44,0,0,1-.8-1,3.63,3.63,0,0,1-.27-1.42,5.14,5.14,0,0,1,.56-2.23,6.19,6.19,0,0,1,1.7-2.11,7.48,7.48,0,0,1,2.31-1.25,9.94,9.94,0,0,1,3.2-.47,7.38,7.38,0,0,1,4.28,1.14,5.84,5.84,0,0,1,2.28,3.14A8.82,8.82,0,0,1,16.6,21a13,13,0,0,1-.15,1.91,6.83,6.83,0,0,1,3.11,2.48,9.13,9.13,0,0,0-3.23-1.85,11.68,11.68,0,0,1-4,6.64,9.6,9.6,0,0,1-2.81,1.58,9.76,9.76,0,0,1-3.32.56A4.88,4.88,0,0,1,3,31.25a3.56,3.56,0,0,1-1-1.33A4.73,4.73,0,0,1,1.67,28.05Zm8-5.59c-.21.67-.45,1.36-.7,2.05-.37,1-.71,1.88-1,2.7-.19.5-.36.92-.49,1.27A1.84,1.84,0,0,1,6,29.75l-.19,0a2.12,2.12,0,0,1-1.61-.83c.06-.16.18-.47.36-.91s.52-1.3.86-2.17.65-1.78,1-2.73a6.23,6.23,0,0,0-1.67,1.11A5.46,5.46,0,0,0,3.44,26,4.52,4.52,0,0,0,3,27.76a3.06,3.06,0,0,0,1,2.5A3.33,3.33,0,0,0,6.24,31a5.8,5.8,0,0,0,2.39-.58A7.7,7.7,0,0,0,11,28.65a9,9,0,0,0,1.57-2.51,11.19,11.19,0,0,0,.81-3.28A16.05,16.05,0,0,0,9.71,22.46Zm-3-.34c.18-.59.34-1.16.48-1.7a8.72,8.72,0,0,0,.3-2v-.07c0-.54-.21-.82-.58-.82a3,3,0,0,1,1.51-.44,1.79,1.79,0,0,1,1.2.37,1.9,1.9,0,0,1,.57.89,3.52,3.52,0,0,1,.15,1A9,9,0,0,1,10,21.63l0,.07h.13a16.46,16.46,0,0,1,3.32.37l0-.42a11.91,11.91,0,0,0-.17-2,6.71,6.71,0,0,0-.66-2.1,4,4,0,0,0-1.38-1.5,4.19,4.19,0,0,0-2.27-.56,4.46,4.46,0,0,0-1.74.34,4.54,4.54,0,0,0-1.38.91,4.48,4.48,0,0,0-1.39,3.17,3.46,3.46,0,0,0,.25,1.37,3.35,3.35,0,0,0,.51.88,2.66,2.66,0,0,0,.37.38,0,0,0,0,0,0,0A6.75,6.75,0,0,1,6.72,22.12Z"/><path class="cls-4" d="M25.63,14.07a1.63,1.63,0,0,1,.82.19,1.88,1.88,0,0,1,.54.44,2,2,0,0,1,.28.39,29.75,29.75,0,0,0-.85,4c-.33,1.95-.61,3.95-.86,6a39.67,39.67,0,0,0-.38,4.36,1.74,1.74,0,0,0,.05.39.24.24,0,0,0,.25.19c.39,0,1-.79,1.82-2.38a33.52,33.52,0,0,0,2.2-5.43,2.79,2.79,0,0,1-1.28-1.37A4.75,4.75,0,0,1,27.84,19a7.83,7.83,0,0,1,.39-2.44,6.81,6.81,0,0,1,1-2,1.64,1.64,0,0,1,1.24-.8,1.43,1.43,0,0,1,1.13.44,2.33,2.33,0,0,1,.53,1.13,5.83,5.83,0,0,1,.14,1.35v.11a19.31,19.31,0,0,1-1.16,5.5,9.23,9.23,0,0,0,1.18.08A8.83,8.83,0,0,0,34.73,22a4.88,4.88,0,0,1-2.79.74c-.3,0-.62,0-1-.05a35.4,35.4,0,0,1-1.38,3.39,24.23,24.23,0,0,1-1.71,3.09A10.72,10.72,0,0,1,26,31.39a3.08,3.08,0,0,1-2,.85A1.68,1.68,0,0,1,22.24,31a3.52,3.52,0,0,1-.15-1c0-.92.09-2.36.28-4.32s.43-3.89.73-5.82A32.6,32.6,0,0,1,24,15.44a3.51,3.51,0,0,0-2.32,1,7.68,7.68,0,0,0-1.83,2.38,6.17,6.17,0,0,0-.72,2.8,3.91,3.91,0,0,0,.31,1.56,2.75,2.75,0,0,0,1,1.2l-.08,0a2.74,2.74,0,0,1-.53.23,2.14,2.14,0,0,1-.69.09A1.83,1.83,0,0,1,18,24.34a2.12,2.12,0,0,1-.66-.88,2.73,2.73,0,0,1-.21-1,6.34,6.34,0,0,1,.79-3,10.19,10.19,0,0,1,2-2.7,11,11,0,0,1,2.75-1.93A6.63,6.63,0,0,1,25.63,14.07Zm4,7.62a15.43,15.43,0,0,0,.7-4.22,4.48,4.48,0,0,0-.08-.88c-.05-.25-.17-.38-.35-.38s-.6.32-.92,1a4.76,4.76,0,0,0-.47,2.1,3.62,3.62,0,0,0,.25,1.34A2.38,2.38,0,0,0,29.66,21.69Z"/><path class="cls-4" d="M38.29,16.53v0a1,1,0,0,0,.07-.21,1.15,1.15,0,0,0,0-.26.31.31,0,0,0-.07-.21.29.29,0,0,0-.25-.09,2.54,2.54,0,0,0-1.57.6,6.38,6.38,0,0,0-1.39,1.52,9,9,0,0,0-1,1.93,5.21,5.21,0,0,0-.37,1.81,3.91,3.91,0,0,0,.31,1.56,2.8,2.8,0,0,0,1,1.2l-.06,0a3,3,0,0,1-.53.23,2.27,2.27,0,0,1-.71.09,1.82,1.82,0,0,1-1.14-.35,2.3,2.3,0,0,1-.66-.88,2.73,2.73,0,0,1-.21-1,6.34,6.34,0,0,1,.79-3,10.23,10.23,0,0,1,2-2.7,10.9,10.9,0,0,1,2.74-1.93,6.6,6.6,0,0,1,2.9-.72,1.54,1.54,0,0,1,1,.26,1.09,1.09,0,0,1,.4.67,2.73,2.73,0,0,1,.05.5,2.34,2.34,0,0,1,0,.38,6.37,6.37,0,0,1-.21.91c0,.1-.08.22-.13.35-.29.89-.69,2.16-1.2,3.79s-1,3.28-1.41,4.94A16.48,16.48,0,0,0,38,29.58c0,.33.06.49.19.49.13-.46.33-1.15.62-2.06s.63-1.94,1-3.09.89-2.31,1.42-3.49A29.43,29.43,0,0,1,43,18.16,11.06,11.06,0,0,1,45,15.73a3.08,3.08,0,0,1,2.09-.94,1.35,1.35,0,0,1,.75.17.93.93,0,0,1,.38.41,1.24,1.24,0,0,1,.11.48,46.06,46.06,0,0,1-1.72,6.43,33.54,33.54,0,0,0-1.72,7.3c0,.33.06.49.19.49.12-.46.32-1.11.59-1.95s.61-1.78,1-2.83S47.5,23.2,48,22.14a25.12,25.12,0,0,1,1.59-2.92A10.43,10.43,0,0,1,51.37,17a2.88,2.88,0,0,1,1.9-.83,1.58,1.58,0,0,1,.82.24.82.82,0,0,1,.41.76,28.47,28.47,0,0,1-1.45,5.95,26.31,26.31,0,0,0-1.45,6.33,1.74,1.74,0,0,0,0,.39.25.25,0,0,0,.26.19c.29,0,.71-.35,1.27-1.05a22.51,22.51,0,0,0,1.59-2.25,13.63,13.63,0,0,0,1-1.85,4.1,4.1,0,0,1-.32,1c-.22.55-.51,1.17-.88,1.88a20.69,20.69,0,0,1-1.24,2,9.33,9.33,0,0,1-1.44,1.67,2.25,2.25,0,0,1-1.45.67,1.57,1.57,0,0,1-1.34-.61A3.38,3.38,0,0,1,48.56,30c0-.26,0-.52,0-.78a13,13,0,0,1,.1-1.48,23.88,23.88,0,0,1,.46-2.54c.21-.87.43-1.69.68-2.47s.47-1.45.68-2,.39-1,.51-1.24c-.26,0-.65.47-1.17,1.4s-1.05,2.07-1.63,3.42S47,27,46.56,28.38s-.86,2.53-1.11,3.49a4,4,0,0,1-1.51.37h0A1.7,1.7,0,0,1,42.19,31a6,6,0,0,1-.27-1.89A11,11,0,0,1,42,27.85a27.27,27.27,0,0,1,.71-3.9c.35-1.35.7-2.55,1.06-3.62s.63-1.82.81-2.25c-.26,0-.78.78-1.55,2.36S41.47,23.85,40.68,26a48.48,48.48,0,0,0-1.82,5.81,3.66,3.66,0,0,1-.94.36,3.82,3.82,0,0,1-.84.12,1.79,1.79,0,0,1-1.39-.57A2.35,2.35,0,0,1,35.17,30a20.17,20.17,0,0,1,.55-4.25q.56-2.5,1.26-4.93c.47-1.62.88-3,1.24-4.08C38.24,16.68,38.27,16.6,38.29,16.53Z"/><path d="M66.36,21.46a2.4,2.4,0,0,1-1.35.32h-.24a4.71,4.71,0,0,1-1.6-.26,2.45,2.45,0,0,0,.63-.7,6.08,6.08,0,0,0,.56-1.08,6.17,6.17,0,0,0,.34-1.15,3.93,3.93,0,0,0,0-.45,1.37,1.37,0,0,0-.07-.47.52.52,0,0,0-.56-.38,2.51,2.51,0,0,0-1.76.82,7.44,7.44,0,0,0-1.47,2.16,14.22,14.22,0,0,0-1,2.93,13.74,13.74,0,0,0-.37,3.15,5.21,5.21,0,0,0,.22,1.56,2.58,2.58,0,0,0,.72,1.17,1.85,1.85,0,0,0,1.3.45,4.31,4.31,0,0,0,1.78-.38,6.16,6.16,0,0,0,1.55-1,12.07,12.07,0,0,0,1.34-1.42,19.42,19.42,0,0,0,1.14-1.6,5.59,5.59,0,0,1-.51,1.42,8.71,8.71,0,0,1-1,1.6,8.82,8.82,0,0,1-1.5,1.49,7.32,7.32,0,0,1-2,1.11,6.49,6.49,0,0,1-2.37.42A3.74,3.74,0,0,1,58,30.53a3.61,3.61,0,0,1-1.27-1.69,6.53,6.53,0,0,1-.41-2.36A13.87,13.87,0,0,1,57.49,21,10.46,10.46,0,0,1,59,18.54a7.07,7.07,0,0,1,2.07-1.72,5.48,5.48,0,0,1,2.66-.64,4.55,4.55,0,0,1,2,.36,2.27,2.27,0,0,1,1,.94,2.69,2.69,0,0,1,.34,1.28v.08a4.54,4.54,0,0,1-.2,1.32A6.93,6.93,0,0,1,66.36,21.46Z"/><path d="M74.12,24.16a2.45,2.45,0,0,1-.42,1.33,3.14,3.14,0,0,1-1,1,2.8,2.8,0,0,1-1.62.5,1.43,1.43,0,0,1-1-.37,8.08,8.08,0,0,0-.26,1.5,2.33,2.33,0,0,0,.17,1,.93.93,0,0,0,.84.53,2.91,2.91,0,0,0,1.49-.41,5.55,5.55,0,0,0,1.25-1,8.65,8.65,0,0,0,.9-1.17,10.4,10.4,0,0,0,1-1.9,5.79,5.79,0,0,1-.72,2.09,9.77,9.77,0,0,1-.91,1.43,7.39,7.39,0,0,1-1.73,1.71,4.22,4.22,0,0,1-2.36.81h-.07a3.15,3.15,0,0,1-2.11-.76,2.35,2.35,0,0,1-.59-.87,3.14,3.14,0,0,1-.22-1.25,8.88,8.88,0,0,1,.44-2.35,9.47,9.47,0,0,1,1-2.17,3.58,3.58,0,0,1,.9-1,3.29,3.29,0,0,1,2.1-.64,4.22,4.22,0,0,1,1.76.38,2.43,2.43,0,0,1,.79.66A1.57,1.57,0,0,1,74.12,24.16Zm-1.74-.62v0c0-.28-.08-.43-.23-.43a.72.72,0,0,0-.47.2,2,2,0,0,0-.45.52,7.41,7.41,0,0,0-.61,1.26c-.14.38-.26.76-.37,1.14a.87.87,0,0,0,.47.17,1,1,0,0,0,.81-.46,3,3,0,0,0,.57-1A4.66,4.66,0,0,0,72.38,23.54Z"/><path d="M82.22,24.24a5.06,5.06,0,0,0-1.32,1.61c-.19.32-.37.64-.56,1-.26.52-.52,1.06-.77,1.63a24.57,24.57,0,0,0-.93,2.39,4.27,4.27,0,0,1-1.49.31,2.09,2.09,0,0,1-1.46-.5,1.77,1.77,0,0,1-.49-1.33,13.92,13.92,0,0,1,.46-2.92A18.77,18.77,0,0,1,77,22.79c.28-.41.92-.62,1.93-.63a2.56,2.56,0,0,1,1.29.3,12.5,12.5,0,0,0-1.44,3.07A11.52,11.52,0,0,0,78,28.72c0,.43.1.65.26.65.13-.38.32-.87.56-1.46a22,22,0,0,1,1-2,13.22,13.22,0,0,1,1.12-1.74,6.83,6.83,0,0,1,1.44-1.45A2.84,2.84,0,0,1,84,22.12a1.9,1.9,0,0,1,1,.24.87.87,0,0,1,.42.82,6.77,6.77,0,0,1-.5,1.73,13.63,13.63,0,0,0-1,4c0,.32.12.48.31.48s.47-.17.78-.52a10.52,10.52,0,0,0,1-1.24c.33-.49.62-1,.88-1.42s.45-.81.57-1.07a3.54,3.54,0,0,1-.26.87c-.18.45-.42,1-.71,1.55a14.23,14.23,0,0,1-1,1.69,7.58,7.58,0,0,1-1.25,1.37,2.16,2.16,0,0,1-1.37.56,1.84,1.84,0,0,1-1.41-.52,1.81,1.81,0,0,1-.49-1.31A14.92,14.92,0,0,1,82.22,24.24Z"/><path d="M89.24,21l.15-.41Q90.24,18,90.65,17a5.63,5.63,0,0,1,1.87-.33,3.2,3.2,0,0,1,.73.08,1.18,1.18,0,0,1,.5.26c-.37.89-.85,2.15-1.42,3.8l-.09.25a17,17,0,0,0,2-.2c-.11.3-.46.53-1,.7a8.94,8.94,0,0,1-1.18.27c-.44,1.29-.84,2.57-1.21,3.82a14.62,14.62,0,0,0-.69,3.24,1,1,0,0,0,0,.33c0,.1.11.15.25.15a1.45,1.45,0,0,0,1-.52,9.72,9.72,0,0,0,1-1.24,16.11,16.11,0,0,0,.92-1.42,10.14,10.14,0,0,0,.57-1.07,3.19,3.19,0,0,1-.26.92,11.46,11.46,0,0,1-.73,1.54,13.17,13.17,0,0,1-1.08,1.67,6.73,6.73,0,0,1-1.36,1.36,2.47,2.47,0,0,1-1.51.55,1.92,1.92,0,0,1-1.19-.31,1.51,1.51,0,0,1-.56-.73,2.38,2.38,0,0,1-.15-.79,15.61,15.61,0,0,1,.76-3.66c.34-1.19.69-2.36,1.07-3.52l-.49,0a.73.73,0,0,1-.41-.62,2.09,2.09,0,0,1,0-.24,1.21,1.21,0,0,1,.11-.52Z"/><path d="M97.05,30.85a4.32,4.32,0,0,1-1.5.31h0a2,2,0,0,1-1.39-.46,1.74,1.74,0,0,1-.52-1.37,13.92,13.92,0,0,1,.46-2.92,18.15,18.15,0,0,1,1.3-3.62,2.07,2.07,0,0,1,1.48-.61l.43,0a2.64,2.64,0,0,1,1.31.3,7.92,7.92,0,0,0-.83,1.76c-.32.86-.61,1.75-.86,2.69A8.61,8.61,0,0,0,96.51,29V29c0,.22,0,.33.13.33l.28-.91c.14-.47.29-1,.48-1.54s.4-1.12.65-1.68a9.6,9.6,0,0,1,.87-1.61,4.46,4.46,0,0,1,1.13-1.19,2.44,2.44,0,0,1,1.4-.43,1.83,1.83,0,0,1,1,.26.94.94,0,0,1,.42.87,2.26,2.26,0,0,1-.15.7c-.1.28-.21.57-.33.85s-.23.58-.32.85a2.44,2.44,0,0,0-.14.72q0,.45.21.45a1,1,0,0,0,.59-.33,5.47,5.47,0,0,0,.66-.7,2.59,2.59,0,0,0,.38-.56,1.82,1.82,0,0,1-.32.89,3.57,3.57,0,0,1-.88,1,2.25,2.25,0,0,1-1.29.46h0a2.15,2.15,0,0,1-1.13-.28,1,1,0,0,1-.48-.91A4.78,4.78,0,0,1,99.84,25a6.27,6.27,0,0,1,.92-1.77,1.23,1.23,0,0,0-.92.57A7.52,7.52,0,0,0,99,25.21,19,19,0,0,0,98.26,27c-.23.62-.43,1.23-.6,1.8s-.32,1.08-.44,1.49Z"/><path d="M111.87,28.89a1.26,1.26,0,0,0,0,.33.23.23,0,0,0,.25.15.85.85,0,0,0,.54-.29,5.83,5.83,0,0,0,.68-.75,19.38,19.38,0,0,0,1.17-1.77c.36-.63.63-1.11.78-1.44a5.17,5.17,0,0,1-.43,1.31,15.46,15.46,0,0,1-1.17,2.21,9.83,9.83,0,0,1-.92,1.25,5.41,5.41,0,0,1-1,.92,2,2,0,0,1-1.09.35,1.91,1.91,0,0,1-1.18-.31,1.57,1.57,0,0,1-.56-.73,2.38,2.38,0,0,1-.15-.79A7.67,7.67,0,0,1,109,27.8a10.36,10.36,0,0,1-.78,1.42A5.43,5.43,0,0,1,107,30.66a2,2,0,0,1-1.28.5,2.19,2.19,0,0,1-.82-.14,1.66,1.66,0,0,1-.55-.34,1.71,1.71,0,0,1-.42-.7,2.52,2.52,0,0,1-.11-.65,8,8,0,0,1,.1-1.09,15.12,15.12,0,0,1,.33-1.59,12.62,12.62,0,0,1,.78-2.21,5.43,5.43,0,0,1,1-1.54,2.53,2.53,0,0,1,.7-.54,1.62,1.62,0,0,1,.81-.2,3.75,3.75,0,0,1,1.55.33,4.51,4.51,0,0,1,1.28.84s0-.07,0-.14a1.65,1.65,0,0,1,.09-.21,1.12,1.12,0,0,1,.77-.64,4.26,4.26,0,0,1,1.28-.18,3.36,3.36,0,0,1,.74.08,1.13,1.13,0,0,1,.49.25c-.14.33-.3.72-.47,1.18s-.45,1.19-.67,1.85a19.18,19.18,0,0,0-.56,2A6.24,6.24,0,0,0,111.87,28.89Zm-1.75-4.95a1.55,1.55,0,0,0-1.1-.71c-.28,0-.54.2-.78.61a7.18,7.18,0,0,0-.76,1.84c-.16.51-.29,1-.39,1.48a13.64,13.64,0,0,0-.26,1.68,1.36,1.36,0,0,0,0,.36.22.22,0,0,0,.24.17c.15,0,.34-.13.56-.41a7.43,7.43,0,0,0,.67-1.05c.33-.63.65-1.28.94-2C109.7,25,110,24.33,110.12,23.94Z"/><path d="M118.62,17a5.62,5.62,0,0,1,1.86-.33,3.29,3.29,0,0,1,.74.08,1.24,1.24,0,0,1,.5.26c-.26.61-.68,1.72-1.25,3.33s-1.13,3.26-1.65,5a14.52,14.52,0,0,0-.78,3.59q0,.48.3.48c.21,0,.47-.17.79-.52a11.7,11.7,0,0,0,1-1.24c.32-.49.61-1,.87-1.42s.44-.81.56-1.07a3.54,3.54,0,0,1-.26.87,14.77,14.77,0,0,1-.7,1.55,14.14,14.14,0,0,1-1,1.69,7.31,7.31,0,0,1-1.27,1.37,2.14,2.14,0,0,1-1.36.56,1.79,1.79,0,0,1-1.51-.62,2,2,0,0,1-.4-1.21,15.3,15.3,0,0,1,.75-3.77q.74-2.58,1.59-5C117.9,18.9,118.33,17.72,118.62,17Z"/><path d="M58.16,36.31H56.82L56.6,37h-.71l1.21-3.36h.79L59.1,37h-.72ZM58,35.77l-.49-1.4L57,35.77Z"/><path d="M64.1,33.59,62.87,37h-.82l-1.23-3.36h.72l.92,2.68.92-2.68Z"/><path d="M67.16,35.82h-2a.61.61,0,0,0,.64.62.57.57,0,0,0,.54-.32h.72a1.2,1.2,0,0,1-.44.63,1.27,1.27,0,0,1-.8.25,1.48,1.48,0,0,1-.7-.17,1.23,1.23,0,0,1-.47-.49,1.42,1.42,0,0,1-.17-.72,1.54,1.54,0,0,1,.16-.73,1.17,1.17,0,0,1,.48-.48,1.42,1.42,0,0,1,.7-.17,1.4,1.4,0,0,1,.68.17,1.13,1.13,0,0,1,.46.46,1.31,1.31,0,0,1,.17.69A1.84,1.84,0,0,1,67.16,35.82Zm-.68-.45a.52.52,0,0,0-.19-.42.67.67,0,0,0-.44-.15.6.6,0,0,0-.63.57Z"/><path d="M68.65,34.84v1.29a.24.24,0,0,0,.07.2.29.29,0,0,0,.21.06h.32V37h-.43a.74.74,0,0,1-.85-.82V34.84h-.32v-.55H68v-.66h.68v.66h.6v.55Z"/><path d="M71.25,34.89a1.17,1.17,0,0,1,1.06-.65,1.05,1.05,0,0,1,.52.12,1,1,0,0,1,.36.31v-.38h.68V37h-.68v-.39a.94.94,0,0,1-.36.32,1.08,1.08,0,0,1-.52.12,1.12,1.12,0,0,1-.62-.18,1.21,1.21,0,0,1-.44-.48,1.7,1.7,0,0,1-.16-.73A1.66,1.66,0,0,1,71.25,34.89Zm1.85.31a.68.68,0,0,0-.26-.27.73.73,0,0,0-.35-.09.68.68,0,0,0-.35.09.72.72,0,0,0-.26.26.93.93,0,0,0,0,.84.69.69,0,0,0,.61.38.74.74,0,0,0,.35-.1A.68.68,0,0,0,73.1,36a1,1,0,0,0,0-.84Z"/><path d="M77,34.55a1.17,1.17,0,0,1,.29.84V37h-.68V35.48a.74.74,0,0,0-.15-.49.59.59,0,0,0-.44-.17.6.6,0,0,0-.44.17.69.69,0,0,0-.16.49V37h-.67V34.29h.67v.33a.82.82,0,0,1,.34-.27,1,1,0,0,1,.46-.1A1.06,1.06,0,0,1,77,34.55Z"/><path d="M78.09,34.89a1.17,1.17,0,0,1,1.06-.65,1.08,1.08,0,0,1,.5.12.94.94,0,0,1,.38.3V33.39h.68V37H80v-.39a1,1,0,0,1-.36.32,1.08,1.08,0,0,1-.52.12,1.12,1.12,0,0,1-.62-.18,1.21,1.21,0,0,1-.44-.48,1.57,1.57,0,0,1-.16-.73A1.53,1.53,0,0,1,78.09,34.89Zm1.84.31a.62.62,0,0,0-.26-.27.7.7,0,0,0-.35-.09.73.73,0,0,0-.35.09.69.69,0,0,0-.25.26.93.93,0,0,0,0,.84.64.64,0,0,0,.26.28.67.67,0,0,0,.34.1.71.71,0,0,0,.35-.1.62.62,0,0,0,.26-.27.93.93,0,0,0,0-.84Z"/><path d="M85.19,33.59v.55h-.9V37h-.67V34.14h-.9v-.55Z"/><path d="M88.34,35.82h-2a.69.69,0,0,0,.21.46.66.66,0,0,0,.44.16.55.55,0,0,0,.53-.32h.73a1.28,1.28,0,0,1-.45.63A1.23,1.23,0,0,1,87,37a1.41,1.41,0,0,1-.69-.17,1.26,1.26,0,0,1-.48-.49,1.63,1.63,0,0,1,0-1.45,1.15,1.15,0,0,1,.47-.48,1.45,1.45,0,0,1,.7-.17,1.4,1.4,0,0,1,.68.17,1.16,1.16,0,0,1,.47.46,1.41,1.41,0,0,1,.17.69A1.84,1.84,0,0,1,88.34,35.82Zm-.68-.45a.59.59,0,0,0-.19-.42A.68.68,0,0,0,87,34.8a.6.6,0,0,0-.42.15.65.65,0,0,0-.21.42Z"/><path d="M89,34.9a1.3,1.3,0,0,1,.47-.49,1.41,1.41,0,0,1,.69-.17,1.35,1.35,0,0,1,.82.25,1.23,1.23,0,0,1,.43.7h-.72a.58.58,0,0,0-.2-.28.59.59,0,0,0-.34-.09.57.57,0,0,0-.46.21.92.92,0,0,0-.17.59.94.94,0,0,0,.17.59.57.57,0,0,0,.46.21.52.52,0,0,0,.54-.37h.72a1.2,1.2,0,0,1-.44.69,1.27,1.27,0,0,1-.81.26,1.41,1.41,0,0,1-.69-.17,1.35,1.35,0,0,1-.47-.48,1.54,1.54,0,0,1-.16-.73A1.47,1.47,0,0,1,89,34.9Z"/><path d="M94.17,34.38a.87.87,0,0,1,.37.39,1.32,1.32,0,0,1,.14.62V37H94V35.48a.69.69,0,0,0-.16-.49.56.56,0,0,0-.43-.17A.59.59,0,0,0,93,35a.69.69,0,0,0-.16.49V37h-.68V33.39h.68v1.23a.76.76,0,0,1,.34-.27,1.13,1.13,0,0,1,.49-.1A1,1,0,0,1,94.17,34.38Z"/><path d="M96.91,34.38a1.56,1.56,0,0,1,.61-.61,1.71,1.71,0,0,1,.87-.22,1.72,1.72,0,0,1,1,.29,1.5,1.5,0,0,1,.59.8h-.78a.75.75,0,0,0-.32-.36,1,1,0,0,0-.48-.12,1,1,0,0,0-.53.13.89.89,0,0,0-.35.39,1.22,1.22,0,0,0-.13.59,1.18,1.18,0,0,0,.13.58.89.89,0,0,0,.35.39,1,1,0,0,0,1,0,.73.73,0,0,0,.32-.37H100a1.49,1.49,0,0,1-.59.81,1.86,1.86,0,0,1-1.86.06,1.53,1.53,0,0,1-.61-.6,1.79,1.79,0,0,1-.23-.89A1.76,1.76,0,0,1,96.91,34.38Z"/><path d="M101.23,36.83a1.33,1.33,0,0,1-.48-.49,1.53,1.53,0,0,1,0-1.44,1.31,1.31,0,0,1,.5-.49,1.48,1.48,0,0,1,.7-.17,1.44,1.44,0,0,1,.69.17,1.31,1.31,0,0,1,.5.49,1.43,1.43,0,0,1,.18.72,1.34,1.34,0,0,1-.19.72,1.31,1.31,0,0,1-.5.49,1.53,1.53,0,0,1-1.4,0Zm1-.51a.68.68,0,0,0,.26-.27.91.91,0,0,0,.1-.43.84.84,0,0,0-.2-.59.7.7,0,0,0-.49-.2.66.66,0,0,0-.49.2,1,1,0,0,0,0,1.18.63.63,0,0,0,.48.2A.69.69,0,0,0,102.27,36.32Z"/><path d="M108.12,34.55a1.14,1.14,0,0,1,.3.84V37h-.68V35.48a.65.65,0,0,0-.16-.48.56.56,0,0,0-.43-.16.6.6,0,0,0-.44.16.69.69,0,0,0-.16.48V37h-.67V35.48a.69.69,0,0,0-.16-.48.58.58,0,0,0-.44-.16.6.6,0,0,0-.44.16.69.69,0,0,0-.16.48V37H104V34.29h.67v.32a1,1,0,0,1,.34-.27,1.06,1.06,0,0,1,.45-.09,1.16,1.16,0,0,1,.56.13.93.93,0,0,1,.38.38.85.85,0,0,1,.38-.37,1,1,0,0,1,.53-.14A1.1,1.1,0,0,1,108.12,34.55Z"/><path d="M110.28,34.37a1,1,0,0,1,.53-.13,1.17,1.17,0,0,1,.61.17,1.08,1.08,0,0,1,.44.48,1.53,1.53,0,0,1,.16.72,1.57,1.57,0,0,1-.16.73,1.17,1.17,0,0,1-1.57.54,1.12,1.12,0,0,1-.37-.31v1.66h-.67V34.29h.67v.38A1.07,1.07,0,0,1,110.28,34.37Zm1,.82a.81.81,0,0,0-.26-.26.73.73,0,0,0-.7,0,.75.75,0,0,0-.26.27.93.93,0,0,0,0,.84.75.75,0,0,0,.26.27.66.66,0,0,0,.7,0,.78.78,0,0,0,.26-.28.9.9,0,0,0,.1-.42A.93.93,0,0,0,111.24,35.19Z"/><path d="M112.7,34.89a1.08,1.08,0,0,1,.44-.48,1.17,1.17,0,0,1,.61-.17,1.12,1.12,0,0,1,.53.12,1,1,0,0,1,.36.31v-.38h.68V37h-.68v-.39a1.12,1.12,0,0,1-.36.32,1.15,1.15,0,0,1-.53.12,1.07,1.07,0,0,1-.61-.18,1.08,1.08,0,0,1-.44-.48,1.57,1.57,0,0,1-.16-.73A1.53,1.53,0,0,1,112.7,34.89Zm1.84.31a.62.62,0,0,0-.26-.27.73.73,0,0,0-.35-.09.7.7,0,0,0-.35.09.72.72,0,0,0-.26.26.93.93,0,0,0,0,.84.78.78,0,0,0,.26.28.66.66,0,0,0,.7,0,.62.62,0,0,0,.26-.27.93.93,0,0,0,0-.84Z"/><path d="M118.42,34.55a1.17,1.17,0,0,1,.29.84V37H118V35.48a.74.74,0,0,0-.16-.49.59.59,0,0,0-.44-.17A.6.6,0,0,0,117,35a.74.74,0,0,0-.16.49V37h-.67V34.29h.67v.33a.85.85,0,0,1,.35-.27,1,1,0,0,1,.46-.1A1,1,0,0,1,118.42,34.55Z"/><path d="M122.1,34.29l-1.65,3.93h-.72l.58-1.33-1.07-2.6H120l.69,1.86.7-1.86Z"/></svg>