<svg xmlns="http://www.w3.org/2000/svg" xmlns:xlink="http://www.w3.org/1999/xlink" viewBox="0 0 1920 1080"><defs><style>.cls-1{isolation:isolate;}.cls-2{opacity:0.1;}.cls-3{fill:#fff;}.cls-4{fill:#fdfdfd;}.cls-5{fill:#fbfbfb;}.cls-6{fill:#f9f9f9;}.cls-7{fill:#f7f7f7;}.cls-8{fill:#f6f6f6;}.cls-9{fill:#f4f4f4;}.cls-10{fill:#f2f2f2;}.cls-11{fill:#f0f0f0;}.cls-12{fill:#eee;}.cls-13{fill:#ececec;}.cls-14{fill:#eaeaea;}.cls-15{fill:#e8e8e8;}.cls-16{fill:#e6e6e6;}.cls-17{fill:#e4e4e4;}.cls-18{fill:#e3e3e3;}.cls-19{fill:#e1e1e1;}.cls-20{fill:#dfdfdf;}.cls-21{fill:#ddd;}.cls-22{fill:#dbdbdb;}.cls-23{fill:#d9d9d9;}.cls-24{fill:#d7d7d7;}.cls-25{fill:#d5d5d5;}.cls-26{fill:#d3d3d3;}.cls-27{fill:#d1d1d1;}.cls-28{fill:#d0d0d0;}.cls-29{fill:#cecece;}.cls-30{fill:#ccc;}.cls-31{fill:#cacaca;}.cls-32{fill:#c8c8c8;}.cls-33{fill:#c6c6c6;}.cls-34{fill:#c4c4c4;}.cls-35{fill:#c2c2c2;}.cls-36{fill:silver;}.cls-37{fill:#bfbfbf;}.cls-38{fill:#bdbdbd;}.cls-39{fill:#bbb;}.cls-40{fill:#b9b9b9;}.cls-41{fill:#b7b7b7;}.cls-42{fill:#b5b5b5;}.cls-43{fill:#b3b3b3;}.cls-44{fill:#b1b1b1;}.cls-45{fill:#afafaf;}.cls-46{fill:#adadad;}.cls-47{fill:#acacac;}.cls-48{fill:#aaa;}.cls-49{fill:#a8a8a8;}.cls-50{fill:#a6a6a6;}.cls-51{fill:#a4a4a4;}.cls-52{fill:#a2a2a2;}.cls-53{fill:#a0a0a0;}.cls-54{fill:#9e9e9e;}.cls-55{fill:#9c9c9c;}.cls-56{fill:#9a9a9a;}.cls-57{fill:#999;}.cls-58{fill:#979797;}.cls-59{fill:#959595;}.cls-60{fill:#939393;}.cls-61{fill:#919191;}.cls-62{fill:#8f8f8f;}.cls-63{fill:#8d8d8d;}.cls-64{fill:#8b8b8b;}.cls-65{fill:#898989;}.cls-66{fill:#878787;}.cls-67{fill:#868686;}.cls-68{fill:#848484;}.cls-69{fill:#828282;}.cls-70{fill:gray;}.cls-71{fill:#7e7e7e;}.cls-72{fill:#7c7c7c;}.cls-73{fill:#7a7a7a;}.cls-74{fill:#787878;}.cls-75{fill:#767676;}.cls-76{fill:#757575;}.cls-77{fill:#737373;}.cls-78{fill:#717171;}.cls-79{fill:#6f6f6f;}.cls-80{fill:#6d6d6d;}.cls-81{fill:#6b6b6b;}.cls-82{fill:#696969;}.cls-83{fill:#676767;}.cls-84{fill:#656565;}.cls-85{fill:#636363;}.cls-86{fill:#626262;}.cls-87{fill:#606060;}.cls-88{fill:#5e5e5e;}.cls-89{fill:#5c5c5c;}.cls-90{fill:#5a5a5a;}.cls-91{fill:#585858;}.cls-92{fill:#565656;}.cls-93{fill:#545454;}.cls-94{fill:#525252;}.cls-95{fill:#505050;}.cls-96{fill:#4f4f4f;}.cls-97{fill:#4d4d4d;}.cls-98{fill:#4b4b4b;}.cls-99{fill:#494949;}.cls-100{fill:#474747;}.cls-101{fill:url(#linear-gradient);}.cls-102{fill:url(#linear-gradient-2);}.cls-103{fill:#e0e0e0;}.cls-104{mix-blend-mode:multiply;}.cls-105{fill:#fbfcfd;}.cls-106{fill:#f7f9fb;}.cls-107{fill:#f2f5f9;}.cls-108{fill:#eef2f7;}.cls-109{fill:#eaeff5;}.cls-110{fill:#e6ecf3;}.cls-111{fill:#e1e8f1;}.cls-112{fill:#dde5ef;}.cls-113{fill:#d9e2ed;}.cls-114{fill:#d5dfeb;}.cls-115{fill:#d0dbe9;}.cls-116{fill:#ccd8e7;}.cls-117{fill:#c8d5e5;}.cls-118{fill:#c4d2e3;}.cls-119{fill:#bfcee0;}.cls-120{fill:#bbcbde;}.cls-121{fill:#b7c8dc;}.cls-122{fill:#b3c5da;}.cls-123{fill:#aec1d8;}.cls-124{fill:#aabed6;}.cls-125{fill:#a6bbd4;}.cls-126{fill:#a2b8d2;}.cls-127{fill:#9db4d0;}.cls-128{fill:#99b1ce;}.cls-129{fill:#95aecc;}.cls-130{fill:#91abca;}.cls-131{fill:#8ca7c8;}.cls-132{fill:#88a4c6;}.cls-133{fill:#84a1c4;}.cls-134{fill:#809ec2;}.cls-135{fill:#7c9bc0;}.cls-136{fill:#7797be;}.cls-137{fill:#7394bc;}.cls-138{fill:#6f91ba;}.cls-139{fill:#6b8eb8;}.cls-140{fill:#668ab6;}.cls-141{fill:#6287b4;}.cls-142{fill:#5e84b2;}.cls-143{fill:#5a81b0;}.cls-144{fill:#557dae;}.cls-145{fill:#517aac;}.cls-146{fill:#4d77aa;}.cls-147{fill:#4974a8;}.cls-148{fill:#4470a5;}.cls-149{fill:#406da3;}.cls-150{fill:#3c6aa1;}.cls-151{fill:#38679f;}.cls-152{fill:#33639d;}.cls-153{fill:#2f609b;}.cls-154{fill:#2b5d99;}.cls-155{fill:#275a97;}.cls-156{fill:#225695;}.cls-157{fill:#1e5393;}.cls-158{fill:#1a5091;}.cls-159{fill:#164d8f;}.cls-160{fill:#11498d;}.cls-161{fill:#0d468b;}.cls-162{fill:#094389;}.cls-163{fill:url(#linear-gradient-3);}.cls-164{fill:url(#linear-gradient-4);}.cls-165{fill:#b8e6ff;mix-blend-mode:overlay;opacity:0.7;}</style><linearGradient id="linear-gradient" x1="952.5" y1="58.89" x2="952.5" y2="365.88" gradientUnits="userSpaceOnUse"><stop offset="0" stop-color="#7ed2fc"/><stop offset="1" stop-color="#54b0f3"/></linearGradient><linearGradient id="linear-gradient-2" x1="952.64" y1="467.66" x2="952.64" y2="359.26" gradientUnits="userSpaceOnUse"><stop offset="0" stop-color="#fff"/><stop offset="1" stop-color="#ededed"/></linearGradient><linearGradient id="linear-gradient-3" x1="952.5" y1="339.16" x2="952.5" y2="1112.4" xlink:href="#linear-gradient"/><linearGradient id="linear-gradient-4" x1="952.5" y1="818.12" x2="952.5" y2="908.46" gradientUnits="userSpaceOnUse"><stop offset="0" stop-color="#7ed2fc"/><stop offset="1" stop-color="#75c3eb"/></linearGradient></defs><g class="cls-1"><g id="Layer_1" data-name="Layer 1"><g class="cls-2"><ellipse class="cls-3" cx="952.5" cy="1029.4" rx="476.2" ry="32.9"/><ellipse class="cls-4" cx="952.5" cy="1029.4" rx="472.3" ry="32.6"/><ellipse class="cls-5" cx="952.5" cy="1029.3" rx="468.3" ry="32.4"/><ellipse class="cls-6" cx="952.5" cy="1029.3" rx="464.3" ry="32.1"/><ellipse class="cls-7" cx="952.5" cy="1029.3" rx="460.4" ry="31.9"/><ellipse class="cls-8" cx="952.5" cy="1029.2" rx="456.4" ry="31.6"/><ellipse class="cls-9" cx="952.5" cy="1029.2" rx="452.4" ry="31.4"/><ellipse class="cls-10" cx="952.5" cy="1029.1" rx="448.5" ry="31.1"/><ellipse class="cls-11" cx="952.5" cy="1029.1" rx="444.5" ry="30.9"/><ellipse class="cls-12" cx="952.5" cy="1029" rx="440.5" ry="30.6"/><ellipse class="cls-13" cx="952.5" cy="1029" rx="436.5" ry="30.4"/><ellipse class="cls-14" cx="952.5" cy="1028.9" rx="432.6" ry="30.2"/><ellipse class="cls-15" cx="952.5" cy="1028.9" rx="428.6" ry="29.9"/><ellipse class="cls-16" cx="952.5" cy="1028.9" rx="424.6" ry="29.7"/><ellipse class="cls-17" cx="952.5" cy="1028.8" rx="420.7" ry="29.4"/><ellipse class="cls-18" cx="952.5" cy="1028.8" rx="416.7" ry="29.2"/><ellipse class="cls-19" cx="952.5" cy="1028.7" rx="412.7" ry="28.9"/><ellipse class="cls-20" cx="952.5" cy="1028.7" rx="408.8" ry="28.7"/><ellipse class="cls-21" cx="952.5" cy="1028.6" rx="404.8" ry="28.4"/><ellipse class="cls-22" cx="952.5" cy="1028.6" rx="400.8" ry="28.2"/><ellipse class="cls-23" cx="952.5" cy="1028.6" rx="396.9" ry="27.9"/><ellipse class="cls-24" cx="952.5" cy="1028.5" rx="392.9" ry="27.7"/><ellipse class="cls-25" cx="952.5" cy="1028.5" rx="388.9" ry="27.5"/><ellipse class="cls-26" cx="952.5" cy="1028.4" rx="384.9" ry="27.2"/><ellipse class="cls-27" cx="952.5" cy="1028.4" rx="381" ry="27"/><ellipse class="cls-28" cx="952.5" cy="1028.3" rx="377" ry="26.7"/><ellipse class="cls-29" cx="952.5" cy="1028.3" rx="373" ry="26.5"/><ellipse class="cls-30" cx="952.5" cy="1028.3" rx="369.1" ry="26.2"/><ellipse class="cls-31" cx="952.5" cy="1028.2" rx="365.1" ry="26"/><ellipse class="cls-32" cx="952.5" cy="1028.2" rx="361.1" ry="25.7"/><ellipse class="cls-33" cx="952.5" cy="1028.1" rx="357.2" ry="25.5"/><ellipse class="cls-34" cx="952.5" cy="1028.1" rx="353.2" ry="25.2"/><ellipse class="cls-35" cx="952.5" cy="1028" rx="349.2" ry="25"/><ellipse class="cls-36" cx="952.5" cy="1028" rx="345.3" ry="24.8"/><ellipse class="cls-37" cx="952.5" cy="1028" rx="341.3" ry="24.5"/><ellipse class="cls-38" cx="952.5" cy="1027.9" rx="337.3" ry="24.3"/><ellipse class="cls-39" cx="952.5" cy="1027.9" rx="333.3" ry="24"/><ellipse class="cls-40" cx="952.5" cy="1027.8" rx="329.4" ry="23.8"/><ellipse class="cls-41" cx="952.5" cy="1027.8" rx="325.4" ry="23.5"/><ellipse class="cls-42" cx="952.5" cy="1027.7" rx="321.4" ry="23.3"/><ellipse class="cls-43" cx="952.5" cy="1027.7" rx="317.5" ry="23"/><ellipse class="cls-44" cx="952.5" cy="1027.7" rx="313.5" ry="22.8"/><ellipse class="cls-45" cx="952.5" cy="1027.6" rx="309.5" ry="22.5"/><ellipse class="cls-46" cx="952.5" cy="1027.6" rx="305.6" ry="22.3"/><ellipse class="cls-47" cx="952.5" cy="1027.5" rx="301.6" ry="22.1"/><ellipse class="cls-48" cx="952.5" cy="1027.5" rx="297.6" ry="21.8"/><ellipse class="cls-49" cx="952.5" cy="1027.4" rx="293.7" ry="21.6"/><ellipse class="cls-50" cx="952.5" cy="1027.4" rx="289.7" ry="21.3"/><ellipse class="cls-51" cx="952.5" cy="1027.4" rx="285.7" ry="21.1"/><ellipse class="cls-52" cx="952.5" cy="1027.3" rx="281.7" ry="20.8"/><ellipse class="cls-53" cx="952.5" cy="1027.3" rx="277.8" ry="20.6"/><ellipse class="cls-54" cx="952.5" cy="1027.2" rx="273.8" ry="20.3"/><ellipse class="cls-55" cx="952.5" cy="1027.2" rx="269.8" ry="20.1"/><ellipse class="cls-56" cx="952.5" cy="1027.1" rx="265.9" ry="19.8"/><ellipse class="cls-57" cx="952.5" cy="1027.1" rx="261.9" ry="19.6"/><ellipse class="cls-58" cx="952.5" cy="1027.1" rx="257.9" ry="19.3"/><ellipse class="cls-59" cx="952.5" cy="1027" rx="254" ry="19.1"/><ellipse class="cls-60" cx="952.5" cy="1027" rx="250" ry="18.9"/><ellipse class="cls-61" cx="952.5" cy="1026.9" rx="246" ry="18.6"/><ellipse class="cls-62" cx="952.5" cy="1026.9" rx="242.1" ry="18.4"/><ellipse class="cls-63" cx="952.5" cy="1026.8" rx="238.1" ry="18.1"/><ellipse class="cls-64" cx="952.5" cy="1026.8" rx="234.1" ry="17.9"/><ellipse class="cls-65" cx="952.5" cy="1026.8" rx="230.2" ry="17.6"/><ellipse class="cls-66" cx="952.5" cy="1026.7" rx="226.2" ry="17.4"/><ellipse class="cls-67" cx="952.5" cy="1026.7" rx="222.2" ry="17.1"/><ellipse class="cls-68" cx="952.5" cy="1026.6" rx="218.2" ry="16.9"/><ellipse class="cls-69" cx="952.5" cy="1026.6" rx="214.3" ry="16.6"/><ellipse class="cls-70" cx="952.5" cy="1026.5" rx="210.3" ry="16.4"/><ellipse class="cls-71" cx="952.5" cy="1026.5" rx="206.3" ry="16.2"/><ellipse class="cls-72" cx="952.5" cy="1026.5" rx="202.4" ry="15.9"/><ellipse class="cls-73" cx="952.5" cy="1026.4" rx="198.4" ry="15.7"/><ellipse class="cls-74" cx="952.5" cy="1026.4" rx="194.4" ry="15.4"/><ellipse class="cls-75" cx="952.5" cy="1026.3" rx="190.5" ry="15.2"/><ellipse class="cls-76" cx="952.5" cy="1026.3" rx="186.5" ry="14.9"/><ellipse class="cls-77" cx="952.5" cy="1026.2" rx="182.5" ry="14.7"/><ellipse class="cls-78" cx="952.5" cy="1026.2" rx="178.6" ry="14.4"/><ellipse class="cls-79" cx="952.5" cy="1026.2" rx="174.6" ry="14.2"/><ellipse class="cls-80" cx="952.5" cy="1026.1" rx="170.6" ry="13.9"/><ellipse class="cls-81" cx="952.5" cy="1026.1" rx="166.6" ry="13.7"/><ellipse class="cls-82" cx="952.5" cy="1026" rx="162.7" ry="13.5"/><ellipse class="cls-83" cx="952.5" cy="1026" rx="158.7" ry="13.2"/><ellipse class="cls-84" cx="952.5" cy="1025.9" rx="154.7" ry="13"/><ellipse class="cls-85" cx="952.5" cy="1025.9" rx="150.8" ry="12.7"/><ellipse class="cls-86" cx="952.5" cy="1025.9" rx="146.8" ry="12.5"/><ellipse class="cls-87" cx="952.5" cy="1025.8" rx="142.8" ry="12.2"/><ellipse class="cls-88" cx="952.5" cy="1025.8" rx="138.9" ry="12"/><ellipse class="cls-89" cx="952.5" cy="1025.7" rx="134.9" ry="11.7"/><ellipse class="cls-90" cx="952.5" cy="1025.7" rx="130.9" ry="11.5"/><ellipse class="cls-91" cx="952.5" cy="1025.6" rx="127" ry="11.2"/><ellipse class="cls-92" cx="952.5" cy="1025.6" rx="123" ry="11"/><ellipse class="cls-93" cx="952.5" cy="1025.6" rx="119" ry="10.8"/><ellipse class="cls-94" cx="952.5" cy="1025.5" rx="115" ry="10.5"/><ellipse class="cls-95" cx="952.5" cy="1025.5" rx="111.1" ry="10.3"/><ellipse class="cls-96" cx="952.5" cy="1025.4" rx="107.1" ry="10"/><ellipse class="cls-97" cx="952.5" cy="1025.4" rx="103.1" ry="9.8"/><ellipse class="cls-98" cx="952.5" cy="1025.3" rx="99.2" ry="9.5"/><ellipse class="cls-99" cx="952.5" cy="1025.3" rx="95.2" ry="9.3"/><ellipse class="cls-100" cx="952.5" cy="1025.3" rx="91.2" ry="9"/></g><path class="cls-101" d="M1417.7,352.2a61.8,61.8,0,0,0-2.9-18.9,76.1,76.1,0,0,0-31.9-42.9L1010,50.1a106.4,106.4,0,0,0-115,0L522.1,290.4a76.6,76.6,0,0,0-31.9,42.9,61.8,61.8,0,0,0-2.9,18.9h0v2.1h0a62.3,62.3,0,0,0,2.9,18.9A76.7,76.7,0,0,0,522.1,416L895,656.3a106,106,0,0,0,115,0L1382.9,416a76.3,76.3,0,0,0,31.9-42.8,62.3,62.3,0,0,0,2.9-18.9h0v-2.1Z"/><path class="cls-3" d="M586.8,338.9h731.7a64.1,64.1,0,0,1,64.1,64.1V665.5a0,0,0,0,1,0,0h-860a0,0,0,0,1,0,0V403A64.1,64.1,0,0,1,586.8,338.9Z"/><path class="cls-102" d="M586.8,346h731.7a64.1,64.1,0,0,1,64.1,64.1V672.6a0,0,0,0,1,0,0h-860a0,0,0,0,1,0,0V410.1A64.1,64.1,0,0,1,586.8,346Z"/><rect class="cls-103" x="577.2" y="397" width="373.4" height="44.82" rx="14"/><rect class="cls-103" x="577.2" y="485.6" width="746.8" height="44.82" rx="18.8"/><rect class="cls-103" x="577.2" y="574.2" width="746.8" height="44.82" rx="18.8"/><g class="cls-104"><path class="cls-3" d="M1382.9,403.4,1010,643.7a106.4,106.4,0,0,1-115,0L522.1,403.4c-21.7-14-34.8-27.9-34.8-53.7v529A61.2,61.2,0,0,0,548.6,940h807.8a61.2,61.2,0,0,0,61.3-61.3V353.2C1417.7,379,1404.6,389.4,1382.9,403.4Z"/><path class="cls-105" d="M1382.9,403.8,1010,644a106,106,0,0,1-115,0L522.1,403.8c-21.7-14-34.8-28-34.8-53.8V878.9a61.2,61.2,0,0,0,61.3,61.3h807.8a61.2,61.2,0,0,0,61.3-61.3V353.4C1417.7,379.2,1404.6,389.8,1382.9,403.8Z"/><path class="cls-106" d="M1382.9,404.2,1010,644.3a106,106,0,0,1-115,0L522.1,404.2c-21.7-14-34.8-28.2-34.8-54v529a61.3,61.3,0,0,0,61.3,61.3h807.8a61.3,61.3,0,0,0,61.3-61.3V353.6C1417.7,379.4,1404.6,390.2,1382.9,404.2Z"/><path class="cls-107" d="M1382.9,404.6,1010,644.7a106.4,106.4,0,0,1-115,0L522.1,404.6c-21.7-13.9-34.8-28.3-34.8-54.1V879.4a61.3,61.3,0,0,0,61.3,61.3h807.8a61.3,61.3,0,0,0,61.3-61.3V353.8C1417.7,379.6,1404.6,390.7,1382.9,404.6Z"/><path class="cls-108" d="M1382.9,405,1010,645a106.4,106.4,0,0,1-115,0L522.1,405c-21.7-13.9-34.8-28.5-34.8-54.3v529a61.2,61.2,0,0,0,61.3,61.2h807.8a61.2,61.2,0,0,0,61.3-61.2V354C1417.7,379.8,1404.6,391.1,1382.9,405Z"/><path class="cls-109" d="M1382.9,405.5,1010,645.3a106.4,106.4,0,0,1-115,0L522.1,405.5c-21.7-14-34.8-28.7-34.8-54.5V879.9a61.2,61.2,0,0,0,61.3,61.2h807.8a61.2,61.2,0,0,0,61.3-61.2V354.2C1417.7,380,1404.6,391.5,1382.9,405.5Z"/><path class="cls-110" d="M1382.9,405.9,1010,645.6a106.4,106.4,0,0,1-115,0L522.1,405.9c-21.7-14-34.8-28.9-34.8-54.6V880.1a61.2,61.2,0,0,0,61.3,61.2h807.8a61.2,61.2,0,0,0,61.3-61.2V354.4C1417.7,380.2,1404.6,391.9,1382.9,405.9Z"/><path class="cls-111" d="M1382.9,406.3,1010,646a106.4,106.4,0,0,1-115,0L522.1,406.3c-21.7-14-34.8-29-34.8-54.8V880.4a61.1,61.1,0,0,0,61.3,61.1h807.8a61.1,61.1,0,0,0,61.3-61.1V354.6C1417.7,380.4,1404.6,392.3,1382.9,406.3Z"/><path class="cls-112" d="M1382.9,406.7,1010,646.3a106.4,106.4,0,0,1-115,0L522.1,406.7c-21.7-14-34.8-29.2-34.8-54.9V880.6a61.2,61.2,0,0,0,61.3,61.2h807.8a61.2,61.2,0,0,0,61.3-61.2V354.8C1417.7,380.6,1404.6,392.7,1382.9,406.7Z"/><path class="cls-113" d="M1382.9,407.1,1010,646.6a106.4,106.4,0,0,1-115,0L522.1,407.1c-21.7-13.9-34.8-29.3-34.8-55.1V880.9A61.2,61.2,0,0,0,548.6,942h807.8a61.2,61.2,0,0,0,61.3-61.1V355C1417.7,380.8,1404.6,393.2,1382.9,407.1Z"/><path class="cls-114" d="M1382.9,407.5,1010,646.9a106.4,106.4,0,0,1-115,0L522.1,407.5c-21.7-13.9-34.8-29.5-34.8-55.2V881.1a61.2,61.2,0,0,0,61.3,61.1h807.8a61.2,61.2,0,0,0,61.3-61.1V355.2C1417.7,380.9,1404.6,393.6,1382.9,407.5Z"/><path class="cls-115" d="M1382.9,407.9,1010,647.3a106.8,106.8,0,0,1-115,0L522.1,407.9c-21.7-13.9-34.8-29.6-34.8-55.3V881.3a61.1,61.1,0,0,0,61.3,61.1h807.8a61.1,61.1,0,0,0,61.3-61.1V355.4C1417.7,381.1,1404.6,394,1382.9,407.9Z"/><path class="cls-116" d="M1382.9,408.3,1010,647.6a106.8,106.8,0,0,1-115,0L522.1,408.3c-21.7-13.9-34.8-29.8-34.8-55.5V881.6a61.1,61.1,0,0,0,61.3,61h807.8a61.1,61.1,0,0,0,61.3-61v-526C1417.7,381.3,1404.6,394.4,1382.9,408.3Z"/><path class="cls-117" d="M1382.9,408.8,1010,647.9a106.4,106.4,0,0,1-115,0L522.1,408.8c-21.7-14-34.8-30-34.8-55.7V881.8a61.2,61.2,0,0,0,61.3,61.1h807.8a61.2,61.2,0,0,0,61.3-61.1v-526C1417.7,381.5,1404.6,394.8,1382.9,408.8Z"/><path class="cls-118" d="M1382.9,409.2,1010,648.2a106.4,106.4,0,0,1-115,0l-372.9-239c-21.7-14-34.8-30.2-34.8-55.9V882.1a61.1,61.1,0,0,0,61.3,61h807.8a61.1,61.1,0,0,0,61.3-61V356C1417.7,381.7,1404.6,395.2,1382.9,409.2Z"/><path class="cls-119" d="M1382.9,409.6,1010,648.6a106.8,106.8,0,0,1-115,0l-372.9-239c-21.7-13.9-34.8-30.3-34.8-56V882.3a61.1,61.1,0,0,0,61.3,61h807.8a61.1,61.1,0,0,0,61.3-61V356.2C1417.7,381.9,1404.6,395.7,1382.9,409.6Z"/><path class="cls-120" d="M1382.9,410,1010,648.9a106.8,106.8,0,0,1-115,0L522.1,410c-21.7-13.9-34.8-30.5-34.8-56.1V882.5a61.1,61.1,0,0,0,61.3,61h807.8a61.1,61.1,0,0,0,61.3-61V356.4C1417.7,382.1,1404.6,396.1,1382.9,410Z"/><path class="cls-121" d="M1382.9,410.4,1010,649.2a106.8,106.8,0,0,1-115,0L522.1,410.4c-21.7-13.9-34.8-30.6-34.8-56.3V882.8a61.1,61.1,0,0,0,61.3,60.9h807.8a61.1,61.1,0,0,0,61.3-60.9V356.6C1417.7,382.3,1404.6,396.5,1382.9,410.4Z"/><path class="cls-122" d="M1382.9,410.8,1010,649.5a106.8,106.8,0,0,1-115,0L522.1,410.8c-21.7-13.9-34.8-30.8-34.8-56.4V883a61,61,0,0,0,61.3,60.9h807.8a61,61,0,0,0,61.3-60.9V356.8C1417.7,382.5,1404.6,396.9,1382.9,410.8Z"/><path class="cls-123" d="M1382.9,411.2,1010,649.9a106.8,106.8,0,0,1-115,0L522.1,411.2c-21.7-13.9-34.8-30.9-34.8-56.6V883.3a61.1,61.1,0,0,0,61.3,60.9h807.8a61.1,61.1,0,0,0,61.3-60.9V357C1417.7,382.7,1404.6,397.3,1382.9,411.2Z"/><path class="cls-124" d="M1382.9,411.6,1010,650.2a106.8,106.8,0,0,1-115,0L522.1,411.6c-21.7-13.8-34.8-31.1-34.8-56.7V883.5a61.1,61.1,0,0,0,61.3,60.9h807.8a61.1,61.1,0,0,0,61.3-60.9V357.2C1417.7,382.8,1404.6,397.8,1382.9,411.6Z"/><path class="cls-125" d="M1382.9,412,1010,650.5a106.8,106.8,0,0,1-115,0L522.1,412c-21.7-13.8-34.8-31.2-34.8-56.8V883.7a61.1,61.1,0,0,0,61.3,60.9h807.8a61.1,61.1,0,0,0,61.3-60.9V357.4C1417.7,383,1404.6,398.2,1382.9,412Z"/><path class="cls-126" d="M1382.9,412.5,1010,650.8a106.8,106.8,0,0,1-115,0L522.1,412.5c-21.7-13.9-34.8-31.5-34.8-57.1V884c0,33.6,27.4,60.8,61.3,60.8h807.8c33.9,0,61.3-27.2,61.3-60.8V357.6C1417.7,383.2,1404.6,398.6,1382.9,412.5Z"/><path class="cls-127" d="M1382.9,412.9,1010,651.2a107.2,107.2,0,0,1-115,0L522.1,412.9c-21.7-13.9-34.8-31.6-34.8-57.2V884.2c0,33.6,27.4,60.8,61.3,60.8h807.8c33.9,0,61.3-27.2,61.3-60.8V357.8C1417.7,383.4,1404.6,399,1382.9,412.9Z"/><path class="cls-128" d="M1382.9,413.3,1010,651.5a107.2,107.2,0,0,1-115,0L522.1,413.3c-21.7-13.9-34.8-31.8-34.8-57.4V884.4c0,33.6,27.4,60.8,61.3,60.8h807.8c33.9,0,61.3-27.2,61.3-60.8V358C1417.7,383.6,1404.6,399.4,1382.9,413.3Z"/><path class="cls-129" d="M1382.9,413.7,1010,651.8a106.8,106.8,0,0,1-115,0L522.1,413.7c-21.7-13.9-34.8-31.9-34.8-57.5V884.7c0,33.6,27.4,60.8,61.3,60.8h807.8c33.9,0,61.3-27.2,61.3-60.8V358.2C1417.7,383.8,1404.6,399.8,1382.9,413.7Z"/><path class="cls-130" d="M1382.9,414.1,1010,652.1a106.8,106.8,0,0,1-115,0l-372.9-238c-21.7-13.8-34.8-32.1-34.8-57.6V884.9c0,33.6,27.4,60.8,61.3,60.8h807.8c33.9,0,61.3-27.2,61.3-60.8V358.4C1417.7,384,1404.6,400.3,1382.9,414.1Z"/><path class="cls-131" d="M1382.9,414.5,1010,652.5a107.2,107.2,0,0,1-115,0l-372.9-238c-21.7-13.8-34.8-32.2-34.8-57.8V885.2c0,33.5,27.4,60.7,61.3,60.7h807.8c33.9,0,61.3-27.2,61.3-60.7V358.6C1417.7,384.2,1404.6,400.7,1382.9,414.5Z"/><path class="cls-132" d="M1382.9,414.9,1010,652.8a107.2,107.2,0,0,1-115,0L522.1,414.9c-21.7-13.8-34.8-32.4-34.8-57.9V885.4c0,33.5,27.4,60.7,61.3,60.7h807.8c33.9,0,61.3-27.2,61.3-60.7V358.8C1417.7,384.4,1404.6,401.1,1382.9,414.9Z"/><path class="cls-133" d="M1382.9,415.3,1010,653.1a107.2,107.2,0,0,1-115,0L522.1,415.3c-21.7-13.8-34.8-32.5-34.8-58.1V885.6c0,33.6,27.4,60.7,61.3,60.7h807.8c33.9,0,61.3-27.1,61.3-60.7V359C1417.7,384.6,1404.6,401.5,1382.9,415.3Z"/><path class="cls-134" d="M1382.9,415.8,1010,653.4a107.2,107.2,0,0,1-115,0L522.1,415.8c-21.7-13.9-34.8-32.8-34.8-58.3V885.9c0,33.5,27.4,60.7,61.3,60.7h807.8c33.9,0,61.3-27.2,61.3-60.7V359.2C1417.7,384.7,1404.6,401.9,1382.9,415.8Z"/><path class="cls-135" d="M1382.9,416.2,1010,653.8a107.2,107.2,0,0,1-115,0L522.1,416.2c-21.7-13.9-34.8-32.9-34.8-58.4V886.1c0,33.5,27.4,60.7,61.3,60.7h807.8c33.9,0,61.3-27.2,61.3-60.7V359.4C1417.7,384.9,1404.6,402.3,1382.9,416.2Z"/><path class="cls-136" d="M1382.9,416.6,1010,654.1a107.2,107.2,0,0,1-115,0L522.1,416.6c-21.7-13.8-34.8-33.1-34.8-58.6V886.4c0,33.4,27.4,60.6,61.3,60.6h807.8c33.9,0,61.3-27.2,61.3-60.6V359.6C1417.7,385.1,1404.6,402.8,1382.9,416.6Z"/><path class="cls-137" d="M1382.9,417,1010,654.4a107.2,107.2,0,0,1-115,0L522.1,417c-21.7-13.8-34.8-33.2-34.8-58.7V886.6c0,33.5,27.4,60.6,61.3,60.6h807.8c33.9,0,61.3-27.1,61.3-60.6V359.8C1417.7,385.3,1404.6,403.2,1382.9,417Z"/><path class="cls-138" d="M1382.9,417.4,1010,654.7a107.2,107.2,0,0,1-115,0L522.1,417.4c-21.7-13.8-34.8-33.4-34.8-58.9V886.8c0,33.5,27.4,60.6,61.3,60.6h807.8c33.9,0,61.3-27.1,61.3-60.6V360C1417.7,385.5,1404.6,403.6,1382.9,417.4Z"/><path class="cls-139" d="M1382.9,417.8,1010,655.1a107.6,107.6,0,0,1-115,0L522.1,417.8c-21.7-13.8-34.8-33.5-34.8-59V887.1c0,33.4,27.4,60.5,61.3,60.5h807.8c33.9,0,61.3-27.1,61.3-60.5V360.2C1417.7,385.7,1404.6,404,1382.9,417.8Z"/><path class="cls-140" d="M1382.9,418.2,1010,655.4a107.6,107.6,0,0,1-115,0L522.1,418.2c-21.7-13.8-34.8-33.7-34.8-59.1V887.3c0,33.5,27.4,60.6,61.3,60.6h807.8c33.9,0,61.3-27.1,61.3-60.6V360.4C1417.7,385.9,1404.6,404.4,1382.9,418.2Z"/><path class="cls-141" d="M1382.9,418.6,1010,655.7a107.2,107.2,0,0,1-115,0L522.1,418.6c-21.7-13.8-34.8-33.8-34.8-59.3V887.6c0,33.4,27.4,60.5,61.3,60.5h807.8c33.9,0,61.3-27.1,61.3-60.5v-527C1417.7,386.1,1404.6,404.8,1382.9,418.6Z"/><path class="cls-142" d="M1382.9,419.1,1010,656a107.2,107.2,0,0,1-115,0L522.1,419.1c-21.7-13.8-34.8-34.1-34.8-59.5V887.8c0,33.4,27.4,60.5,61.3,60.5h807.8c33.9,0,61.3-27.1,61.3-60.5v-527C1417.7,386.3,1404.6,405.3,1382.9,419.1Z"/><path class="cls-143" d="M1382.9,419.5,1010,656.4a107.6,107.6,0,0,1-115,0L522.1,419.5c-21.7-13.8-34.8-34.2-34.8-59.7V888c0,33.4,27.4,60.5,61.3,60.5h807.8c33.9,0,61.3-27.1,61.3-60.5V361C1417.7,386.5,1404.6,405.7,1382.9,419.5Z"/><path class="cls-144" d="M1382.9,419.9,1010,656.7a107.6,107.6,0,0,1-115,0L522.1,419.9c-21.7-13.8-34.8-34.4-34.8-59.8V888.3c0,33.4,27.4,60.4,61.3,60.4h807.8c33.9,0,61.3-27,61.3-60.4V361.2C1417.7,386.6,1404.6,406.1,1382.9,419.9Z"/><path class="cls-145" d="M1382.9,420.3,1010,657a107.6,107.6,0,0,1-115,0L522.1,420.3c-21.7-13.8-34.8-34.5-34.8-59.9V888.5c0,33.4,27.4,60.4,61.3,60.4h807.8c33.9,0,61.3-27,61.3-60.4V361.4C1417.7,386.8,1404.6,406.5,1382.9,420.3Z"/><path class="cls-146" d="M1382.9,420.7,1010,657.3a107.2,107.2,0,0,1-115,0L522.1,420.7c-21.7-13.8-34.8-34.7-34.8-60.1V888.8c0,33.3,27.4,60.4,61.3,60.4h807.8c33.9,0,61.3-27.1,61.3-60.4V361.6C1417.7,387,1404.6,406.9,1382.9,420.7Z"/><path class="cls-147" d="M1382.9,421.1,1010,657.7a107.6,107.6,0,0,1-115,0L522.1,421.1c-21.7-13.7-34.8-34.8-34.8-60.2V889c0,33.4,27.4,60.4,61.3,60.4h807.8c33.9,0,61.3-27,61.3-60.4V361.8C1417.7,387.2,1404.6,407.4,1382.9,421.1Z"/><path class="cls-148" d="M1382.9,421.5,1010,658a107.6,107.6,0,0,1-115,0L522.1,421.5c-21.7-13.7-34.8-34.9-34.8-60.4V889.2c0,33.4,27.4,60.4,61.3,60.4h807.8c33.9,0,61.3-27,61.3-60.4V362C1417.7,387.4,1404.6,407.8,1382.9,421.5Z"/><path class="cls-149" d="M1382.9,421.9,1010,658.3a107.6,107.6,0,0,1-115,0L522.1,421.9c-21.7-13.7-34.8-35.1-34.8-60.5V889.5c0,33.3,27.4,60.3,61.3,60.3h807.8c33.9,0,61.3-27,61.3-60.3V362.2C1417.7,387.6,1404.6,408.2,1382.9,421.9Z"/><path class="cls-150" d="M1382.9,422.4,1010,658.6a107.6,107.6,0,0,1-115,0L522.1,422.4c-21.7-13.8-34.8-35.3-34.8-60.7v528c0,33.3,27.4,60.3,61.3,60.3h807.8c33.9,0,61.3-27,61.3-60.3V362.4C1417.7,387.8,1404.6,408.6,1382.9,422.4Z"/><path class="cls-151" d="M1382.9,422.8,1010,659a108,108,0,0,1-115,0L522.1,422.8c-21.7-13.8-34.8-35.5-34.8-60.9V890c0,33.3,27.4,60.3,61.3,60.3h807.8c33.9,0,61.3-27,61.3-60.3V362.6C1417.7,388,1404.6,409,1382.9,422.8Z"/><path class="cls-152" d="M1382.9,423.2,1010,659.3a107.6,107.6,0,0,1-115,0L522.1,423.2c-21.7-13.8-34.8-35.6-34.8-61v528c0,33.3,27.4,60.3,61.3,60.3h807.8c33.9,0,61.3-27,61.3-60.3V362.8C1417.7,388.2,1404.6,409.4,1382.9,423.2Z"/><path class="cls-153" d="M1382.9,423.6,1010,659.6a107.6,107.6,0,0,1-115,0l-372.9-236c-21.7-13.7-34.8-35.8-34.8-61.2v528c0,33.3,27.4,60.3,61.3,60.3h807.8c33.9,0,61.3-27,61.3-60.3V363C1417.7,388.4,1404.6,409.9,1382.9,423.6Z"/><path class="cls-154" d="M1382.9,424,1010,659.9a107.6,107.6,0,0,1-115,0L522.1,424c-21.7-13.7-34.8-35.9-34.8-61.3v528c0,33.2,27.4,60.2,61.3,60.2h807.8c33.9,0,61.3-27,61.3-60.2V363.2C1417.7,388.5,1404.6,410.3,1382.9,424Z"/><path class="cls-155" d="M1382.9,424.4,1010,660.3a108,108,0,0,1-115,0L522.1,424.4c-21.7-13.7-34.8-36.1-34.8-61.4V890.9c0,33.3,27.4,60.2,61.3,60.2h807.8c33.9,0,61.3-26.9,61.3-60.2V363.4C1417.7,388.7,1404.6,410.7,1382.9,424.4Z"/><path class="cls-156" d="M1382.9,424.8,1010,660.6a108,108,0,0,1-115,0L522.1,424.8c-21.7-13.7-34.8-36.2-34.8-61.6v528c0,33.2,27.4,60.1,61.3,60.1h807.8c33.9,0,61.3-26.9,61.3-60.1V363.6C1417.7,388.9,1404.6,411.1,1382.9,424.8Z"/><path class="cls-157" d="M1382.9,425.2,1010,660.9a108,108,0,0,1-115,0L522.1,425.2c-21.7-13.7-34.8-36.4-34.8-61.7V891.4c0,33.2,27.4,60.2,61.3,60.2h807.8c33.9,0,61.3-27,61.3-60.2V363.8C1417.7,389.1,1404.6,411.5,1382.9,425.2Z"/><path class="cls-158" d="M1382.9,425.7,1010,661.2a107.6,107.6,0,0,1-115,0L522.1,425.7c-21.7-13.8-34.8-36.6-34.8-62V891.6c0,33.3,27.4,60.2,61.3,60.2h807.8c33.9,0,61.3-26.9,61.3-60.2V364C1417.7,389.3,1404.6,411.9,1382.9,425.7Z"/><path class="cls-159" d="M1382.9,426.1,1010,661.6a108,108,0,0,1-115,0L522.1,426.1c-21.7-13.7-34.8-36.8-34.8-62.1V891.9c0,33.2,27.4,60.1,61.3,60.1h807.8c33.9,0,61.3-26.9,61.3-60.1V364.2C1417.7,389.5,1404.6,412.4,1382.9,426.1Z"/><path class="cls-160" d="M1382.9,426.5,1010,661.9a108,108,0,0,1-115,0L522.1,426.5c-21.7-13.7-34.8-36.9-34.8-62.2V892.1c0,33.2,27.4,60.1,61.3,60.1h807.8c33.9,0,61.3-26.9,61.3-60.1V364.4C1417.7,389.7,1404.6,412.8,1382.9,426.5Z"/><path class="cls-161" d="M1382.9,426.9,1010,662.2a108,108,0,0,1-115,0L522.1,426.9a73.8,73.8,0,0,1-34.8-62.4V892.4c0,33.1,27.4,60,61.3,60h807.8c33.9,0,61.3-26.9,61.3-60V364.6C1417.7,389.9,1404.6,413.2,1382.9,426.9Z"/><path class="cls-162" d="M1382.9,427.3,1010,662.5a108,108,0,0,1-115,0L522.1,427.3a73.9,73.9,0,0,1-34.8-62.5V892.6c0,33.2,27.4,60,61.3,60h807.8c33.9,0,61.3-26.8,61.3-60V364.8A73.9,73.9,0,0,1,1382.9,427.3Z"/></g><path class="cls-163" d="M1382.9,416,1010,656.3a106,106,0,0,1-115,0L522.1,416a75.9,75.9,0,0,1-34.8-63.8V891.3a61.2,61.2,0,0,0,61.3,61.3h807.8a61.2,61.2,0,0,0,61.3-61.3V352.2A75.9,75.9,0,0,1,1382.9,416Z"/><path class="cls-164" d="M1417.7,891.3V872.5a75.9,75.9,0,0,0-34.8-63.8L999.5,561.6a86.9,86.9,0,0,0-94,0L522.1,808.7a75.9,75.9,0,0,0-34.8,63.8v18.8a61.2,61.2,0,0,0,61.3,61.3h807.8A61.2,61.2,0,0,0,1417.7,891.3Z"/><path class="cls-165" d="M1382.9,808.6l-383.4-247a86.9,86.9,0,0,0-94,0l-383.4,247a76.1,76.1,0,0,0-34.8,63.9v7.9a75.9,75.9,0,0,1,34.8-63.8L905.5,569.5a86.9,86.9,0,0,1,94,0l383.4,247.1a75.9,75.9,0,0,1,34.8,63.8v-7.9A76.1,76.1,0,0,0,1382.9,808.6Z"/></g></g></svg>