<svg id="Layer_1" data-name="Layer 1" xmlns="http://www.w3.org/2000/svg" xmlns:xlink="http://www.w3.org/1999/xlink" viewBox="0 0 484.86 190.48"><defs><style>.cls-1{fill:#fff;}.cls-2{fill:url(#linear-gradient);}.cls-3{fill:url(#linear-gradient-2);}.cls-4{fill:#2263ae;}.cls-5{fill:url(#linear-gradient-3);}.cls-6{fill:#1d1c1c;}.cls-7{fill:#b738d5;}.cls-8{fill:url(#linear-gradient-9);}</style><linearGradient id="linear-gradient" x1="119.84" y1="106.53" x2="161.61" y2="106.53" gradientUnits="userSpaceOnUse"><stop offset="0" stop-color="#ba36d4"/><stop offset="0.54" stop-color="#7288f6"/><stop offset="0.69" stop-color="#b936d4"/></linearGradient><linearGradient id="linear-gradient-2" x1="155.04" y1="90.77" x2="189.48" y2="90.77" xlink:href="#linear-gradient"/><linearGradient id="linear-gradient-3" x1="119.84" y1="90.62" x2="462.02" y2="90.62" gradientUnits="userSpaceOnUse"><stop offset="0" stop-color="#ba36d4"/><stop offset="0.52" stop-color="#7288f6"/><stop offset="1" stop-color="#b936d4"/></linearGradient><linearGradient id="linear-gradient-9" x1="70.78" y1="1379.94" x2="456.28" y2="1379.94" gradientTransform="matrix(0.97, 0.01, -0.01, 1, 29.83, -1228.24)" gradientUnits="userSpaceOnUse"><stop offset="0" stop-color="#ba36d4"/><stop offset="0.52" stop-color="#7286f5"/><stop offset="1" stop-color="#b936d4"/></linearGradient></defs><path class="cls-1" d="M468.34,124.11a95.8,95.8,0,0,0,6.79-15.85c2-6.31,2.8-10,2.8-13.25A15,15,0,0,0,468,80.89a21.13,21.13,0,0,0-1.77-6.13,19.77,19.77,0,0,0-6.11-7.61c-.2-.15-.4-.3-.61-.44a23.07,23.07,0,0,0-13.26-3.94q1.54-4.68,3.18-9.28a15,15,0,0,0-2.22-14.14,19.44,19.44,0,0,0-9.94-6.73,27.34,27.34,0,0,0-7.88-1.12,38.21,38.21,0,0,0-14.7,3.06,15,15,0,0,0-8.5,9.16c-1.1,3.35-2.34,7.27-3.7,11.71-.86,2.86-1.72,5.86-2.58,8.94A31.77,31.77,0,0,0,390.6,63a29.44,29.44,0,0,0-15.27,4c-.75.44-1.47.92-2.18,1.42-.48-.35-1-.68-1.48-1-.17-.11-.35-.21-.53-.31a32,32,0,0,0-7.19-3,37.39,37.39,0,0,0,3-7.88,32.39,32.39,0,0,0,1.14-8,15,15,0,0,0-7.78-13.15C352.76,31,343.37,29,331.59,29c-9.68,0-17.85,1.17-25,3.56A54.22,54.22,0,0,0,288.2,42.62a42.74,42.74,0,0,0-11.27,14.76c-.41.92-.77,1.84-1.11,2.76a62.08,62.08,0,0,0-7.73-.43h-12.4a14.89,14.89,0,0,0-2,.15,14.89,14.89,0,0,0-2-.15h-10a15.2,15.2,0,0,0-4.13.57,15.24,15.24,0,0,0-4.12-.57H221.66a15,15,0,0,0-5.46,1,15,15,0,0,0-5.47-1h-10l-.37-.37c.72-2.24,1.37-4.21,2-5.9a15,15,0,0,0-2.58-14.52,19.87,19.87,0,0,0-9.56-6.28,26.79,26.79,0,0,0-7.92-1.14,38.05,38.05,0,0,0-14.77,3.08,15,15,0,0,0-8.4,9c-1,2.91-2.26,7.12-3.89,12.75a15,15,0,0,0-7.68,7.12,34.49,34.49,0,0,0-4.34-.45,109,109,0,0,0,2.4-19.76v-1.1a61.82,61.82,0,0,0-1.34-13,32.15,32.15,0,0,0-7.49-15.33c-3.38-3.75-9.5-8.22-19.48-8.22-4.86,0-11.75,1.59-18.43,8.66a32.35,32.35,0,0,0-3.9-2.62A26.78,26.78,0,0,0,81.42,8.18a64.09,64.09,0,0,0-28,6.86A94.44,94.44,0,0,0,29.28,32a92.51,92.51,0,0,0-18,23.79A63,63,0,0,0,3.85,85.1a35.28,35.28,0,0,0,2.6,13,30.18,30.18,0,0,0,9.49,12.7,28.32,28.32,0,0,0,17.81,5.83,33.22,33.22,0,0,0,7.93-.86c-1,11-1.42,19.26-1.42,25.25A40.6,40.6,0,0,0,42,152.35,28.35,28.35,0,0,0,50.66,166c4.86,4.27,11.2,6.44,18.84,6.44A32.74,32.74,0,0,0,79,171a14.83,14.83,0,0,0,5,1.72c6.29,1,91.75,13.65,184.51,13.65,73.83,0,152.29-8,199.11-36.44a15,15,0,0,0,.54-25.52l.09-.17A1,1,0,0,1,468.34,124.11Z"/><path class="cls-2" d="M154.75,92.21a16.16,16.16,0,0,1-2,7.63,17.67,17.67,0,0,1-4.54,5.55,11.86,11.86,0,0,1-7.76,2.87,6.3,6.3,0,0,1-4.71-2.15,53.55,53.55,0,0,0-1.25,8.65,15.29,15.29,0,0,0,.83,5.61q1.44,3,4,3a12.09,12.09,0,0,0,7.16-2.38,26.78,26.78,0,0,0,6-5.73,52,52,0,0,0,4.35-6.69,68.52,68.52,0,0,0,4.84-10.92q0,3.53-3.46,12a64.22,64.22,0,0,1-4.36,8.23,40.85,40.85,0,0,1-8.29,9.79,18.07,18.07,0,0,1-11.34,4.65h-.3A13.77,13.77,0,0,1,123.72,128a14.14,14.14,0,0,1-2.84-5,22.23,22.23,0,0,1-1-7.19,61.92,61.92,0,0,1,2.09-13.49,59.15,59.15,0,0,1,4.77-12.47,19.55,19.55,0,0,1,4.3-5.49,14.1,14.1,0,0,1,10.08-3.7,16.94,16.94,0,0,1,8.41,2.21,11.35,11.35,0,0,1,3.79,3.76A10.17,10.17,0,0,1,154.75,92.21Zm-8.36-3.58v-.24c0-1.63-.36-2.45-1.07-2.45A3.28,3.28,0,0,0,143,87a12.61,12.61,0,0,0-2.12,3A42.92,42.92,0,0,0,138,97.28c-.68,2.19-1.28,4.37-1.79,6.56a3.68,3.68,0,0,0,2.27,1q2.08,0,3.87-2.63a18.91,18.91,0,0,0,2.75-5.79A33.27,33.27,0,0,0,146.39,88.63Z"/><path class="cls-3" d="M165.67,73.77l.71-2.39q4.06-14.44,6-20.29a23,23,0,0,1,9-1.91,11.89,11.89,0,0,1,3.52.48,4.93,4.93,0,0,1,2.39,1.49q-2.69,7.64-6.81,21.78l-.41,1.43a62.23,62.23,0,0,0,9.43-1.13q-.78,2.56-5,4a39,39,0,0,1-5.67,1.55q-3.16,11.16-5.78,22-3.34,13.73-3.35,18.62a7.17,7.17,0,0,0,.24,1.85,1.12,1.12,0,0,0,1.2.89q2,0,4.56-3a54.18,54.18,0,0,0,5-7.16q2.51-4.18,4.42-8.12c1.27-2.62,2.19-4.67,2.74-6.15a22.07,22.07,0,0,1-1.25,5.26,80.91,80.91,0,0,1-3.49,8.86,78.11,78.11,0,0,1-5.22,9.61,36.93,36.93,0,0,1-6.51,7.81,10.81,10.81,0,0,1-7.22,3.13,8.28,8.28,0,0,1-5.72-1.76,8.86,8.86,0,0,1-2.69-4.2,16.18,16.18,0,0,1-.72-4.54q0-5.91,3.64-21,2.46-10.26,5.14-20.23c-.92.12-1.7.2-2.33.24a4.29,4.29,0,0,1-2-3.58c0-.48-.06-.94-.06-1.37a7.81,7.81,0,0,1,.54-3Q162.92,73.41,165.67,73.77Z"/><path class="cls-4" d="M352.17,51a18.6,18.6,0,0,1-.69,4.33,21,21,0,0,1-1.91,5,5.73,5.73,0,0,1-2.83,2.87,47.16,47.16,0,0,0-7.52-5.38A30.72,30.72,0,0,0,328.78,54a46.75,46.75,0,0,0-8.47-.78c-1,0-2.05,0-3.05.12a29.4,29.4,0,0,0-10.56,2.45,18.49,18.49,0,0,0-7.82,6.44q-3,4.29-3,11.28a8.63,8.63,0,0,0,2.39,6.5,8,8,0,0,0,5.78,2.33,9.82,9.82,0,0,1-.92,4.68,5.53,5.53,0,0,1-2.36,2.42,6.43,6.43,0,0,1-2.92.72A8.86,8.86,0,0,1,290.29,86a16.89,16.89,0,0,1-2.86-9.94,24.19,24.19,0,0,1,2.29-9.9,27.82,27.82,0,0,1,7.4-9.55,39.4,39.4,0,0,1,13.37-7.19q8.26-2.78,20.2-2.77Q344.36,46.68,352.17,51ZM311.35,94.41Q317.2,69.71,317.2,61q2.69-3.28,9.73-3.58a9.52,9.52,0,0,1,5.73,1.67q0,4.53-5.85,30.85T321,131a13,13,0,0,1-7.58,3.4,13.65,13.65,0,0,1-2.15.18,9.58,9.58,0,0,1-5.72-1.67Q305.51,119.11,311.35,94.41Z"/><path class="cls-4" d="M368.16,92.21a16.16,16.16,0,0,1-2,7.63,17.5,17.5,0,0,1-4.53,5.55,11.86,11.86,0,0,1-7.76,2.87,6.3,6.3,0,0,1-4.71-2.15,52.77,52.77,0,0,0-1.26,8.65,15.05,15.05,0,0,0,.84,5.61c1,2,2.29,3,4,3a12.11,12.11,0,0,0,7.16-2.38,27,27,0,0,0,6-5.73,52,52,0,0,0,4.35-6.69A67.53,67.53,0,0,0,375,97.69q0,3.53-3.46,12a62.89,62.89,0,0,1-4.35,8.23,40.66,40.66,0,0,1-8.3,9.79,18.06,18.06,0,0,1-11.33,4.65h-.3A13.81,13.81,0,0,1,337.13,128a14.13,14.13,0,0,1-2.83-5,21.94,21.94,0,0,1-1.05-7.19,62.55,62.55,0,0,1,2.09-13.49,59.72,59.72,0,0,1,4.78-12.47,19.52,19.52,0,0,1,4.29-5.49,14.14,14.14,0,0,1,10.09-3.7,16.94,16.94,0,0,1,8.41,2.21,11.54,11.54,0,0,1,3.79,3.76A10.25,10.25,0,0,1,368.16,92.21Zm-8.35-3.58v-.24c0-1.63-.36-2.45-1.08-2.45a3.26,3.26,0,0,0-2.29,1.1,12.33,12.33,0,0,0-2.12,3,42.89,42.89,0,0,0-2.93,7.22c-.67,2.19-1.27,4.37-1.79,6.56a3.72,3.72,0,0,0,2.27,1c1.39,0,2.69-.88,3.88-2.63a19.15,19.15,0,0,0,2.75-5.79A33.27,33.27,0,0,0,359.81,88.63Z"/><path class="cls-4" d="M403.37,92.21A18.68,18.68,0,0,1,401.88,99c-.68.6-2,1-3.88,1.07a14.25,14.25,0,0,1-5.31-.89,46.19,46.19,0,0,0,1.79-6,21,21,0,0,0,.53-4.36v-.65c0-1.35-.39-2.07-1.07-2.15q-2.62.24-4.83,5a62.64,62.64,0,0,0-4.18,12.47q-1.85,8.53-1.85,11.4a13.69,13.69,0,0,0,1,5.91q1.38,2.74,3.82,2.74a11,11,0,0,0,4.9-1.16,19.49,19.49,0,0,0,4.59-3.19,42.62,42.62,0,0,0,8.18-10.5,48.19,48.19,0,0,0,4.65-10.87,22.44,22.44,0,0,1-1.79,7.88A78.52,78.52,0,0,1,403.31,116a45.1,45.1,0,0,1-8.83,11.28,18.43,18.43,0,0,1-12.06,5.07A13.58,13.58,0,0,1,372.34,128a14.89,14.89,0,0,1-2.92-5.25,22.28,22.28,0,0,1-1-6.92,59.49,59.49,0,0,1,1.91-12.6,60.15,60.15,0,0,1,4.95-13.36,17.84,17.84,0,0,1,6.75-7.28,14.7,14.7,0,0,1,7.63-1.91A15.9,15.9,0,0,1,399,83.55,10,10,0,0,1,403.37,92.21Z"/><path class="cls-4" d="M437.32,92.62q-2.44,1.86-5.25,7.1a128.1,128.1,0,0,0-5.73,12.48,167.14,167.14,0,0,0-6.2,18.37,14,14,0,0,1-3.91,1.41,19.2,19.2,0,0,1-3.43.38,9.77,9.77,0,0,1-4.33-.83,7.37,7.37,0,0,1-2.72-2.21,9.27,9.27,0,0,1-1.67-3.7,19.25,19.25,0,0,1-.41-3.76A83.84,83.84,0,0,1,405,108.44q2.32-14.26,6.56-30.26,2.2-8.42,4.42-15.75,2-6.45,3.58-11.34a23.3,23.3,0,0,1,8.95-1.91,12.2,12.2,0,0,1,3.55.48,4.57,4.57,0,0,1,2.36,1.49q-2.56,7.22-4.9,14.5-2.75,8.53-5.13,17.13-1.78,6.5-3.34,13.12c-.68,2.87-1.27,5.59-1.79,8.18q-2.14,10.2-2.15,14.74a7,7,0,0,0,.36,2.18c.24.73.48,1.1.72,1.1q1.84-6.5,4.23-12.53a107.57,107.57,0,0,1,5.25-11.64,76.44,76.44,0,0,1,5.73-9.19,25.72,25.72,0,0,1,6.45-6.5,10.26,10.26,0,0,1,5.9-1.79,7.84,7.84,0,0,1,4.48,1.37,5,5,0,0,1,1.52,1.94,7,7,0,0,1,.57,3c0,1.15-.62,3.68-1.85,7.57q-.24.66-.42,1.32-2,6.49-3.64,14.26a48.18,48.18,0,0,0-1,9.49,7.17,7.17,0,0,0,.24,1.85,1.1,1.1,0,0,0,1.19.89c1.07,0,2.38-.88,3.91-2.65a45.65,45.65,0,0,0,4.68-6.72,64.49,64.49,0,0,0,6.62-15c0,1.44-.69,4.33-2.08,8.69a81.12,81.12,0,0,1-5.73,13.33A46.57,46.57,0,0,1,450,126a21.58,21.58,0,0,1-4.83,4.59,9.75,9.75,0,0,1-9.13,1.05,8.72,8.72,0,0,1-2.63-1.76,9.41,9.41,0,0,1-2.12-3.94,16.93,16.93,0,0,1-.56-4.12,59.37,59.37,0,0,1,1.43-12.47A99.25,99.25,0,0,1,437.32,92.62Z"/><path class="cls-5" d="M154.75,92.21a16.16,16.16,0,0,1-2,7.63,17.67,17.67,0,0,1-4.54,5.55,11.86,11.86,0,0,1-7.76,2.87,6.3,6.3,0,0,1-4.71-2.15,53.55,53.55,0,0,0-1.25,8.65,15.29,15.29,0,0,0,.83,5.61q1.44,3,4,3a12.09,12.09,0,0,0,7.16-2.38,26.78,26.78,0,0,0,6-5.73,52,52,0,0,0,4.35-6.69,68.52,68.52,0,0,0,4.84-10.92q0,3.53-3.46,12a64.22,64.22,0,0,1-4.36,8.23,40.85,40.85,0,0,1-8.29,9.79,18.07,18.07,0,0,1-11.34,4.65h-.3A13.77,13.77,0,0,1,123.72,128a14.14,14.14,0,0,1-2.84-5,22.23,22.23,0,0,1-1-7.19,61.92,61.92,0,0,1,2.09-13.49,59.15,59.15,0,0,1,4.77-12.47,19.55,19.55,0,0,1,4.3-5.49,14.1,14.1,0,0,1,10.08-3.7,16.94,16.94,0,0,1,8.41,2.21,11.35,11.35,0,0,1,3.79,3.76A10.17,10.17,0,0,1,154.75,92.21Zm-8.36-3.58v-.24c0-1.63-.36-2.45-1.07-2.45A3.28,3.28,0,0,0,143,87a12.61,12.61,0,0,0-2.12,3A42.92,42.92,0,0,0,138,97.28c-.68,2.19-1.28,4.37-1.79,6.56a3.68,3.68,0,0,0,2.27,1q2.08,0,3.87-2.63a18.91,18.91,0,0,0,2.75-5.79A33.27,33.27,0,0,0,146.39,88.63Z"/><path class="cls-5" d="M165.67,73.77l.71-2.39q4.06-14.44,6-20.29a23,23,0,0,1,9-1.91,11.89,11.89,0,0,1,3.52.48,4.93,4.93,0,0,1,2.39,1.49q-2.69,7.64-6.81,21.78l-.41,1.43a62.23,62.23,0,0,0,9.43-1.13q-.78,2.56-5,4a39,39,0,0,1-5.67,1.55q-3.16,11.16-5.78,22-3.34,13.73-3.35,18.62a7.17,7.17,0,0,0,.24,1.85,1.12,1.12,0,0,0,1.2.89q2,0,4.56-3a54.18,54.18,0,0,0,5-7.16q2.51-4.18,4.42-8.12c1.27-2.62,2.19-4.67,2.74-6.15a22.07,22.07,0,0,1-1.25,5.26,80.91,80.91,0,0,1-3.49,8.86,78.11,78.11,0,0,1-5.22,9.61,36.93,36.93,0,0,1-6.51,7.81,10.81,10.81,0,0,1-7.22,3.13,8.28,8.28,0,0,1-5.72-1.76,8.86,8.86,0,0,1-2.69-4.2,16.18,16.18,0,0,1-.72-4.54q0-5.91,3.64-21,2.46-10.26,5.14-20.23c-.92.12-1.7.2-2.33.24a4.29,4.29,0,0,1-2-3.58c0-.48-.06-.94-.06-1.37a7.81,7.81,0,0,1,.54-3Q162.92,73.41,165.67,73.77Z"/><path class="cls-5" d="M352.17,51a18.6,18.6,0,0,1-.69,4.33,21,21,0,0,1-1.91,5,5.73,5.73,0,0,1-2.83,2.87,47.16,47.16,0,0,0-7.52-5.38A30.72,30.72,0,0,0,328.78,54a46.75,46.75,0,0,0-8.47-.78c-1,0-2.05,0-3.05.12a29.4,29.4,0,0,0-10.56,2.45,18.49,18.49,0,0,0-7.82,6.44q-3,4.29-3,11.28a8.63,8.63,0,0,0,2.39,6.5,8,8,0,0,0,5.78,2.33,9.82,9.82,0,0,1-.92,4.68,5.53,5.53,0,0,1-2.36,2.42,6.43,6.43,0,0,1-2.92.72A8.86,8.86,0,0,1,290.29,86a16.89,16.89,0,0,1-2.86-9.94,24.19,24.19,0,0,1,2.29-9.9,27.82,27.82,0,0,1,7.4-9.55,39.4,39.4,0,0,1,13.37-7.19q8.26-2.78,20.2-2.77Q344.36,46.68,352.17,51ZM311.35,94.41Q317.2,69.71,317.2,61q2.69-3.28,9.73-3.58a9.52,9.52,0,0,1,5.73,1.67q0,4.53-5.85,30.85T321,131a13,13,0,0,1-7.58,3.4,13.65,13.65,0,0,1-2.15.18,9.58,9.58,0,0,1-5.72-1.67Q305.51,119.11,311.35,94.41Z"/><path class="cls-5" d="M368.16,92.21a16.16,16.16,0,0,1-2,7.63,17.5,17.5,0,0,1-4.53,5.55,11.86,11.86,0,0,1-7.76,2.87,6.3,6.3,0,0,1-4.71-2.15,52.77,52.77,0,0,0-1.26,8.65,15.05,15.05,0,0,0,.84,5.61c1,2,2.29,3,4,3a12.11,12.11,0,0,0,7.16-2.38,27,27,0,0,0,6-5.73,52,52,0,0,0,4.35-6.69A67.53,67.53,0,0,0,375,97.69q0,3.53-3.46,12a62.89,62.89,0,0,1-4.35,8.23,40.66,40.66,0,0,1-8.3,9.79,18.06,18.06,0,0,1-11.33,4.65h-.3A13.81,13.81,0,0,1,337.13,128a14.13,14.13,0,0,1-2.83-5,21.94,21.94,0,0,1-1.05-7.19,62.55,62.55,0,0,1,2.09-13.49,59.72,59.72,0,0,1,4.78-12.47,19.52,19.52,0,0,1,4.29-5.49,14.14,14.14,0,0,1,10.09-3.7,16.94,16.94,0,0,1,8.41,2.21,11.54,11.54,0,0,1,3.79,3.76A10.25,10.25,0,0,1,368.16,92.21Zm-8.35-3.58v-.24c0-1.63-.36-2.45-1.08-2.45a3.26,3.26,0,0,0-2.29,1.1,12.33,12.33,0,0,0-2.12,3,42.89,42.89,0,0,0-2.93,7.22c-.67,2.19-1.27,4.37-1.79,6.56a3.72,3.72,0,0,0,2.27,1c1.39,0,2.69-.88,3.88-2.63a19.15,19.15,0,0,0,2.75-5.79A33.27,33.27,0,0,0,359.81,88.63Z"/><path class="cls-5" d="M403.37,92.21A18.68,18.68,0,0,1,401.88,99c-.68.6-2,1-3.88,1.07a14.25,14.25,0,0,1-5.31-.89,46.19,46.19,0,0,0,1.79-6,21,21,0,0,0,.53-4.36v-.65c0-1.35-.39-2.07-1.07-2.15q-2.62.24-4.83,5a62.64,62.64,0,0,0-4.18,12.47q-1.85,8.53-1.85,11.4a13.69,13.69,0,0,0,1,5.91q1.38,2.74,3.82,2.74a11,11,0,0,0,4.9-1.16,19.49,19.49,0,0,0,4.59-3.19,42.62,42.62,0,0,0,8.18-10.5,48.19,48.19,0,0,0,4.65-10.87,22.44,22.44,0,0,1-1.79,7.88A78.52,78.52,0,0,1,403.31,116a45.1,45.1,0,0,1-8.83,11.28,18.43,18.43,0,0,1-12.06,5.07A13.58,13.58,0,0,1,372.34,128a14.89,14.89,0,0,1-2.92-5.25,22.28,22.28,0,0,1-1-6.92,59.49,59.49,0,0,1,1.91-12.6,60.15,60.15,0,0,1,4.95-13.36,17.84,17.84,0,0,1,6.75-7.28,14.7,14.7,0,0,1,7.63-1.91A15.9,15.9,0,0,1,399,83.55,10,10,0,0,1,403.37,92.21Z"/><path class="cls-5" d="M437.32,92.62q-2.44,1.86-5.25,7.1a128.1,128.1,0,0,0-5.73,12.48,167.14,167.14,0,0,0-6.2,18.37,14,14,0,0,1-3.91,1.41,19.2,19.2,0,0,1-3.43.38,9.77,9.77,0,0,1-4.33-.83,7.37,7.37,0,0,1-2.72-2.21,9.27,9.27,0,0,1-1.67-3.7,19.25,19.25,0,0,1-.41-3.76A83.84,83.84,0,0,1,405,108.44q2.32-14.26,6.56-30.26,2.2-8.42,4.42-15.75,2-6.45,3.58-11.34a23.3,23.3,0,0,1,8.95-1.91,12.2,12.2,0,0,1,3.55.48,4.57,4.57,0,0,1,2.36,1.49q-2.56,7.22-4.9,14.5-2.75,8.53-5.13,17.13-1.78,6.5-3.34,13.12c-.68,2.87-1.27,5.59-1.79,8.18q-2.14,10.2-2.15,14.74a7,7,0,0,0,.36,2.18c.24.73.48,1.1.72,1.1q1.84-6.5,4.23-12.53a107.57,107.57,0,0,1,5.25-11.64,76.44,76.44,0,0,1,5.73-9.19,25.72,25.72,0,0,1,6.45-6.5,10.26,10.26,0,0,1,5.9-1.79,7.84,7.84,0,0,1,4.48,1.37,5,5,0,0,1,1.52,1.94,7,7,0,0,1,.57,3c0,1.15-.62,3.68-1.85,7.57q-.24.66-.42,1.32-2,6.49-3.64,14.26a48.18,48.18,0,0,0-1,9.49,7.17,7.17,0,0,0,.24,1.85,1.1,1.1,0,0,0,1.19.89c1.07,0,2.38-.88,3.91-2.65a45.65,45.65,0,0,0,4.68-6.72,64.49,64.49,0,0,0,6.62-15c0,1.44-.69,4.33-2.08,8.69a81.12,81.12,0,0,1-5.73,13.33A46.57,46.57,0,0,1,450,126a21.58,21.58,0,0,1-4.83,4.59,9.75,9.75,0,0,1-9.13,1.05,8.72,8.72,0,0,1-2.63-1.76,9.41,9.41,0,0,1-2.12-3.94,16.93,16.93,0,0,1-.56-4.12,59.37,59.37,0,0,1,1.43-12.47A99.25,99.25,0,0,1,437.32,92.62Z"/><path class="cls-6" d="M186,128.61l10.5-51.22h13.37l10.37,51.22H209l-1.4-9.81H198.7l-1.4,9.81Zm13.9-19.06h6.47L203.11,87.2Z"/><path class="cls-6" d="M220.76,128.61V77.39h11.72l9.34,31.6q-.56-8-.83-13.77t-.26-9.78v-8h10v51.22H239l-9.4-32.56q.62,6.35.95,12.32t.33,11.59v8.65Z"/><path class="cls-6" d="M254.79,128.61V77.39h12.4q6.81,0,10.09,1.25a10.45,10.45,0,0,1,5.22,4.27,16.3,16.3,0,0,1,2.12,6.1,100.87,100.87,0,0,1,.63,14,100.33,100.33,0,0,1-.63,14,16.61,16.61,0,0,1-2.12,6.12,10.45,10.45,0,0,1-5.22,4.27q-3.28,1.24-10.09,1.25ZM266.1,86.94v32.32a3,3,0,0,0,.65.07h1a7.6,7.6,0,0,0,3-.53,4.44,4.44,0,0,0,1.95-1.7,8.58,8.58,0,0,0,.86-3.59c.15-1.77.23-5.26.23-10.44v-2.33q0-6.39-.22-8.63a6.72,6.72,0,0,0-.81-3.08,4,4,0,0,0-1.92-1.63,8.48,8.48,0,0,0-3.23-.53c-.4,0-.71,0-.92,0A4.48,4.48,0,0,0,266.1,86.94Z"/><path class="cls-7" d="M80.52,25.87a12,12,0,0,1,6,1.44,14.8,14.8,0,0,1,4,3.21,16.5,16.5,0,0,1,2,2.89Q89.92,41.6,86.34,63.2T80,107.61q-2.79,22.81-2.79,32.22a10,10,0,0,0,.42,2.89,1.74,1.74,0,0,0,1.81,1.39q4.29,0,13.46-17.59a248,248,0,0,0,16.25-40.13,20.42,20.42,0,0,1-9.45-10.11A35.47,35.47,0,0,1,96.82,62a57,57,0,0,1,2.93-18,49.93,49.93,0,0,1,7.45-14.81q4.51-5.91,9.17-5.91,5.4,0,8.33,3.26a17.3,17.3,0,0,1,4,8.38,46.43,46.43,0,0,1,1,10v.84q-.27,15.54-8.56,40.59a56.7,56.7,0,0,0,8.66.65,64.1,64.1,0,0,0,18-2.7q-8,5.51-20.58,5.5c-2.24,0-4.6-.13-7.08-.37a248.91,248.91,0,0,1-10.15,25,178.08,178.08,0,0,1-12.66,22.86,79.11,79.11,0,0,1-14.11,16.57q-7.31,6.28-14.57,6.29-5.86,0-8.94-2.7a13.71,13.71,0,0,1-4.19-6.57,25.9,25.9,0,0,1-1.11-7.12q0-10.25,2.09-31.89t5.36-43Q65.07,47.47,68.51,36q-8.85,0-17.09,7.13A56.92,56.92,0,0,0,37.88,60.78a45.69,45.69,0,0,0-5.31,20.67A29,29,0,0,0,34.85,93a20,20,0,0,0,7.59,8.89l-.56.19A26.24,26.24,0,0,1,38,103.7a16.36,16.36,0,0,1-5.12.66,13.32,13.32,0,0,1-8.52-2.61,15.36,15.36,0,0,1-4.84-6.47A20.16,20.16,0,0,1,18,87.78a47.94,47.94,0,0,1,5.77-22.39,76.87,76.87,0,0,1,15-19.93,79.26,79.26,0,0,1,20.3-14.24A49,49,0,0,1,80.52,25.87Zm29.8,56.33q5.12-17.61,5.12-31.2a33.67,33.67,0,0,0-.56-6.51c-.37-1.86-1.24-2.8-2.61-2.8q-3.26,0-6.75,7.08A34.63,34.63,0,0,0,102,64.32a26.86,26.86,0,0,0,1.86,9.87A17.74,17.74,0,0,0,110.32,82.2Z"/><path class="cls-8" d="M112.17,134c-2.32,5.61-10.43,22.17-26.83,26.59,0,0,271.37,41.21,373.59-20.8,0,0-80.24,42.12-344.06-7.29A2.43,2.43,0,0,0,112.17,134Z"/></svg>