<svg id="Layer_1" data-name="Layer 1" xmlns="http://www.w3.org/2000/svg" viewBox="0 0 150 100"><defs><style>.cls-1{fill:#57585b;}.cls-2{fill:#6773e6;}.cls-3,.cls-4,.cls-5{fill:none;}.cls-3,.cls-4{stroke:#57585b;stroke-miterlimit:10;}.cls-3{strokeWidth:1.6px;}.cls-4{strokeWidth:0.9px;}.cls-6{fill:#f2751b;}</style></defs><title>Stripe Logo</title><path class="cls-1" d="M23.51,71.29a6.94,6.94,0,0,0-5.62,2.88h1.49l.24.36h-2a5.82,5.82,0,0,0-.34.6H20l.17.37h-3a6.32,6.32,0,0,0-.22.61h3.43l.11.36H16.81c0,.2-.09.4-.13.61h3.91l.05.35h-4c0,.2,0,.41,0,.61h4.1v.36h-4.1c0,.2,0,.4,0,.6h4l0,.36H16.68c0,.2.07.41.12.61h3.67l-.11.35H16.91a6.32,6.32,0,0,0,.22.61h3l-.16.35H17.29c.11.21.22.42.34.61h2l-.24.36H17.87a6.92,6.92,0,1,0,5.64-10.94Z"/><path class="cls-2" d="M5.31,35.64A14.84,14.84,0,0,1,.85,33.77l2.27-5a14,14,0,0,0,3.81,1.68,15.33,15.33,0,0,0,4.37.65q4.33,0,4.33-2.2a1.54,1.54,0,0,0-1.18-1.48,16.8,16.8,0,0,0-3.63-.77,33.22,33.22,0,0,1-4.77-1,7.4,7.4,0,0,1-3.26-2.07A6,6,0,0,1,1.42,19.3a6.76,6.76,0,0,1,1.29-4.07,8.32,8.32,0,0,1,3.76-2.76,15.66,15.66,0,0,1,5.84-1,22.68,22.68,0,0,1,5,.56,13.87,13.87,0,0,1,4.09,1.55l-2.28,5a13.28,13.28,0,0,0-6.78-1.8A6.73,6.73,0,0,0,9,17.41,1.85,1.85,0,0,0,7.94,19,1.59,1.59,0,0,0,9.12,20.6a20.16,20.16,0,0,0,3.76.86,40.38,40.38,0,0,1,4.72,1.05,7.14,7.14,0,0,1,3.2,2,5.9,5.9,0,0,1,1.35,4.13,6.46,6.46,0,0,1-1.31,4A8.31,8.31,0,0,1,17,35.41a16.71,16.71,0,0,1-6,1A22.52,22.52,0,0,1,5.31,35.64Z"/><path class="cls-2" d="M51.71,12.38a11.93,11.93,0,0,1,4.79-.9V18q-1.14-.09-1.53-.09a6.15,6.15,0,0,0-4.6,1.69,6.89,6.89,0,0,0-1.66,5.05V36H41.88V11.84H48.4V15A7.63,7.63,0,0,1,51.71,12.38Z"/><path class="cls-2" d="M58.82,11.84h6.82V36H58.82Z"/><path class="cls-2" d="M90.12,13a11,11,0,0,1,4.22,4.36,13.45,13.45,0,0,1,1.53,6.54,13.45,13.45,0,0,1-1.53,6.54,11.07,11.07,0,0,1-4.22,4.36,11.81,11.81,0,0,1-6,1.55,9,9,0,0,1-7.09-2.92V44.74H70.23V11.84h6.52v2.78q2.53-3.13,7.4-3.14A11.81,11.81,0,0,1,90.12,13ZM87.27,28.8A6.84,6.84,0,0,0,89,23.93a6.88,6.88,0,0,0-1.69-4.88,6,6,0,0,0-8.61,0A6.88,6.88,0,0,0,77,23.93a6.84,6.84,0,0,0,1.69,4.87,6,6,0,0,0,8.61,0Z"/><path class="cls-2" d="M121.6,25.91H103.79a5.75,5.75,0,0,0,2.27,3.55,7.41,7.41,0,0,0,4.47,1.3,9,9,0,0,0,3.26-.56,8,8,0,0,0,2.64-1.78l3.63,4q-3.32,3.9-9.71,3.91a14.94,14.94,0,0,1-7-1.6,11.51,11.51,0,0,1-4.73-4.43,12.38,12.38,0,0,1-1.66-6.42,12.69,12.69,0,0,1,1.64-6.41,11.76,11.76,0,0,1,4.51-4.45,13,13,0,0,1,6.41-1.59A12.8,12.8,0,0,1,115.73,13a11,11,0,0,1,4.4,4.38,13.39,13.39,0,0,1,1.6,6.63C121.73,24.11,121.68,24.74,121.6,25.91Zm-16-7.78a5.83,5.83,0,0,0-1.93,3.69h11.6a5.91,5.91,0,0,0-1.93-3.67,5.67,5.67,0,0,0-3.85-1.37A5.76,5.76,0,0,0,105.63,18.13Z"/><path class="cls-3" d="M55.34,89.18H10.55A9.18,9.18,0,0,1,1.39,80V53.14A9.18,9.18,0,0,1,10.55,44H60.34a9.18,9.18,0,0,1,9.16,9.16V66.58"/><rect class="cls-1" x="1.39" y="51.27" width="67.99" height="10.18"/><path class="cls-4" d="M18.94,82.81A6.92,6.92,0,1,1,19,73.7"/><line class="cls-5" x1="19.71" y1="74.68" x2="19.71" y2="74.68"/><path class="cls-1" d="M75,51.5a17.94,17.94,0,0,1,3.37-.3,5.13,5.13,0,0,1,3.8,1.28,4.37,4.37,0,0,1,1.19,3.21,4.85,4.85,0,0,1-1,3.28,5.23,5.23,0,0,1-4.15,1.68,5.59,5.59,0,0,1-1.41-.13v6.15H75Zm1.75,7.4a5,5,0,0,0,1.45.16c2.12,0,3.41-1.16,3.41-3.28s-1.27-3-3.2-3a6.68,6.68,0,0,0-1.66.16Z"/><path class="cls-1" d="M90.51,66.67l-.15-1.39H90.3a3.52,3.52,0,0,1-3,1.64,3,3,0,0,1-3-3.17c0-2.66,2.1-4.12,5.86-4.1v-.22c0-.92-.22-2.56-2.21-2.56a4.45,4.45,0,0,0-2.54.82l-.4-1.32a5.53,5.53,0,0,1,3.2-1c3,0,3.71,2.3,3.71,4.51V64a17.65,17.65,0,0,0,.16,2.64ZM90.24,61c-1.93,0-4.13.34-4.13,2.49a1.68,1.68,0,0,0,1.68,1.91,2.47,2.47,0,0,0,2.35-1.85,2.3,2.3,0,0,0,.1-.63Z"/><path class="cls-1" d="M95.3,55.64l2.14,6.52c.22.73.46,1.59.62,2.25h0c.18-.66.38-1.5.63-2.3l1.93-6.47h1.87L99.87,63.5c-1.26,3.78-2.13,5.72-3.34,6.91a4.65,4.65,0,0,1-2.17,1.29L93.91,70a4.49,4.49,0,0,0,1.55-1A5.94,5.94,0,0,0,97,66.81a1.66,1.66,0,0,0,.14-.48A1.93,1.93,0,0,0,97,65.8l-3.6-10.16Z"/><path class="cls-1" d="M104.15,58.63c0-1.14,0-2.08-.08-3h1.55l.08,1.78h.06a3.33,3.33,0,0,1,3.06-2,2.93,2.93,0,0,1,2.76,2.21h0a4.46,4.46,0,0,1,1.09-1.43,3.08,3.08,0,0,1,2.15-.78c1.29,0,3.21,1,3.21,4.79v6.49h-1.74V60.43c0-2.12-.68-3.4-2.11-3.4a2.36,2.36,0,0,0-2.09,1.82,3.41,3.41,0,0,0-.15,1v6.81h-1.73V60.06c0-1.75-.68-3-2-3a2.52,2.52,0,0,0-2.2,2,3.1,3.1,0,0,0-.14,1v6.65h-1.73Z"/><path class="cls-1" d="M121.94,61.52c0,2.71,1.57,3.83,3.34,3.83a5.75,5.75,0,0,0,2.7-.57l.3,1.43a7.06,7.06,0,0,1-3.24.69c-3,0-4.79-2.24-4.79-5.56s1.73-6,4.57-6c3.18,0,4,3.17,4,5.2a8.41,8.41,0,0,1-.06.93Zm5.2-1.43c0-1.28-.47-3.26-2.46-3.26-1.79,0-2.58,1.87-2.72,3.26Z"/><path class="cls-1" d="M131.05,58.63c0-1.14,0-2.08-.08-3h1.57l.1,1.83h0a3.54,3.54,0,0,1,3.22-2.08c1.35,0,3.45.91,3.45,4.7v6.58h-1.78V60.31c0-1.77-.58-3.25-2.25-3.25a2.59,2.59,0,0,0-2.38,2,3.23,3.23,0,0,0-.12.93v6.63h-1.77Z"/><path class="cls-1" d="M144.28,52.48v3.16h2.54v1.53h-2.54v5.95c0,1.36.35,2.14,1.33,2.14a3.41,3.41,0,0,0,1-.14l.08,1.5a3.83,3.83,0,0,1-1.57.28,2.3,2.3,0,0,1-1.91-.85,4.43,4.43,0,0,1-.69-2.87v-6H141V55.64h1.51V53Z"/><path class="cls-6" d="M68.09,98.84H61.52a3.61,3.61,0,0,1-3.72-3.71V84a3.56,3.56,0,0,1,2-3.31.42.42,0,0,0,.24-.43q0-1.56,0-3.12a8,8,0,0,1,16,0c0,1,0,2.05,0,3.08a.42.42,0,0,0,.25.43,3.55,3.55,0,0,1,2,3.31c0,3.7,0,7.4,0,11.1a3.62,3.62,0,0,1-3.72,3.71h-6.5Zm4.52-18.55c0-1,0-1.94,0-2.9a6.52,6.52,0,0,0-.12-1.16,4.53,4.53,0,0,0-8.85.06,12.74,12.74,0,0,0-.12,2c0,.67,0,1.35,0,2Zm-5.7,11.6h0c0,.62,0,1.24,0,1.86a1.14,1.14,0,1,0,2.28,0q0-1.8,0-3.6a.59.59,0,0,1,.26-.54,2.25,2.25,0,0,0,1-1.76,2.36,2.36,0,0,0-4.48-1.13,2.31,2.31,0,0,0,.68,2.85.74.74,0,0,1,.31.66C66.9,90.76,66.91,91.32,66.91,91.89Z"/><polygon class="cls-2" points="65.64 1.27 58.82 2.6 58.82 7.36 65.52 5.94 65.64 1.27"/><path class="cls-2" d="M38,29.91a4.31,4.31,0,0,1-2.76.89A2.75,2.75,0,0,1,33,30a3.31,3.31,0,0,1-.77-2.36V17.77h5.86V12.38H32.26V6.49H25.43V27.7q0,4.28,2.3,6.48a9.05,9.05,0,0,0,6.5,2.2A12.32,12.32,0,0,0,37.31,36a7,7,0,0,0,2.47-1.15Z"/></svg>