<svg xmlns="http://www.w3.org/2000/svg" width="204" height="68.873" viewBox="0 0 204 68.873">
  <g id="Group_154" data-name="Group 154" transform="translate(-158 -84)">
    <path id="Path_18" data-name="Path 18" d="M143.441,905.872a7.773,7.773,0,0,1-.89,3.492A9.034,9.034,0,0,1,140.5,911.9a5.552,5.552,0,0,1-3.561,1.3,2.7,2.7,0,0,1-2.123-.959,19.78,19.78,0,0,0-.548,3.972,6.359,6.359,0,0,0,.411,2.534,2.073,2.073,0,0,0,1.781,1.369,5.733,5.733,0,0,0,3.287-1.095,11.311,11.311,0,0,0,2.74-2.671,23.8,23.8,0,0,0,1.986-3.081,32.925,32.925,0,0,0,2.26-5,16.921,16.921,0,0,1-1.575,5.547,27.7,27.7,0,0,1-1.986,3.7,18.062,18.062,0,0,1-3.767,4.451,8.064,8.064,0,0,1-5.2,2.123h-.137a6.316,6.316,0,0,1-4.589-1.986,9.7,9.7,0,0,1-1.3-2.329,7.146,7.146,0,0,1-.685-3.218,31.84,31.84,0,0,1,.89-6.164,21.435,21.435,0,0,1,2.259-5.683,8.783,8.783,0,0,1,1.986-2.534,6.59,6.59,0,0,1,4.588-1.713,8.874,8.874,0,0,1,3.9.959,4.135,4.135,0,0,1,1.712,1.712A6.4,6.4,0,0,1,143.441,905.872Zm-3.834-1.644h0c0-.822-.137-1.232-.479-1.232a1.363,1.363,0,0,0-1.1.478,4.536,4.536,0,0,0-.958,1.37,19.261,19.261,0,0,0-1.3,3.287c-.342.959-.548,1.986-.822,3.082a2,2,0,0,0,1.1.48c.685,0,1.232-.411,1.78-1.232a9.062,9.062,0,0,0,1.232-2.739A15.487,15.487,0,0,0,139.607,904.229Z" transform="translate(77.56 -790.371)" fill="#fff"/>
    <path id="Path_19" data-name="Path 19" d="M152.85,893.406l.342-1.1c1.233-4.452,2.123-7.533,2.739-9.313a12.285,12.285,0,0,1,4.109-.89,4.594,4.594,0,0,1,1.644.274,1.881,1.881,0,0,1,1.1.685c-.822,2.328-1.917,5.683-3.15,10l-.136.685a43.375,43.375,0,0,0,4.314-.48,3.15,3.15,0,0,1-2.328,1.781,15.2,15.2,0,0,1-2.67.753c-.959,3.355-1.781,6.78-2.671,10.066a51.438,51.438,0,0,0-1.576,8.492,3.317,3.317,0,0,0,.069.822.52.52,0,0,0,.548.41,3.237,3.237,0,0,0,2.054-1.369,23.525,23.525,0,0,0,2.328-3.287c.754-1.233,1.37-2.465,2.054-3.7.548-1.232.959-2.122,1.233-2.807a9.391,9.391,0,0,1-.548,2.4,28.936,28.936,0,0,1-1.575,4.04,39.081,39.081,0,0,1-2.4,4.383,16.309,16.309,0,0,1-2.945,3.561,4.611,4.611,0,0,1-3.287,1.37,4.246,4.246,0,0,1-2.671-.822,4.646,4.646,0,0,1-1.233-1.918,5.407,5.407,0,0,1-.342-2.054,50.819,50.819,0,0,1,1.644-9.656c.754-3.15,1.576-6.163,2.4-9.245a5.214,5.214,0,0,0-1.027-.068,1.928,1.928,0,0,1-.89-1.644v-.685a3.255,3.255,0,0,1,.274-1.369A9.78,9.78,0,0,0,152.85,893.406Z" transform="translate(73.15 -786.397)" fill="#fff"/>
    <path id="Path_20" data-name="Path 20" d="M255.187,882.741a6.7,6.7,0,0,1-.342,1.986,7.431,7.431,0,0,1-.89,2.328,2.674,2.674,0,0,1-1.3,1.3,31.811,31.811,0,0,0-3.492-2.466,12.63,12.63,0,0,0-4.794-1.712,14.812,14.812,0,0,0-3.9-.342,9.209,9.209,0,0,0-1.369.068,12.353,12.353,0,0,0-4.862,1.164,7.974,7.974,0,0,0-3.561,2.945,9.162,9.162,0,0,0-1.37,5.2,3.962,3.962,0,0,0,1.1,2.944,3.905,3.905,0,0,0,2.671,1.1,4.366,4.366,0,0,1-.411,2.122,2.428,2.428,0,0,1-1.1,1.1,2.328,2.328,0,0,1-1.3.342,4.1,4.1,0,0,1-3.492-1.918,7.571,7.571,0,0,1-1.3-4.519,10.229,10.229,0,0,1,1.1-4.519,13.352,13.352,0,0,1,3.356-4.383,16.518,16.518,0,0,1,6.094-3.287,30.216,30.216,0,0,1,9.245-1.233C249.5,880.755,252.79,881.44,255.187,882.741ZM236.492,902.6c1.781-7.6,2.74-12.668,2.74-15.339.821-.959,2.328-1.575,4.451-1.644a5.644,5.644,0,0,1,2.671.753c0,1.37-.89,6.095-2.739,14.107-1.781,8.012-2.671,14.38-2.671,18.832a6.317,6.317,0,0,1-3.493,1.574,4.856,4.856,0,0,1-.959.068,5.649,5.649,0,0,1-2.671-.753C233.753,915.954,234.643,910.133,236.492,902.6Z" transform="translate(56.344 -786.141)" fill="#fff"/>
    <path id="Path_21" data-name="Path 21" d="M268.316,905.892a7.774,7.774,0,0,1-.891,3.492,9.028,9.028,0,0,1-2.054,2.533,5.552,5.552,0,0,1-3.561,1.3,2.706,2.706,0,0,1-2.123-.959,19.789,19.789,0,0,0-.548,3.972,6.358,6.358,0,0,0,.411,2.534,2.153,2.153,0,0,0,1.781,1.37,5.737,5.737,0,0,0,3.287-1.1,11.3,11.3,0,0,0,2.739-2.671,23.778,23.778,0,0,0,1.986-3.081,45.642,45.642,0,0,0,2.259-4.931,16.911,16.911,0,0,1-1.575,5.547,28.453,28.453,0,0,1-1.986,3.767,18.087,18.087,0,0,1-3.766,4.451,8.067,8.067,0,0,1-5.2,2.123h-.137a6.313,6.313,0,0,1-4.588-1.986,9.658,9.658,0,0,1-1.3-2.329,10.613,10.613,0,0,1-.48-3.287,27.413,27.413,0,0,1,.959-6.163,21.411,21.411,0,0,1,2.26-5.684,8.794,8.794,0,0,1,1.986-2.534,6.588,6.588,0,0,1,4.588-1.712,8.866,8.866,0,0,1,3.9.959,4.118,4.118,0,0,1,1.712,1.712A6.834,6.834,0,0,1,268.316,905.892Zm-3.767-1.644h0c0-.822-.137-1.232-.48-1.232a1.361,1.361,0,0,0-1.1.479,4.524,4.524,0,0,0-.959,1.369,19.353,19.353,0,0,0-1.3,3.287c-.342.959-.548,1.986-.822,3.081a2,2,0,0,0,1.1.479c.685,0,1.232-.41,1.781-1.232A9.482,9.482,0,0,0,264,907.809,22.414,22.414,0,0,0,264.549,904.248Z" transform="translate(50.474 -790.39)" fill="#fff"/>
    <path id="Path_22" data-name="Path 22" d="M288.849,906.005a8.394,8.394,0,0,1-.685,3.149,3.159,3.159,0,0,1-1.78.48,6.228,6.228,0,0,1-2.466-.411c.342-.891.549-1.781.822-2.74a9.888,9.888,0,0,0,.274-1.985v-.342c0-.685-.137-.891-.479-.959-.822.068-1.575.822-2.26,2.328a26.494,26.494,0,0,0-1.917,5.684,33.978,33.978,0,0,0-.822,5.2,5.686,5.686,0,0,0,.479,2.74,1.866,1.866,0,0,0,1.712,1.232,5.166,5.166,0,0,0,2.26-.479,9.187,9.187,0,0,0,2.122-1.507,19.119,19.119,0,0,0,3.7-4.793,22.324,22.324,0,0,0,2.123-4.931,11.188,11.188,0,0,1-.822,3.63,44.744,44.744,0,0,1-2.4,4.794,21.276,21.276,0,0,1-4.04,5.2,8.8,8.8,0,0,1-5.547,2.328,6.312,6.312,0,0,1-4.589-1.986,6.823,6.823,0,0,1-1.3-2.4,9.484,9.484,0,0,1-.479-3.149,26.5,26.5,0,0,1,.89-5.753,22.007,22.007,0,0,1,2.328-6.095,7.3,7.3,0,0,1,3.15-3.287,8,8,0,0,1,3.493-.891,7.292,7.292,0,0,1,4.314,1.3A3.477,3.477,0,0,1,288.849,906.005Z" transform="translate(46.102 -790.504)" fill="#fff"/>
    <path id="Path_23" data-name="Path 23" d="M308.985,902.016a9.476,9.476,0,0,0-2.4,3.219c-.959,1.917-1.781,3.766-2.671,5.683a71.421,71.421,0,0,0-2.807,8.423,8.006,8.006,0,0,1-1.781.685,12.188,12.188,0,0,1-1.575.137,4.15,4.15,0,0,1-1.986-.411,4.268,4.268,0,0,1-1.233-.959,3.23,3.23,0,0,1-.753-1.712,14.466,14.466,0,0,1-.137-1.712,46.919,46.919,0,0,1,.548-6.164c.754-4.382,1.713-8.971,2.945-13.833.685-2.534,1.3-4.93,2.054-7.258.548-1.986,1.164-3.7,1.644-5.2a12.278,12.278,0,0,1,4.108-.89,4.6,4.6,0,0,1,1.644.273,1.887,1.887,0,0,1,1.1.685c-.754,2.26-1.576,4.452-2.26,6.712-.822,2.67-1.644,5.2-2.4,7.807-.548,1.985-1.1,3.971-1.575,6.025-.342,1.3-.548,2.534-.822,3.7a34.373,34.373,0,0,0-.959,6.78,4.006,4.006,0,0,0,.137.958c.068.342.273.479.342.479a51.576,51.576,0,0,1,1.986-5.752,53.112,53.112,0,0,1,2.4-5.342,24.051,24.051,0,0,1,2.671-4.177,12.036,12.036,0,0,1,2.944-2.944,4.779,4.779,0,0,1,2.739-.822,3.525,3.525,0,0,1,2.055.685,2.091,2.091,0,0,1,.685.89,4.429,4.429,0,0,1,.273,1.37,17.737,17.737,0,0,1-.822,3.492,1.622,1.622,0,0,0-.136.548c-.548,1.985-1.164,4.177-1.644,6.505a22.6,22.6,0,0,0-.48,4.383,3.339,3.339,0,0,0,.068.822.521.521,0,0,0,.548.411c.479,0,1.1-.411,1.78-1.233a18.952,18.952,0,0,0,2.123-3.081,30.81,30.81,0,0,0,3.081-6.849,17.758,17.758,0,0,1-.958,3.972,34.415,34.415,0,0,1-2.671,6.095,26.279,26.279,0,0,1-1.918,2.876,11.1,11.1,0,0,1-2.259,2.123,4.613,4.613,0,0,1-2.466.822,3.837,3.837,0,0,1-1.712-.343,4.3,4.3,0,0,1-1.232-.822,3.791,3.791,0,0,1-.959-1.781,8.067,8.067,0,0,1-.274-1.917,26.468,26.468,0,0,1,.685-5.753A51.238,51.238,0,0,1,308.985,902.016Z" transform="translate(41.579 -786.378)" fill="#fff"/>
    <path id="Path_24" data-name="Path 24" d="M143.441,905.872a7.773,7.773,0,0,1-.89,3.492A9.034,9.034,0,0,1,140.5,911.9a5.552,5.552,0,0,1-3.561,1.3,2.7,2.7,0,0,1-2.123-.959,19.78,19.78,0,0,0-.548,3.972,6.359,6.359,0,0,0,.411,2.534,2.073,2.073,0,0,0,1.781,1.369,5.733,5.733,0,0,0,3.287-1.095,11.311,11.311,0,0,0,2.74-2.671,23.8,23.8,0,0,0,1.986-3.081,32.925,32.925,0,0,0,2.26-5,16.921,16.921,0,0,1-1.575,5.547,27.7,27.7,0,0,1-1.986,3.7,18.062,18.062,0,0,1-3.767,4.451,8.064,8.064,0,0,1-5.2,2.123h-.137a6.316,6.316,0,0,1-4.589-1.986,9.7,9.7,0,0,1-1.3-2.329,7.146,7.146,0,0,1-.685-3.218,31.84,31.84,0,0,1,.89-6.164,21.435,21.435,0,0,1,2.259-5.683,8.783,8.783,0,0,1,1.986-2.534,6.59,6.59,0,0,1,4.588-1.713,8.874,8.874,0,0,1,3.9.959,4.135,4.135,0,0,1,1.712,1.712A6.4,6.4,0,0,1,143.441,905.872Zm-3.834-1.644h0c0-.822-.137-1.232-.479-1.232a1.363,1.363,0,0,0-1.1.478,4.536,4.536,0,0,0-.958,1.37,19.261,19.261,0,0,0-1.3,3.287c-.342.959-.548,1.986-.822,3.082a2,2,0,0,0,1.1.48c.685,0,1.232-.411,1.78-1.232a9.062,9.062,0,0,0,1.232-2.739A15.487,15.487,0,0,0,139.607,904.229Z" transform="translate(77.56 -790.371)" fill="#fff"/>
    <path id="Path_25" data-name="Path 25" d="M152.85,893.406l.342-1.1c1.233-4.452,2.123-7.533,2.739-9.313a12.285,12.285,0,0,1,4.109-.89,4.594,4.594,0,0,1,1.644.274,1.881,1.881,0,0,1,1.1.685c-.822,2.328-1.917,5.683-3.15,10l-.136.685a43.375,43.375,0,0,0,4.314-.48,3.15,3.15,0,0,1-2.328,1.781,15.2,15.2,0,0,1-2.67.753c-.959,3.355-1.781,6.78-2.671,10.066a51.438,51.438,0,0,0-1.576,8.492,3.317,3.317,0,0,0,.069.822.52.52,0,0,0,.548.41,3.237,3.237,0,0,0,2.054-1.369,23.525,23.525,0,0,0,2.328-3.287c.754-1.233,1.37-2.465,2.054-3.7.548-1.232.959-2.122,1.233-2.807a9.391,9.391,0,0,1-.548,2.4,28.936,28.936,0,0,1-1.575,4.04,39.081,39.081,0,0,1-2.4,4.383,16.309,16.309,0,0,1-2.945,3.561,4.611,4.611,0,0,1-3.287,1.37,4.246,4.246,0,0,1-2.671-.822,4.646,4.646,0,0,1-1.233-1.918,5.407,5.407,0,0,1-.342-2.054,50.819,50.819,0,0,1,1.644-9.656c.754-3.15,1.576-6.163,2.4-9.245a5.214,5.214,0,0,0-1.027-.068,1.928,1.928,0,0,1-.89-1.644v-.685a3.255,3.255,0,0,1,.274-1.369A9.78,9.78,0,0,0,152.85,893.406Z" transform="translate(73.15 -786.397)" fill="#fff"/>
    <path id="Path_26" data-name="Path 26" d="M255.187,882.741a6.7,6.7,0,0,1-.342,1.986,7.431,7.431,0,0,1-.89,2.328,2.674,2.674,0,0,1-1.3,1.3,31.811,31.811,0,0,0-3.492-2.466,12.63,12.63,0,0,0-4.794-1.712,14.812,14.812,0,0,0-3.9-.342,9.209,9.209,0,0,0-1.369.068,12.353,12.353,0,0,0-4.862,1.164,7.974,7.974,0,0,0-3.561,2.945,9.162,9.162,0,0,0-1.37,5.2,3.962,3.962,0,0,0,1.1,2.944,3.905,3.905,0,0,0,2.671,1.1,4.366,4.366,0,0,1-.411,2.122,2.428,2.428,0,0,1-1.1,1.1,2.328,2.328,0,0,1-1.3.342,4.1,4.1,0,0,1-3.492-1.918,7.571,7.571,0,0,1-1.3-4.519,10.229,10.229,0,0,1,1.1-4.519,13.352,13.352,0,0,1,3.356-4.383,16.518,16.518,0,0,1,6.094-3.287,30.216,30.216,0,0,1,9.245-1.233C249.5,880.755,252.79,881.44,255.187,882.741ZM236.492,902.6c1.781-7.6,2.74-12.668,2.74-15.339.821-.959,2.328-1.575,4.451-1.644a5.644,5.644,0,0,1,2.671.753c0,1.37-.89,6.095-2.739,14.107-1.781,8.012-2.671,14.38-2.671,18.832a6.317,6.317,0,0,1-3.493,1.574,4.856,4.856,0,0,1-.959.068,5.649,5.649,0,0,1-2.671-.753C233.753,915.954,234.643,910.133,236.492,902.6Z" transform="translate(56.344 -786.141)" fill="#fff"/>
    <path id="Path_27" data-name="Path 27" d="M268.316,905.892a7.774,7.774,0,0,1-.891,3.492,9.028,9.028,0,0,1-2.054,2.533,5.552,5.552,0,0,1-3.561,1.3,2.706,2.706,0,0,1-2.123-.959,19.789,19.789,0,0,0-.548,3.972,6.358,6.358,0,0,0,.411,2.534,2.153,2.153,0,0,0,1.781,1.37,5.737,5.737,0,0,0,3.287-1.1,11.3,11.3,0,0,0,2.739-2.671,23.778,23.778,0,0,0,1.986-3.081,45.642,45.642,0,0,0,2.259-4.931,16.911,16.911,0,0,1-1.575,5.547,28.453,28.453,0,0,1-1.986,3.767,18.087,18.087,0,0,1-3.766,4.451,8.067,8.067,0,0,1-5.2,2.123h-.137a6.313,6.313,0,0,1-4.588-1.986,9.658,9.658,0,0,1-1.3-2.329,10.613,10.613,0,0,1-.48-3.287,27.413,27.413,0,0,1,.959-6.163,21.411,21.411,0,0,1,2.26-5.684,8.794,8.794,0,0,1,1.986-2.534,6.588,6.588,0,0,1,4.588-1.712,8.866,8.866,0,0,1,3.9.959,4.118,4.118,0,0,1,1.712,1.712A6.834,6.834,0,0,1,268.316,905.892Zm-3.767-1.644h0c0-.822-.137-1.232-.48-1.232a1.361,1.361,0,0,0-1.1.479,4.524,4.524,0,0,0-.959,1.369,19.353,19.353,0,0,0-1.3,3.287c-.342.959-.548,1.986-.822,3.081a2,2,0,0,0,1.1.479c.685,0,1.232-.41,1.781-1.232A9.482,9.482,0,0,0,264,907.809,22.414,22.414,0,0,0,264.549,904.248Z" transform="translate(50.474 -790.39)" fill="#fff"/>
    <path id="Path_28" data-name="Path 28" d="M288.849,906.005a8.394,8.394,0,0,1-.685,3.149,3.159,3.159,0,0,1-1.78.48,6.228,6.228,0,0,1-2.466-.411c.342-.891.549-1.781.822-2.74a9.888,9.888,0,0,0,.274-1.985v-.342c0-.685-.137-.891-.479-.959-.822.068-1.575.822-2.26,2.328a26.494,26.494,0,0,0-1.917,5.684,33.978,33.978,0,0,0-.822,5.2,5.686,5.686,0,0,0,.479,2.74,1.866,1.866,0,0,0,1.712,1.232,5.166,5.166,0,0,0,2.26-.479,9.187,9.187,0,0,0,2.122-1.507,19.119,19.119,0,0,0,3.7-4.793,22.324,22.324,0,0,0,2.123-4.931,11.188,11.188,0,0,1-.822,3.63,44.744,44.744,0,0,1-2.4,4.794,21.276,21.276,0,0,1-4.04,5.2,8.8,8.8,0,0,1-5.547,2.328,6.312,6.312,0,0,1-4.589-1.986,6.823,6.823,0,0,1-1.3-2.4,9.484,9.484,0,0,1-.479-3.149,26.5,26.5,0,0,1,.89-5.753,22.007,22.007,0,0,1,2.328-6.095,7.3,7.3,0,0,1,3.15-3.287,8,8,0,0,1,3.493-.891,7.292,7.292,0,0,1,4.314,1.3A3.477,3.477,0,0,1,288.849,906.005Z" transform="translate(46.102 -790.504)" fill="#fff"/>
    <path id="Path_29" data-name="Path 29" d="M308.985,902.016a9.476,9.476,0,0,0-2.4,3.219c-.959,1.917-1.781,3.766-2.671,5.683a71.421,71.421,0,0,0-2.807,8.423,8.006,8.006,0,0,1-1.781.685,12.188,12.188,0,0,1-1.575.137,4.15,4.15,0,0,1-1.986-.411,4.268,4.268,0,0,1-1.233-.959,3.23,3.23,0,0,1-.753-1.712,14.466,14.466,0,0,1-.137-1.712,46.919,46.919,0,0,1,.548-6.164c.754-4.382,1.713-8.971,2.945-13.833.685-2.534,1.3-4.93,2.054-7.258.548-1.986,1.164-3.7,1.644-5.2a12.278,12.278,0,0,1,4.108-.89,4.6,4.6,0,0,1,1.644.273,1.887,1.887,0,0,1,1.1.685c-.754,2.26-1.576,4.452-2.26,6.712-.822,2.67-1.644,5.2-2.4,7.807-.548,1.985-1.1,3.971-1.575,6.025-.342,1.3-.548,2.534-.822,3.7a34.373,34.373,0,0,0-.959,6.78,4.006,4.006,0,0,0,.137.958c.068.342.273.479.342.479a51.576,51.576,0,0,1,1.986-5.752,53.112,53.112,0,0,1,2.4-5.342,24.051,24.051,0,0,1,2.671-4.177,12.036,12.036,0,0,1,2.944-2.944,4.779,4.779,0,0,1,2.739-.822,3.525,3.525,0,0,1,2.055.685,2.091,2.091,0,0,1,.685.89,4.429,4.429,0,0,1,.273,1.37,17.737,17.737,0,0,1-.822,3.492,1.622,1.622,0,0,0-.136.548c-.548,1.985-1.164,4.177-1.644,6.505a22.6,22.6,0,0,0-.48,4.383,3.339,3.339,0,0,0,.068.822.521.521,0,0,0,.548.411c.479,0,1.1-.411,1.78-1.233a18.952,18.952,0,0,0,2.123-3.081,30.81,30.81,0,0,0,3.081-6.849,17.758,17.758,0,0,1-.958,3.972,34.415,34.415,0,0,1-2.671,6.095,26.279,26.279,0,0,1-1.918,2.876,11.1,11.1,0,0,1-2.259,2.123,4.613,4.613,0,0,1-2.466.822,3.837,3.837,0,0,1-1.712-.343,4.3,4.3,0,0,1-1.232-.822,3.791,3.791,0,0,1-.959-1.781,8.067,8.067,0,0,1-.274-1.917,26.468,26.468,0,0,1,.685-5.753A51.238,51.238,0,0,1,308.985,902.016Z" transform="translate(41.579 -786.378)" fill="#fff"/>
    <g id="Group_4" data-name="Group 4" transform="translate(235.313 108.653)">
      <path id="Path_30" data-name="Path 30" d="M166.119,922.115l4.794-23.488h6.094l4.794,23.488h-5.136l-.685-4.519h-4.04l-.685,4.519Zm6.369-8.833h2.945l-1.507-10.2Z" transform="translate(-166.119 -898.627)" fill="#fff"/>
      <path id="Path_31" data-name="Path 31" d="M186.485,922.115V898.627h5.342l4.315,14.517c-.137-2.465-.342-4.52-.411-6.369-.068-1.712-.068-3.287-.068-4.451v-3.7h4.588v23.488h-5.342l-4.314-14.928c.137,1.986.342,3.766.41,5.684s.137,3.629.137,5.273v3.971C191.142,922.047,186.485,922.047,186.485,922.115Z" transform="translate(-170.529 -898.627)" fill="#fff"/>
      <path id="Path_32" data-name="Path 32" d="M206.414,922.115V898.627H212.1a12.973,12.973,0,0,1,4.588.548,5.607,5.607,0,0,1,2.4,1.986,7.585,7.585,0,0,1,.959,2.808,50.629,50.629,0,0,1,.342,6.437,40.573,40.573,0,0,1-.342,6.437,8.039,8.039,0,0,1-.959,2.808,4.912,4.912,0,0,1-2.4,1.986,12.963,12.963,0,0,1-4.588.548Zm5.136-19.105V917.8h.821a3.27,3.27,0,0,0,1.37-.274,1.89,1.89,0,0,0,.89-.753,3.439,3.439,0,0,0,.411-1.644c.069-.822.069-2.4.069-4.794v-1.1c0-1.986,0-3.287-.069-3.972a2.469,2.469,0,0,0-.411-1.37,1.654,1.654,0,0,0-.89-.753,5.334,5.334,0,0,0-1.507-.274h-.411Z" transform="translate(-174.845 -898.627)" fill="#fff"/>
    </g>
    <path id="Path_33" data-name="Path 33" d="M96.473,868.188a4.806,4.806,0,0,1,2.739.685,6.3,6.3,0,0,1,1.78,1.506,5.458,5.458,0,0,1,.891,1.3,107.915,107.915,0,0,0-2.876,13.7q-1.644,9.861-2.876,20.339c-.822,6.985-1.3,11.847-1.3,14.791a8.33,8.33,0,0,0,.137,1.3.813.813,0,0,0,.822.685c1.3,0,3.355-2.739,6.163-8.081a101.521,101.521,0,0,0,7.4-18.421,9.5,9.5,0,0,1-4.383-4.589,16.475,16.475,0,0,1-1.3-6.505,27.5,27.5,0,0,1,1.3-8.218,24.112,24.112,0,0,1,3.356-6.78c1.369-1.781,2.808-2.74,4.177-2.74a4.663,4.663,0,0,1,3.766,1.507,7.877,7.877,0,0,1,1.781,3.9,20.893,20.893,0,0,1,.48,4.588v.411c-.069,4.794-1.37,10.957-3.972,18.627a38.767,38.767,0,0,0,3.972.342,27.456,27.456,0,0,0,8.217-1.232,16.646,16.646,0,0,1-9.381,2.534c-1.1,0-2.123-.069-3.218-.137a87.435,87.435,0,0,1-4.725,11.436,81.5,81.5,0,0,1-5.753,10.477,37.84,37.84,0,0,1-6.437,7.6,10.352,10.352,0,0,1-6.711,2.876,6.133,6.133,0,0,1-4.108-1.232,6.5,6.5,0,0,1-1.918-2.944,10.618,10.618,0,0,1-.479-3.287c0-3.15.342-8.013.958-14.586.685-6.574,1.507-13.216,2.466-19.722a101.59,101.59,0,0,1,3.081-15,11.75,11.75,0,0,0-7.806,3.287,24.663,24.663,0,0,0-6.163,8.081,20.707,20.707,0,0,0-2.465,9.518,12.777,12.777,0,0,0,1.1,5.273,9.148,9.148,0,0,0,3.493,4.04l-.274.069a8.171,8.171,0,0,1-1.78.753,6.86,6.86,0,0,1-2.328.342,6.11,6.11,0,0,1-3.9-1.164,8.069,8.069,0,0,1-2.26-2.944,9.917,9.917,0,0,1-.685-3.493,21.344,21.344,0,0,1,2.671-10.34,37.321,37.321,0,0,1,6.848-9.177,35.269,35.269,0,0,1,9.518-6.574A20.23,20.23,0,0,1,96.473,868.188ZM110.031,894a51.162,51.162,0,0,0,2.328-14.244,14.247,14.247,0,0,0-.274-2.944c-.136-.822-.548-1.3-1.232-1.3-.959,0-2.054,1.1-3.15,3.218a16.494,16.494,0,0,0-1.643,7.191,12.6,12.6,0,0,0,.821,4.52A11.359,11.359,0,0,0,110.031,894Z" transform="translate(90.563 -783.16)" fill="#fff"/>
    <path id="Path_34" data-name="Path 34" d="M119.465,931.458c-1.1,2.534-4.793,10.135-12.258,12.189,0,0,124.5,18.9,171.335-9.587,0,0-36.773,19.311-157.776-3.356A1.82,1.82,0,0,0,119.465,931.458Z" transform="translate(81.951 -796.92)" fill="#fff"/>
  </g>
</svg>
