<svg id="Layer_1" data-name="Layer 1" xmlns="http://www.w3.org/2000/svg" xmlns:xlink="http://www.w3.org/1999/xlink" viewBox="0 0 250 250"><defs><style>.cls-1{fill:#fff;}.cls-2{fill:url(#linear-gradient);}.cls-3{fill:url(#linear-gradient-2);}</style><linearGradient id="linear-gradient" x1="143.05" y1="1340.35" x2="277.11" y2="1340.35" gradientTransform="matrix(0.97, 0.01, -0.01, 1, -59.41, -1206.06)" gradientUnits="userSpaceOnUse"><stop offset="0" stop-color="#ba36d4"/><stop offset="0.52" stop-color="#7286f5"/><stop offset="1" stop-color="#b936d4"/></linearGradient><linearGradient id="linear-gradient-2" x1="48.63" y1="106.68" x2="201.38" y2="106.68" gradientUnits="userSpaceOnUse"><stop offset="0.15" stop-color="#c941d9"/><stop offset="1" stop-color="#7288f6"/></linearGradient></defs><rect class="cls-1" width="250" height="250"/><path class="cls-1" d="M200.9,121.8a38.8,38.8,0,0,0,2.6-5.6,19.7,19.7,0,0,0,1.1-3.6,3.4,3.4,0,0,0-2-3.6,3.3,3.3,0,0,0-4.3,1.9,28.2,28.2,0,0,1-2.5,4.7l-1.9,2.8c.6-2.5,1.5-5.9,2.9-10.3,3.8-12.3,4.2-16,4.2-17.8a5.5,5.5,0,0,0-2.7-5,8.3,8.3,0,0,0-4-1.1,11.4,11.4,0,0,0-7.5,3.2,31.4,31.4,0,0,0-4.4,5c1.1-4.5,1.1-5.4,1.1-6a6.3,6.3,0,0,0-.5-2.6,5.5,5.5,0,0,0-2.4-2.6,6.5,6.5,0,0,0-3.8-1,11.8,11.8,0,0,0-8.1,3.5,35,35,0,0,0-4.3,4.9l.3-1.5h0a7.6,7.6,0,0,0,.1-1.5,6.5,6.5,0,0,0-.2-2,5.5,5.5,0,0,0-2.2-3.8,7.3,7.3,0,0,0-4.8-1.5,23.3,23.3,0,0,0-9.7,2.3,35.1,35.1,0,0,0-8.5,6.1l-1.1,1a18.6,18.6,0,0,0-.4-3.4,10.9,10.9,0,0,0-2.3-4.7,7.2,7.2,0,0,0-5.6-2.3c-2.3,0-4.3,1.2-6.1,3.5a10.5,10.5,0,0,0-.8,1.1l-.5-.7a9.8,9.8,0,0,0-2.4-2,8,8,0,0,0-3.9-.9,22.5,22.5,0,0,0-9.6,2.3,33.7,33.7,0,0,0-8.6,6.1,34.9,34.9,0,0,0-5.2,6.3.8.8,0,0,0-.1-.4A19.5,19.5,0,0,0,85.1,82c-3.6-2.6-8.3-3.8-13.9-3.8a31.1,31.1,0,0,0-10.1,1.5,23.4,23.4,0,0,0-7.5,4.1,19.6,19.6,0,0,0-5.7,7A17.1,17.1,0,0,0,46,98.5a15.1,15.1,0,0,0,1,5.3,9.5,9.5,0,0,0,3.4,4.2,19.4,19.4,0,0,0-5,12.9,17.6,17.6,0,0,0,1.2,6.6,14.8,14.8,0,0,0,3.6,4.9,17.1,17.1,0,0,0,11.3,3.8h2.8a3.4,3.4,0,0,0-1,1.6,3.4,3.4,0,0,1-.6,1.5,19.4,19.4,0,0,1-7.2,6.6h-.4a19.9,19.9,0,0,0-3.3,2.4,20.3,20.3,0,0,0-3.3,4.4,21,21,0,0,0-2,4.9,20.5,20.5,0,0,0-.6,4.9,11.3,11.3,0,0,0,1,4.9,9,9,0,0,0,3.6,3.9,10.9,10.9,0,0,0,5.8,1.4,15.3,15.3,0,0,0,5.4-.8,15.4,15.4,0,0,0,4.3-2,18.4,18.4,0,0,0,3.4-2.7l.6-.7a11.8,11.8,0,0,0,.7,2,6.8,6.8,0,0,0,2,2.4h.1a9.6,9.6,0,0,0,5.7,1.7h.2a11.6,11.6,0,0,0,5.9-1.6,18.2,18.2,0,0,0,4-3.2,10.9,10.9,0,0,0,1.3-1.7v.5a5.7,5.7,0,0,0,2.2,4.6h0c2.1,1.5,4.9,1.9,8.3.8a3.4,3.4,0,0,0,1.7-1.1.2.2,0,0,1,.2.2,7.2,7.2,0,0,0,4.7,1.5,7.4,7.4,0,0,0,4.4-1.4,13.9,13.9,0,0,0,2.9-2.6,18.9,18.9,0,0,0,2-2.7v.7a7.4,7.4,0,0,0,.5,2.5,6,6,0,0,0,2.4,2.6,7.4,7.4,0,0,0,3.8.9,8.1,8.1,0,0,0,4.5-1.3,18.5,18.5,0,0,0,3.2-2.5l2.3-3h.1c0,.3-.1.6-.1.9a5.6,5.6,0,0,0,2.3,4.7,7.4,7.4,0,0,0,4.6,1.3,12.3,12.3,0,0,0,3.6-.6,3,3,0,0,0,2.1-2l.4-.9c.2-.7.6-1.6.9-2.6h0a8.8,8.8,0,0,0,3.3.6h.2a7,7,0,0,0,4-1.2,11.4,11.4,0,0,0,2.3-2,4.3,4.3,0,0,1-.1.5,12.2,12.2,0,0,0-.3,2.2,7.8,7.8,0,0,0,.4,2.1,5.3,5.3,0,0,0,1.8,2.4h0a10.3,10.3,0,0,0,2.1,1.1,9,9,0,0,0,2.5.3,7.8,7.8,0,0,0,4.1-1.2l.4-.3.9.6a7.4,7.4,0,0,0,3.8.9,7.3,7.3,0,0,0,3.5-.9,11.5,11.5,0,0,0,2.6-1.9,22.3,22.3,0,0,0,2.1-2.2l1.1-1.6v.6a5.9,5.9,0,0,0,1.6,4.1,6.6,6.6,0,0,0,5.1,1.9,6.9,6.9,0,0,0,4.3-1.4,12.2,12.2,0,0,0,3-2.6,20.1,20.1,0,0,0,2.2-2.9l1.5-2.7a5.9,5.9,0,0,0,.8-2.6,3.3,3.3,0,0,0-2.5-3.2h-.8c.3-.9.7-1.7,1.1-2.6a46.5,46.5,0,0,1,2.2-4.7,3.1,3.1,0,0,0,.3-1.3h0a2.6,2.6,0,0,0-.7-1.9c-5.1-6.5-2.3-10.8-.6-12.5a3.5,3.5,0,0,0,.6-3.8l-.4-.7a3.4,3.4,0,0,0-2.3-1.6l.2-.2C198.5,126,199.8,123.9,200.9,121.8Z"/><path class="cls-2" d="M81.4,129.5c-2.1,2.6-9.4,7.5-14.9,8.9,0,0,96,13.6,129.9-7,0,0-26.6,14-114.1-2.4C81.9,128.9,81.7,129.2,81.4,129.5Z"/><path d="M48.6,120.9a16,16,0,0,1,2.3-8,18.3,18.3,0,0,1,6.9-6.6H56a6.2,6.2,0,0,1-3.7-1.1,6.6,6.6,0,0,1-2.3-2.9,10.2,10.2,0,0,1-.7-4,15.2,15.2,0,0,1,1.5-6.3,20.1,20.1,0,0,1,4.8-5.9,18.9,18.9,0,0,1,6.6-3.5,26.6,26.6,0,0,1,9-1.4c4.9,0,9,1.1,12.1,3.2a16.6,16.6,0,0,1,6.4,8.9,25.1,25.1,0,0,1,1.1,7.5,52.9,52.9,0,0,1-.4,5.4,18.5,18.5,0,0,1,8.7,7c-2.1-2.1-5.2-3.8-9.1-5.3a33,33,0,0,1-11.2,18.8,27.5,27.5,0,0,1-17.3,6,13.9,13.9,0,0,1-9.2-3,11.4,11.4,0,0,1-2.7-3.7A14.3,14.3,0,0,1,48.6,120.9Zm22.7-15.8c-.6,1.9-1.2,3.8-1.9,5.8l-3,7.6c-.5,1.4-1,2.6-1.3,3.6s-2.4,3.4-4.3,3.6h-.5a5.9,5.9,0,0,1-4.6-2.3c.2-.5.6-1.3,1.1-2.6l2.4-6.1L62,107a18.9,18.9,0,0,0-4.8,3.1,16.6,16.6,0,0,0-3.6,5,13.7,13.7,0,0,0-1.1,5c0,3.2.9,5.5,2.7,7a9.2,9.2,0,0,0,6.3,2.1,16.2,16.2,0,0,0,6.8-1.7,22.6,22.6,0,0,0,6.6-4.9,26,26,0,0,0,4.4-7.1,31.8,31.8,0,0,0,2.3-9.2A43.4,43.4,0,0,0,71.3,105.1Zm-8.4-.9c.5-1.7,1-3.3,1.3-4.8a23.5,23.5,0,0,0,.9-5.7v-.2c-.1-1.5-.6-2.3-1.6-2.3A8.4,8.4,0,0,1,67.7,90a4.9,4.9,0,0,1,3.4,1,5.1,5.1,0,0,1,1.6,2.5,9.3,9.3,0,0,1,.4,2.7,23.1,23.1,0,0,1-1.1,6.6v.2h.3a44.9,44.9,0,0,1,9.4,1v-1.2a34.3,34.3,0,0,0-.4-5.6,17.8,17.8,0,0,0-1.9-5.9A10.8,10.8,0,0,0,75.5,87a12.1,12.1,0,0,0-6.4-1.6,13,13,0,0,0-4.9,1A11.6,11.6,0,0,0,60.3,89a12.3,12.3,0,0,0-3.9,8.9,9.4,9.4,0,0,0,.7,3.9,9.7,9.7,0,0,0,1.4,2.5,8.4,8.4,0,0,0,1,1,.1.1,0,0,0,.1.1A16.1,16.1,0,0,1,62.9,104.2Z"/><path d="M116.3,81.4a4.1,4.1,0,0,1,2.3.6,3.6,3.6,0,0,1,1.5,1.2,4.8,4.8,0,0,1,.8,1.1,85.5,85.5,0,0,0-2.4,11.4c-.9,5.5-1.7,11.1-2.4,17A123.3,123.3,0,0,0,115,125a5.2,5.2,0,0,0,.2,1.1.7.7,0,0,0,.7.5c1.1,0,2.8-2.2,5.1-6.7a96.7,96.7,0,0,0,6.2-15.4,7.4,7.4,0,0,1-3.6-3.8,14.2,14.2,0,0,1-1.1-5.5,23.7,23.7,0,0,1,1.1-6.9,19.7,19.7,0,0,1,2.9-5.6c1.1-1.5,2.3-2.3,3.5-2.3a3.9,3.9,0,0,1,3.2,1.3,7.3,7.3,0,0,1,1.5,3.2,22.2,22.2,0,0,1,.4,3.8V89c-.1,4-1.2,9.1-3.3,15.5a18.4,18.4,0,0,0,3.3.3,24.8,24.8,0,0,0,6.9-1.1,13.9,13.9,0,0,1-7.9,2.1h-2.7a96.6,96.6,0,0,1-3.9,9.6,70.8,70.8,0,0,1-4.8,8.7,28.7,28.7,0,0,1-5.4,6.3,8.6,8.6,0,0,1-5.6,2.4,4.9,4.9,0,0,1-3.4-1,5.1,5.1,0,0,1-1.6-2.5,9.3,9.3,0,0,1-.4-2.7c0-2.7.3-6.7.8-12.2s1.2-11,2-16.5a104.6,104.6,0,0,1,2.6-12.5,9.8,9.8,0,0,0-6.5,2.7,20.9,20.9,0,0,0-5.2,6.8,16.5,16.5,0,0,0-2,7.9,13.2,13.2,0,0,0,.8,4.4,8.3,8.3,0,0,0,2.9,3.3h-.2l-1.5.7-1.9.2a5,5,0,0,1-3.3-1,5.8,5.8,0,0,1-1.8-2.5,7.1,7.1,0,0,1-.6-2.8,18,18,0,0,1,2.2-8.6,32.2,32.2,0,0,1,5.7-7.6,28.8,28.8,0,0,1,7.8-5.4A18.2,18.2,0,0,1,116.3,81.4Zm11.4,21.5A42.4,42.4,0,0,0,129.6,91a9.7,9.7,0,0,0-.2-2.5c-.1-.7-.5-1-1-1s-1.7.9-2.6,2.7a14.5,14.5,0,0,0-1.3,5.9,9.9,9.9,0,0,0,.7,3.8A6.5,6.5,0,0,0,127.7,102.9Z"/><path d="M152,88.4h0a1.4,1.4,0,0,0,.2-.6,2,2,0,0,0,.1-.7c0-.3,0-.5-.2-.6s-.3-.3-.7-.3a7.2,7.2,0,0,0-4.4,1.7,16.2,16.2,0,0,0-3.9,4.3,23.1,23.1,0,0,0-2.8,5.4,15.2,15.2,0,0,0-1.1,5.2,11.2,11.2,0,0,0,.9,4.4,8.3,8.3,0,0,0,2.9,3.3h-.2l-1.5.7-2,.2a4.9,4.9,0,0,1-3.2-1,7.9,7.9,0,0,1-2.5-5.3,18.2,18.2,0,0,1,2.3-8.6,32.2,32.2,0,0,1,5.7-7.6,28.8,28.8,0,0,1,7.8-5.4,18.2,18.2,0,0,1,8.2-2.1,4.1,4.1,0,0,1,2.7.8,2.9,2.9,0,0,1,1.1,1.9,5.9,5.9,0,0,1,.2,1.4c0,.3-.1.7-.1,1a11,11,0,0,1-.6,2.6l-.4,1c-.8,2.5-1.9,6.1-3.4,10.7s-2.7,9.3-3.9,13.9a43.2,43.2,0,0,0-1.9,10.5c0,.9.2,1.4.6,1.4s.9-3.2,1.7-5.8,1.8-5.5,3-8.7a102.5,102.5,0,0,1,4-9.9,87.9,87.9,0,0,1,4.8-9.2,33.3,33.3,0,0,1,5.5-6.9,8.6,8.6,0,0,1,5.9-2.7,4.1,4.1,0,0,1,2.1.5,2.5,2.5,0,0,1,1.1,1.2,3.5,3.5,0,0,1,.3,1.3c0,1.6-1.6,7.6-4.9,18.2s-4.8,17.5-4.8,20.6c0,.9.2,1.4.5,1.4s.9-3.1,1.7-5.5,1.7-5,2.8-8,2.4-5.9,3.8-8.9a70.1,70.1,0,0,1,4.5-8.2,27.3,27.3,0,0,1,5.1-6.2,8.1,8.1,0,0,1,5.3-2.3,4.6,4.6,0,0,1,2.3.6,2.4,2.4,0,0,1,1.2,2.2c0,2.4-1.4,8-4.1,16.8s-4.1,14.7-4.1,17.9a5.2,5.2,0,0,0,.2,1.1.7.7,0,0,0,.7.5q1.2,0,3.6-3t4.5-6.3a41.6,41.6,0,0,0,2.8-5.2,11.4,11.4,0,0,1-.9,2.9c-.6,1.6-1.5,3.3-2.5,5.3a49.6,49.6,0,0,1-3.5,5.8,21.3,21.3,0,0,1-4.1,4.7,5.9,5.9,0,0,1-4.1,1.9,4.3,4.3,0,0,1-3.7-1.7,9,9,0,0,1-1.6-4.6c0-.7-.1-1.4-.1-2.2a29.3,29.3,0,0,1,.3-4.1,60.5,60.5,0,0,1,1.3-7.2c.6-2.5,1.2-4.8,1.9-7s1.3-4.1,2-5.7a30.9,30.9,0,0,1,1.4-3.5q-1.2,0-3.3,3.9a90.2,90.2,0,0,0-4.6,9.7c-1.6,3.8-3.1,7.7-4.5,11.5s-2.4,7.2-3.2,9.9a10.2,10.2,0,0,1-4.2,1h-.1a4.9,4.9,0,0,1-4.9-3.5,17.7,17.7,0,0,1-.7-5.4c0-1.1.1-2.2.2-3.5a95.1,95.1,0,0,1,2-11q1.5-5.7,3-10.2c1-3,1.8-5.1,2.3-6.4s-2.2,2.3-4.4,6.7a163.1,163.1,0,0,0-6.6,15.6,126.9,126.9,0,0,0-5.2,16.4,10,10,0,0,1-2.6,1l-2.4.3a5,5,0,0,1-3.9-1.6,6.4,6.4,0,0,1-1.5-4.6,53.6,53.6,0,0,1,1.6-12c1-4.7,2.2-9.4,3.5-14s2.5-8.4,3.5-11.5A1.4,1.4,0,0,0,152,88.4Z"/><path class="cls-3" d="M48.6,120.9a16,16,0,0,1,2.3-8,18.3,18.3,0,0,1,6.9-6.6H56a6.2,6.2,0,0,1-3.7-1.1,6.6,6.6,0,0,1-2.3-2.9,10.2,10.2,0,0,1-.7-4,15.2,15.2,0,0,1,1.5-6.3,20.1,20.1,0,0,1,4.8-5.9,18.9,18.9,0,0,1,6.6-3.5,26.6,26.6,0,0,1,9-1.4c4.9,0,9,1.1,12.1,3.2a16.6,16.6,0,0,1,6.4,8.9,25.1,25.1,0,0,1,1.1,7.5,52.9,52.9,0,0,1-.4,5.4,18.5,18.5,0,0,1,8.7,7c-2.1-2.1-5.2-3.8-9.1-5.3a33,33,0,0,1-11.2,18.8,27.5,27.5,0,0,1-17.3,6,13.9,13.9,0,0,1-9.2-3,11.4,11.4,0,0,1-2.7-3.7A14.3,14.3,0,0,1,48.6,120.9Zm22.7-15.8c-.6,1.9-1.2,3.8-1.9,5.8l-3,7.6c-.5,1.4-1,2.6-1.3,3.6s-2.4,3.4-4.3,3.6h-.5a5.9,5.9,0,0,1-4.6-2.3c.2-.5.6-1.3,1.1-2.6l2.4-6.1L62,107a18.9,18.9,0,0,0-4.8,3.1,16.6,16.6,0,0,0-3.6,5,13.7,13.7,0,0,0-1.1,5c0,3.2.9,5.5,2.7,7a9.2,9.2,0,0,0,6.3,2.1,16.2,16.2,0,0,0,6.8-1.7,22.6,22.6,0,0,0,6.6-4.9,26,26,0,0,0,4.4-7.1,31.8,31.8,0,0,0,2.3-9.2A43.4,43.4,0,0,0,71.3,105.1Zm-8.4-.9c.5-1.7,1-3.3,1.3-4.8a23.5,23.5,0,0,0,.9-5.7v-.2c-.1-1.5-.6-2.3-1.6-2.3A8.4,8.4,0,0,1,67.7,90a4.9,4.9,0,0,1,3.4,1,5.1,5.1,0,0,1,1.6,2.5,9.3,9.3,0,0,1,.4,2.7,23.1,23.1,0,0,1-1.1,6.6v.2h.3a44.9,44.9,0,0,1,9.4,1v-1.2a34.3,34.3,0,0,0-.4-5.6,17.8,17.8,0,0,0-1.9-5.9A10.8,10.8,0,0,0,75.5,87a12.1,12.1,0,0,0-6.4-1.6,13,13,0,0,0-4.9,1A11.6,11.6,0,0,0,60.3,89a12.3,12.3,0,0,0-3.9,8.9,9.4,9.4,0,0,0,.7,3.9,9.7,9.7,0,0,0,1.4,2.5,8.4,8.4,0,0,0,1,1,.1.1,0,0,0,.1.1A16.1,16.1,0,0,1,62.9,104.2Z"/><path class="cls-3" d="M116.3,81.4a4.1,4.1,0,0,1,2.3.6,3.6,3.6,0,0,1,1.5,1.2,4.8,4.8,0,0,1,.8,1.1,85.5,85.5,0,0,0-2.4,11.4c-.9,5.5-1.7,11.1-2.4,17A123.3,123.3,0,0,0,115,125a5.2,5.2,0,0,0,.2,1.1.7.7,0,0,0,.7.5c1.1,0,2.8-2.2,5.1-6.7a96.7,96.7,0,0,0,6.2-15.4,7.4,7.4,0,0,1-3.6-3.8,14.2,14.2,0,0,1-1.1-5.5,23.7,23.7,0,0,1,1.1-6.9,19.7,19.7,0,0,1,2.9-5.6c1.1-1.5,2.3-2.3,3.5-2.3a3.9,3.9,0,0,1,3.2,1.3,7.3,7.3,0,0,1,1.5,3.2,22.2,22.2,0,0,1,.4,3.8V89c-.1,4-1.2,9.1-3.3,15.5a18.4,18.4,0,0,0,3.3.3,24.8,24.8,0,0,0,6.9-1.1,13.9,13.9,0,0,1-7.9,2.1h-2.7a96.6,96.6,0,0,1-3.9,9.6,70.8,70.8,0,0,1-4.8,8.7,28.7,28.7,0,0,1-5.4,6.3,8.6,8.6,0,0,1-5.6,2.4,4.9,4.9,0,0,1-3.4-1,5.1,5.1,0,0,1-1.6-2.5,9.3,9.3,0,0,1-.4-2.7c0-2.7.3-6.7.8-12.2s1.2-11,2-16.5a104.6,104.6,0,0,1,2.6-12.5,9.8,9.8,0,0,0-6.5,2.7,20.9,20.9,0,0,0-5.2,6.8,16.5,16.5,0,0,0-2,7.9,13.2,13.2,0,0,0,.8,4.4,8.3,8.3,0,0,0,2.9,3.3h-.2l-1.5.7-1.9.2a5,5,0,0,1-3.3-1,5.8,5.8,0,0,1-1.8-2.5,7.1,7.1,0,0,1-.6-2.8,18,18,0,0,1,2.2-8.6,32.2,32.2,0,0,1,5.7-7.6,28.8,28.8,0,0,1,7.8-5.4A18.2,18.2,0,0,1,116.3,81.4Zm11.4,21.5A42.4,42.4,0,0,0,129.6,91a9.7,9.7,0,0,0-.2-2.5c-.1-.7-.5-1-1-1s-1.7.9-2.6,2.7a14.5,14.5,0,0,0-1.3,5.9,9.9,9.9,0,0,0,.7,3.8A6.5,6.5,0,0,0,127.7,102.9Z"/><path class="cls-3" d="M152,88.4h0a1.4,1.4,0,0,0,.2-.6,2,2,0,0,0,.1-.7c0-.3,0-.5-.2-.6s-.3-.3-.7-.3a7.2,7.2,0,0,0-4.4,1.7,16.2,16.2,0,0,0-3.9,4.3,23.1,23.1,0,0,0-2.8,5.4,15.2,15.2,0,0,0-1.1,5.2,11.2,11.2,0,0,0,.9,4.4,8.3,8.3,0,0,0,2.9,3.3h-.2l-1.5.7-2,.2a4.9,4.9,0,0,1-3.2-1,7.9,7.9,0,0,1-2.5-5.3,18.2,18.2,0,0,1,2.3-8.6,32.2,32.2,0,0,1,5.7-7.6,28.8,28.8,0,0,1,7.8-5.4,18.2,18.2,0,0,1,8.2-2.1,4.1,4.1,0,0,1,2.7.8,2.9,2.9,0,0,1,1.1,1.9,5.9,5.9,0,0,1,.2,1.4c0,.3-.1.7-.1,1a11,11,0,0,1-.6,2.6l-.4,1c-.8,2.5-1.9,6.1-3.4,10.7s-2.7,9.3-3.9,13.9a43.2,43.2,0,0,0-1.9,10.5c0,.9.2,1.4.6,1.4s.9-3.2,1.7-5.8,1.8-5.5,3-8.7a102.5,102.5,0,0,1,4-9.9,87.9,87.9,0,0,1,4.8-9.2,33.3,33.3,0,0,1,5.5-6.9,8.6,8.6,0,0,1,5.9-2.7,4.1,4.1,0,0,1,2.1.5,2.5,2.5,0,0,1,1.1,1.2,3.5,3.5,0,0,1,.3,1.3c0,1.6-1.6,7.6-4.9,18.2s-4.8,17.5-4.8,20.6c0,.9.2,1.4.5,1.4s.9-3.1,1.7-5.5,1.7-5,2.8-8,2.4-5.9,3.8-8.9a70.1,70.1,0,0,1,4.5-8.2,27.3,27.3,0,0,1,5.1-6.2,8.1,8.1,0,0,1,5.3-2.3,4.6,4.6,0,0,1,2.3.6,2.4,2.4,0,0,1,1.2,2.2c0,2.4-1.4,8-4.1,16.8s-4.1,14.7-4.1,17.9a5.2,5.2,0,0,0,.2,1.1.7.7,0,0,0,.7.5q1.2,0,3.6-3t4.5-6.3a41.6,41.6,0,0,0,2.8-5.2,11.4,11.4,0,0,1-.9,2.9c-.6,1.6-1.5,3.3-2.5,5.3a49.6,49.6,0,0,1-3.5,5.8,21.3,21.3,0,0,1-4.1,4.7,5.9,5.9,0,0,1-4.1,1.9,4.3,4.3,0,0,1-3.7-1.7,9,9,0,0,1-1.6-4.6c0-.7-.1-1.4-.1-2.2a29.3,29.3,0,0,1,.3-4.1,60.5,60.5,0,0,1,1.3-7.2c.6-2.5,1.2-4.8,1.9-7s1.3-4.1,2-5.7a30.9,30.9,0,0,1,1.4-3.5q-1.2,0-3.3,3.9a90.2,90.2,0,0,0-4.6,9.7c-1.6,3.8-3.1,7.7-4.5,11.5s-2.4,7.2-3.2,9.9a10.2,10.2,0,0,1-4.2,1h-.1a4.9,4.9,0,0,1-4.9-3.5,17.7,17.7,0,0,1-.7-5.4c0-1.1.1-2.2.2-3.5a95.1,95.1,0,0,1,2-11q1.5-5.7,3-10.2c1-3,1.8-5.1,2.3-6.4s-2.2,2.3-4.4,6.7a163.1,163.1,0,0,0-6.6,15.6,126.9,126.9,0,0,0-5.2,16.4,10,10,0,0,1-2.6,1l-2.4.3a5,5,0,0,1-3.9-1.6,6.4,6.4,0,0,1-1.5-4.6,53.6,53.6,0,0,1,1.6-12c1-4.7,2.2-9.4,3.5-14s2.5-8.4,3.5-11.5A1.4,1.4,0,0,0,152,88.4Z"/><path d="M67.6,155.1a5.4,5.4,0,0,1-2.4.5h-.5a9.2,9.2,0,0,1-2.9-.4,3.8,3.8,0,0,0,1.1-1.1,6.4,6.4,0,0,0,1.1-1.6,5.8,5.8,0,0,0,.6-1.7c0-.2.1-.5.1-.7a1.9,1.9,0,0,0-.2-.7,1,1,0,0,0-1-.5,5.1,5.1,0,0,0-3.2,1.2,12.4,12.4,0,0,0-2.7,3.2,21.7,21.7,0,0,0-1.9,4.4,18.9,18.9,0,0,0-.6,4.7,5.9,5.9,0,0,0,.4,2.3,4.6,4.6,0,0,0,1.3,1.8,4.3,4.3,0,0,0,2.4.6,11.3,11.3,0,0,0,3.2-.5,13.2,13.2,0,0,0,2.9-1.5,17,17,0,0,0,2.4-2.2,15.1,15.1,0,0,0,2.1-2.3,6,6,0,0,1-.9,2.1,13.3,13.3,0,0,1-1.9,2.4,15.2,15.2,0,0,1-2.7,2.2,14.6,14.6,0,0,1-3.6,1.6,12.3,12.3,0,0,1-4.4.7,7.3,7.3,0,0,1-4.1-1,5.1,5.1,0,0,1-2.3-2.5,7.8,7.8,0,0,1-.8-3.5,15.1,15.1,0,0,1,.6-4.1,18.5,18.5,0,0,1,1.7-4.2,15.4,15.4,0,0,1,2.7-3.6,13.9,13.9,0,0,1,3.8-2.5,11.3,11.3,0,0,1,4.9-1,9,9,0,0,1,3.6.6,3.8,3.8,0,0,1,2,1.4,3.9,3.9,0,0,1,.6,1.9h0a7.1,7.1,0,0,1-.4,2A11.4,11.4,0,0,1,67.6,155.1Z"/><path d="M86.5,159.1a3.1,3.1,0,0,1-.7,2,6.5,6.5,0,0,1-1.8,1.5,5.7,5.7,0,0,1-2.9.7,2.8,2.8,0,0,1-1.8-.6,7.2,7.2,0,0,0-.5,2.3,3.3,3.3,0,0,0,.3,1.5,1.8,1.8,0,0,0,1.5.7,6.7,6.7,0,0,0,2.8-.6,10.7,10.7,0,0,0,2.2-1.5,9.1,9.1,0,0,0,1.7-1.7,19.8,19.8,0,0,0,1.9-2.8,8.1,8.1,0,0,1-1.4,3.1,14.6,14.6,0,0,1-1.6,2.1,13.5,13.5,0,0,1-3.2,2.6,10.6,10.6,0,0,1-4.3,1.2h-.2a6.4,6.4,0,0,1-3.8-1.2,2.8,2.8,0,0,1-1.1-1.3,3.4,3.4,0,0,1-.4-1.8,12,12,0,0,1,.8-3.5,10.6,10.6,0,0,1,1.8-3.3,7.9,7.9,0,0,1,1.7-1.4,7.1,7.1,0,0,1,3.8-1,8.3,8.3,0,0,1,3.2.6,5.6,5.6,0,0,1,1.5,1A2.4,2.4,0,0,1,86.5,159.1Zm-3.2-.9h0c0-.4-.1-.6-.4-.6a1.1,1.1,0,0,0-.8.3,3.2,3.2,0,0,0-.9.8,10.6,10.6,0,0,0-1.1,1.9c-.2.5-.5,1.1-.7,1.7l.9.2a2.1,2.1,0,0,0,1.5-.7,4,4,0,0,0,1-1.5A4.8,4.8,0,0,0,83.3,158.2Z"/><path d="M106.1,159.2a7.8,7.8,0,0,0-2.5,2.4l-1,1.5-1.4,2.4a27.4,27.4,0,0,0-1.7,3.6,9.7,9.7,0,0,1-2.7.5,4.3,4.3,0,0,1-2.7-.8,2.3,2.3,0,0,1-.9-2,19,19,0,0,1,.8-4.3,26.1,26.1,0,0,1,2.4-5.4c.5-.6,1.7-.9,3.5-1a5.4,5.4,0,0,1,2.4.5,14.7,14.7,0,0,0-2.6,4.6,13,13,0,0,0-1.4,4.7c0,.7.2,1,.4,1l1.1-2.2a24.3,24.3,0,0,1,1.7-3,17.1,17.1,0,0,1,2.1-2.6,13.2,13.2,0,0,1,2.6-2.2,6.8,6.8,0,0,1,3.1-.8,4.7,4.7,0,0,1,1.7.3,1.3,1.3,0,0,1,.8,1.3,8.3,8.3,0,0,1-.9,2.5,16.9,16.9,0,0,0-1.8,6c.1.5.2.7.6.7s.8-.3,1.4-.8l1.8-1.8,1.6-2.1c.5-.7.8-1.3,1-1.6a3,3,0,0,1-.5,1.3,20.2,20.2,0,0,1-1.3,2.3,13.8,13.8,0,0,1-1.9,2.5,8.7,8.7,0,0,1-2.3,2,4,4,0,0,1-2.5.9,4.2,4.2,0,0,1-2.6-.8,2.8,2.8,0,0,1-.8-2C103.6,165.1,104.4,162.6,106.1,159.2Z"/><path d="M123.6,154.3l.3-.6c1-2.5,1.8-4.2,2.3-5.2a10,10,0,0,1,3.4-.5H131a1.9,1.9,0,0,1,.9.4c-.7,1.3-1.6,3.2-2.6,5.6l-.2.4a20.2,20.2,0,0,0,3.6-.3,2.5,2.5,0,0,1-1.9,1l-2.2.4-2.2,5.7a20.8,20.8,0,0,0-1.3,4.9c0,.2.1.3.1.5a.6.6,0,0,0,.5.2,2.9,2.9,0,0,0,1.7-.8,16.2,16.2,0,0,0,2-1.8l1.6-2.1,1.1-1.6a5.8,5.8,0,0,1-.5,1.3,11,11,0,0,1-1.3,2.3,24.3,24.3,0,0,1-2,2.5,16.4,16.4,0,0,1-2.5,2.1,5.7,5.7,0,0,1-2.8.8,4.5,4.5,0,0,1-2.2-.5,2.6,2.6,0,0,1-1-1.1,2.7,2.7,0,0,1-.3-1.2,20.9,20.9,0,0,1,1.4-5.4l2-5.3H122a1.1,1.1,0,0,1-.7-.9.8.8,0,0,1-.1-.4,2.4,2.4,0,0,1,.2-.8Z"/><path d="M142.6,169.1a9.7,9.7,0,0,1-2.7.5h-.1a5,5,0,0,1-2.6-.7,2.6,2.6,0,0,1-.9-2.1,19,19,0,0,1,.8-4.3,26.1,26.1,0,0,1,2.4-5.4,4.3,4.3,0,0,1,2.7-.9h.8a5.4,5.4,0,0,1,2.4.5,12.8,12.8,0,0,0-1.5,2.6c-.6,1.3-1.1,2.6-1.6,4a9.8,9.8,0,0,0-.7,3.1h0c0,.3.1.5.2.5a9.8,9.8,0,0,0,.6-1.4c.2-.7.5-1.4.8-2.3l1.2-2.5,1.6-2.4a6.8,6.8,0,0,1,2.1-1.7,4.6,4.6,0,0,1,2.6-.7,4.7,4.7,0,0,1,1.7.4,1.4,1.4,0,0,1,.8,1.3,2.2,2.2,0,0,1-.3,1l-.6,1.3-.6,1.3a5.2,5.2,0,0,0-.2,1.1c0,.4.1.6.4.6a1.7,1.7,0,0,0,1.1-.5l1.2-1,.7-.8a2.8,2.8,0,0,1-.6,1.3,11.7,11.7,0,0,1-1.6,1.5,4.8,4.8,0,0,1-2.4.6h-.1a4.6,4.6,0,0,1-2.1-.4,1.4,1.4,0,0,1-.9-1.3,6.7,6.7,0,0,1,.5-1.9,8.8,8.8,0,0,1,1.7-2.6,2.7,2.7,0,0,0-1.7.8,11.3,11.3,0,0,0-1.5,2.1,21.5,21.5,0,0,0-1.4,2.6c-.4.9-.8,1.8-1.1,2.7l-.8,2.2A4.6,4.6,0,0,1,142.6,169.1Z"/><path d="M174.4,166.2c0,.2.1.3.1.5a.6.6,0,0,0,.5.2,1.6,1.6,0,0,0,1-.4,6.8,6.8,0,0,0,1.2-1.2,27.5,27.5,0,0,0,2.2-2.6l1.4-2.1a8.4,8.4,0,0,1-.8,1.9,22.1,22.1,0,0,1-2.1,3.3,15.4,15.4,0,0,1-1.7,1.9,8,8,0,0,1-1.9,1.3,3.6,3.6,0,0,1-2,.6,4.1,4.1,0,0,1-2.1-.5,2.9,2.9,0,0,1-1.1-1.1,2.5,2.5,0,0,1-.2-1.2,9.6,9.6,0,0,1,.3-2.2c-.4.7-.9,1.4-1.4,2.1a9.5,9.5,0,0,1-2.4,2.1,4,4,0,0,1-2.3.8l-1.5-.2-1-.5a2.6,2.6,0,0,1-.8-1.1,4.4,4.4,0,0,1-.2-1c0-.3.1-.9.2-1.6a14,14,0,0,1,.6-2.4,13,13,0,0,1,1.4-3.2,7.5,7.5,0,0,1,1.9-2.4,5.7,5.7,0,0,1,1.3-.8,3.3,3.3,0,0,1,1.5-.3,9.2,9.2,0,0,1,2.8.5,9.9,9.9,0,0,1,2.3,1.3c.1,0,.1-.1.1-.2l.2-.3a1.9,1.9,0,0,1,1.4-1,8.8,8.8,0,0,1,2.4-.3l1.3.2a1.9,1.9,0,0,1,.9.3l-.9,1.8c-.4.8-.8,1.8-1.2,2.7a26.3,26.3,0,0,0-1,3A9.5,9.5,0,0,0,174.4,166.2Zm-3.2-7.4a3.1,3.1,0,0,0-2-1.1,1.7,1.7,0,0,0-1.4,1,8.6,8.6,0,0,0-1.4,2.7c-.3.8-.5,1.5-.7,2.2a20.1,20.1,0,0,0-.5,2.5.7.7,0,0,0,.1.5c.1.2.2.3.4.3a1.7,1.7,0,0,0,1.1-.6,13.2,13.2,0,0,0,1.2-1.6,27.5,27.5,0,0,0,1.7-2.9A20,20,0,0,0,171.2,158.8Z"/><path d="M191.5,148.5a10,10,0,0,1,3.4-.5h1.4a1.9,1.9,0,0,1,.9.4,50.4,50.4,0,0,0-2.3,4.9c-1.1,2.4-2.1,4.9-3,7.4a17.8,17.8,0,0,0-1.5,5.4c.1.5.2.7.6.7s.8-.3,1.4-.8l1.8-1.8,1.6-2.1,1-1.6a5.8,5.8,0,0,1-.5,1.3,20.2,20.2,0,0,1-1.3,2.3,19.5,19.5,0,0,1-1.8,2.5,11.1,11.1,0,0,1-2.4,2,4,4,0,0,1-2.5.9,3.3,3.3,0,0,1-2.7-1,2.5,2.5,0,0,1-.8-1.8,20.1,20.1,0,0,1,1.4-5.6c.9-2.6,1.9-5.1,2.9-7.5Z"/></svg>