<svg width="1240" height="510" viewBox="0 0 1240 510" fill="none" xmlns="http://www.w3.org/2000/svg">
<g clipPath="url(#clip0_765_388)">
<g opacity="0.3">
<mask id="mask0_765_388" style="mask-type:luminance" maskUnits="userSpaceOnUse" x="632" y="179" width="77" height="78">
<path d="M680.391 179.999L632 207.938L659.939 256.329L708.33 228.39L680.391 179.999Z" fill="white"/>
</mask>
<g mask="url(#mask0_765_388)">
<path d="M655.187 227.148C653.775 227.962 652.301 228.164 650.764 227.752C649.227 227.34 648.051 226.428 647.236 225.017C646.421 223.606 646.219 222.131 646.631 220.594C647.043 219.057 647.955 217.881 649.366 217.066C650.778 216.251 652.252 216.05 653.789 216.462C655.326 216.873 656.502 217.785 657.317 219.197C658.132 220.608 658.334 222.082 657.922 223.619C657.51 225.157 656.598 226.333 655.187 227.148ZM659.604 213.844C658.192 214.659 656.718 214.86 655.181 214.448C653.643 214.036 652.467 213.125 651.653 211.713C650.838 210.302 650.636 208.828 651.048 207.29C651.46 205.753 652.372 204.577 653.783 203.762C655.194 202.947 656.669 202.746 658.206 203.158C659.743 203.57 660.919 204.481 661.734 205.893C662.549 207.304 662.75 208.779 662.339 210.316C661.927 211.853 661.015 213.029 659.604 213.844ZM671.701 206.859C670.29 207.674 668.816 207.876 667.278 207.464C665.741 207.052 664.565 206.14 663.75 204.729C662.935 203.317 662.734 201.843 663.146 200.306C663.558 198.769 664.469 197.593 665.881 196.778C667.292 195.963 668.767 195.761 670.304 196.173C671.841 196.585 673.017 197.497 673.832 198.908C674.647 200.32 674.848 201.794 674.436 203.331C674.024 204.868 673.113 206.044 671.701 206.859ZM685.431 209.686C684.02 210.501 682.545 210.702 681.008 210.29C679.471 209.878 678.295 208.967 677.48 207.555C676.665 206.144 676.464 204.67 676.876 203.133C677.288 201.595 678.199 200.419 679.611 199.604C681.022 198.79 682.496 198.588 684.034 199C685.571 199.412 686.747 200.323 687.562 201.735C688.377 203.146 688.578 204.621 688.166 206.158C687.754 207.695 686.843 208.871 685.431 209.686ZM671.163 244.808C669.651 245.681 668.047 245.833 666.351 245.265C664.656 244.698 663.354 243.625 662.445 242.047C661.436 240.3 661.15 238.426 661.587 236.427C662.024 234.427 662.461 232.449 662.899 230.494C663.272 228.89 663.457 227.271 663.455 225.637C663.453 224.004 663.629 222.368 663.982 220.728C664.216 219.428 664.656 218.21 665.301 217.077C665.946 215.943 666.839 215.045 667.981 214.384C669.123 213.724 670.337 213.382 671.622 213.357C672.907 213.332 674.171 213.543 675.415 213.99C676.977 214.522 678.478 215.201 679.919 216.027C681.36 216.853 682.878 217.523 684.472 218.036C686.385 218.634 688.317 219.244 690.266 219.866C692.215 220.488 693.694 221.673 694.704 223.42C695.616 224.999 695.894 226.665 695.539 228.417C695.183 230.169 694.249 231.481 692.737 232.352C690.923 233.399 689.037 234.286 687.082 235.012C685.126 235.738 683.241 236.625 681.426 237.672C679.612 238.72 677.901 239.909 676.294 241.24C674.688 242.571 672.977 243.76 671.163 244.808Z" fill="#C196D5"/>
</g>
</g>
<g opacity="0.3">
<mask id="mask1_765_388" style="mask-type:luminance" maskUnits="userSpaceOnUse" x="48" y="42" width="61" height="61">
<path d="M86.304 42.0004L48 64.1152L70.1148 102.419L108.419 80.3044L86.304 42.0004Z" fill="white"/>
</mask>
<g mask="url(#mask1_765_388)">
<path d="M66.3543 79.3201C65.2371 79.9651 64.0701 80.1246 62.8533 79.7986C61.6365 79.4726 60.7057 78.751 60.0606 77.6338C59.4156 76.5166 59.2561 75.3496 59.5822 74.1328C59.9082 72.916 60.6298 71.9851 61.747 71.3401C62.8642 70.6951 64.0312 70.5356 65.248 70.8617C66.4647 71.1877 67.3956 71.9093 68.0406 73.0265C68.6856 74.1437 68.8451 75.3107 68.5191 76.5275C68.1931 77.7442 67.4715 78.6751 66.3543 79.3201ZM69.8505 68.7896C68.7333 69.4346 67.5663 69.5941 66.3495 69.2681C65.1327 68.9421 64.2018 68.2204 63.5568 67.1032C62.9118 65.986 62.7523 64.8191 63.0784 63.6023C63.4044 62.3855 64.126 61.4546 65.2432 60.8096C66.3604 60.1646 67.5274 60.0051 68.7442 60.3311C69.9609 60.6572 70.8918 61.3788 71.5368 62.496C72.1818 63.6132 72.3413 64.7802 72.0153 65.9969C71.6893 67.2137 70.9677 68.1446 69.8505 68.7896ZM79.4264 63.2609C78.3092 63.9059 77.1423 64.0654 75.9255 63.7394C74.7087 63.4133 73.7778 62.6917 73.1328 61.5745C72.4878 60.4573 72.3283 59.2904 72.6543 58.0736C72.9804 56.8568 73.702 55.9259 74.8192 55.2809C75.9364 54.6359 77.1034 54.4764 78.3201 54.8024C79.5369 55.1285 80.4678 55.8501 81.1128 56.9673C81.7578 58.0845 81.9173 59.2515 81.5913 60.4682C81.2653 61.685 80.5436 62.6159 79.4264 63.2609ZM90.2942 65.4984C89.177 66.1434 88.0101 66.3029 86.7933 65.9768C85.5765 65.6508 84.6456 64.9292 84.0006 63.812C83.3556 62.6948 83.1961 61.5278 83.5221 60.3111C83.8482 59.0943 84.5698 58.1634 85.687 57.5184C86.8042 56.8734 87.9712 56.7139 89.1879 57.0399C90.4047 57.3659 91.3356 58.0876 91.9806 59.2048C92.6256 60.3219 92.7851 61.4889 92.4591 62.7057C92.1331 63.9225 91.4114 64.8534 90.2942 65.4984ZM79.0002 93.299C77.8032 93.9901 76.5337 94.1109 75.1917 93.6613C73.8497 93.2118 72.819 92.3627 72.0995 91.114C71.3009 89.7308 71.0745 88.2478 71.4204 86.6649C71.7663 85.082 72.1124 83.5167 72.4588 81.969C72.7541 80.699 72.9009 79.4176 72.8993 78.1247C72.8977 76.8319 73.0365 75.5366 73.3159 74.239C73.5018 73.2095 73.8499 72.246 74.3602 71.3484C74.8705 70.4509 75.5776 69.7405 76.4814 69.2173C77.3857 68.6951 78.3465 68.4241 79.3636 68.4044C80.3807 68.3846 81.3816 68.5516 82.366 68.9053C83.6023 69.3265 84.7907 69.864 85.9314 70.5177C87.0721 71.1714 88.2733 71.7014 89.535 72.1079C91.0496 72.5812 92.5783 73.0641 94.121 73.5566C95.6637 74.0491 96.8349 74.9867 97.6345 76.3692C98.3563 77.6194 98.5764 78.938 98.2947 80.325C98.013 81.7119 97.2739 82.7501 96.0773 83.4395C94.6409 84.2688 93.1487 84.9707 91.6007 85.5453C90.0527 86.1198 88.5605 86.8217 87.1241 87.651C85.6877 88.4803 84.3337 89.4217 83.0621 90.475C81.7905 91.5284 80.4366 92.4697 79.0002 93.299Z" fill="#C196D5"/>
</g>
</g>
<g opacity="0.3">
<mask id="mask2_765_388" style="mask-type:luminance" maskUnits="userSpaceOnUse" x="620" y="420" width="61" height="61">
<path d="M658.304 420L620 442.115L642.115 480.419L680.419 458.304L658.304 420Z" fill="white"/>
</mask>
<g mask="url(#mask2_765_388)">
<path d="M638.354 457.32C637.237 457.965 636.07 458.125 634.853 457.799C633.637 457.473 632.706 456.751 632.061 455.634C631.416 454.517 631.256 453.35 631.582 452.133C631.908 450.916 632.63 449.985 633.747 449.34C634.864 448.695 636.031 448.536 637.248 448.862C638.465 449.188 639.396 449.909 640.041 451.027C640.686 452.144 640.845 453.311 640.519 454.527C640.193 455.744 639.472 456.675 638.354 457.32ZM641.851 446.79C640.733 447.435 639.566 447.594 638.35 447.268C637.133 446.942 636.202 446.22 635.557 445.103C634.912 443.986 634.752 442.819 635.078 441.602C635.404 440.386 636.126 439.455 637.243 438.81C638.36 438.165 639.527 438.005 640.744 438.331C641.961 438.657 642.892 439.379 643.537 440.496C644.182 441.613 644.341 442.78 644.015 443.997C643.689 445.214 642.968 446.145 641.851 446.79ZM651.426 441.261C650.309 441.906 649.142 442.065 647.926 441.739C646.709 441.413 645.778 440.692 645.133 439.575C644.488 438.457 644.328 437.29 644.654 436.074C644.98 434.857 645.702 433.926 646.819 433.281C647.936 432.636 649.103 432.476 650.32 432.802C651.537 433.128 652.468 433.85 653.113 434.967C653.758 436.084 653.917 437.251 653.591 438.468C653.265 439.685 652.544 440.616 651.426 441.261ZM662.294 443.498C661.177 444.143 660.01 444.303 658.793 443.977C657.577 443.651 656.646 442.929 656.001 441.812C655.356 440.695 655.196 439.528 655.522 438.311C655.848 437.094 656.57 436.163 657.687 435.518C658.804 434.873 659.971 434.714 661.188 435.04C662.405 435.366 663.336 436.088 663.981 437.205C664.626 438.322 664.785 439.489 664.459 440.706C664.133 441.922 663.411 442.853 662.294 443.498ZM651 471.299C649.803 471.99 648.534 472.111 647.192 471.661C645.85 471.212 644.819 470.363 644.1 469.114C643.301 467.731 643.075 466.248 643.42 464.665C643.766 463.082 644.112 461.517 644.459 459.969C644.754 458.699 644.901 457.418 644.899 456.125C644.898 454.832 645.037 453.537 645.316 452.239C645.502 451.21 645.85 450.246 646.36 449.348C646.871 448.451 647.578 447.74 648.481 447.217C649.386 446.695 650.347 446.424 651.364 446.404C652.381 446.385 653.382 446.552 654.366 446.905C655.602 447.327 656.791 447.864 657.931 448.518C659.072 449.171 660.273 449.701 661.535 450.108C663.05 450.581 664.578 451.064 666.121 451.557C667.664 452.049 668.835 452.987 669.635 454.369C670.356 455.619 670.576 456.938 670.295 458.325C670.013 459.712 669.274 460.75 668.077 461.439C666.641 462.269 665.149 462.971 663.601 463.545C662.053 464.12 660.561 464.822 659.124 465.651C657.688 466.48 656.334 467.422 655.062 468.475C653.791 469.528 652.437 470.47 651 471.299Z" fill="#C196D5"/>
</g>
</g>
<path opacity="0.3" d="M112.686 442.148C112.686 438.934 111.41 435.852 109.137 433.579C106.864 431.306 103.781 430.029 100.567 430.029C97.3532 430.029 94.2707 431.306 91.9979 433.579C89.7251 435.852 88.4482 438.934 88.4482 442.148C88.4617 445.357 89.7474 448.43 92.0233 450.692L66.6943 476.021C64.432 473.745 61.3594 472.46 58.1504 472.446C54.9362 472.446 51.8536 473.723 49.5809 475.996C47.3081 478.269 46.0312 481.351 46.0312 484.565C46.0312 487.78 47.3081 490.862 49.5809 493.135C51.8536 495.408 54.9362 496.684 58.1504 496.684C58.1504 499.899 59.4273 502.981 61.7001 505.254C63.9729 507.527 67.0554 508.804 70.2696 508.804C73.4838 508.804 76.5662 507.527 78.839 505.254C81.1118 502.981 82.3887 499.899 82.3887 496.684C82.3752 493.475 81.0894 490.403 78.8135 488.14L104.142 462.812C106.405 465.087 109.477 466.373 112.686 466.387C115.901 466.387 118.983 465.11 121.256 462.837C123.529 460.564 124.806 457.482 124.806 454.268C124.806 451.053 123.529 447.971 121.256 445.698C118.983 443.425 115.901 442.148 112.686 442.148Z" stroke="#C196D5" strokeWidth="2.9003" strokeLinecap="round" strokeLinejoin="round"/>
<path opacity="0.3" d="M1218.69 122.148C1218.69 118.934 1217.41 115.852 1215.14 113.579C1212.86 111.306 1209.78 110.029 1206.57 110.029C1203.35 110.029 1200.27 111.306 1198 113.579C1195.73 115.852 1194.45 118.934 1194.45 122.148C1194.46 125.357 1195.75 128.43 1198.02 130.692L1172.69 156.021C1170.43 153.745 1167.36 152.46 1164.15 152.446C1160.94 152.446 1157.85 153.723 1155.58 155.996C1153.31 158.269 1152.03 161.351 1152.03 164.565C1152.03 167.78 1153.31 170.862 1155.58 173.135C1157.85 175.408 1160.94 176.684 1164.15 176.684C1164.15 179.899 1165.43 182.981 1167.7 185.254C1169.97 187.527 1173.06 188.804 1176.27 188.804C1179.48 188.804 1182.57 187.527 1184.84 185.254C1187.11 182.981 1188.39 179.899 1188.39 176.684C1188.38 173.475 1187.09 170.403 1184.81 168.14L1210.14 142.812C1212.4 145.087 1215.48 146.373 1218.69 146.387C1221.9 146.387 1224.98 145.11 1227.26 142.837C1229.53 140.564 1230.81 137.482 1230.81 134.268C1230.81 131.053 1229.53 127.971 1227.26 125.698C1224.98 123.425 1221.9 122.148 1218.69 122.148Z" stroke="#C196D5" strokeWidth="2.9003" strokeLinecap="round" strokeLinejoin="round"/>
</g>
<defs>
<clipPath id="clip0_765_388">
<rect width="1240" height="510" fill="white"/>
</clipPath>
</defs>
</svg>
