<svg xmlns="http://www.w3.org/2000/svg" xmlns:xlink="http://www.w3.org/1999/xlink" width="38.104" height="31.263" viewBox="0 0 38.104 31.263">
  <defs>
    <radialGradient id="radial-gradient" cx="-0.057" cy="0" r="2.226" gradientTransform="matrix(0.984, 0.179, 0.095, -0.521, -0.001, 0.01)" gradientUnits="objectBoundingBox">
      <stop offset="0" stop-color="#bf2ed1"/>
      <stop offset="0.226" stop-color="#ab45db"/>
      <stop offset="0.456" stop-color="#9f53e1"/>
      <stop offset="0.648" stop-color="#9162e7"/>
      <stop offset="0.833" stop-color="#8571ed"/>
      <stop offset="1" stop-color="#7286f5"/>
    </radialGradient>
  </defs>
  <g id="Group_164" data-name="Group 164" transform="translate(2057.843 -81.461)">
    <path id="Path_95" data-name="Path 95" d="M-2036.238,140.911a2.142,2.142,0,0,1-1.026-.269c-.446-.245-.883-.5-1.305-.746l-.433-.252-.414.261c-.368.233-.716.453-1.08.659a2.171,2.171,0,0,1-1.075.3,1.988,1.988,0,0,1-1.723-1.042c-.2-.334-.377-.685-.552-1.024q-.094-.182-.189-.365l-.2.011c-.124.007-.251.015-.382.015a1.992,1.992,0,0,1-.515-.058,1.892,1.892,0,0,1-1.01-.662,10.992,10.992,0,0,1-.751-1.276c-.084-.16-.172-.325-.26-.485h-.187a1.741,1.741,0,0,1-1.379-.55A3.966,3.966,0,0,1-2049.87,133c-1.026-.233-1.433-1.114-1.793-1.9l-.081-.174a2.406,2.406,0,0,1-.1-1.217c.019-.191,0-.2-.106-.256-.218-.114-.432-.24-.638-.361-.141-.083-.281-.166-.424-.246-.049-.027-.1-.058-.145-.088a.714.714,0,0,0-.345-.148.367.367,0,0,0-.188.061.376.376,0,0,1-.2.049,1.053,1.053,0,0,1-.464-.141c-.509-.286-1.022-.584-1.519-.873q-.5-.289-1-.577a.9.9,0,0,1-.477-.843q0-2.7,0-5.4,0-3.141,0-6.282a.8.8,0,0,1,.768-.907,1.04,1.04,0,0,1,.51.146c.839.473,1.691.97,2.423,1.4a.749.749,0,0,1,.354,1.038.664.664,0,0,1-.6.362,1.024,1.024,0,0,1-.5-.149c-.4-.23-.806-.462-1.227-.706l-.267-.154v2.117c0,2.629,0,5.348-.007,8.022a.327.327,0,0,0,.21.357c.4.218.795.446,1.208.689l.342.2,4.482-7.778-1.035-.6-.133.229c-.168.289-.333.573-.5.857l-.522.908c-.374.651-.76,1.323-1.146,1.982a.76.76,0,0,1-.652.424.738.738,0,0,1-.362-.1.733.733,0,0,1-.258-1.03c.033-.066.07-.13.106-.193l2.08-3.61c.038-.066.074-.132.113-.2l-.036-.025a.737.737,0,0,1-.306-1.047.675.675,0,0,1,.589-.338.989.989,0,0,1,.484.141c.324.183.651.373.968.557l.43.25c.132.076.264.151.4.226.332.188.675.382,1,.594a1.025,1.025,0,0,1,.437.575.423.423,0,0,0,.243.326c.472.265.947.541,1.407.807q.446.259.893.516a5.29,5.29,0,0,0,.525.263,2.1,2.1,0,0,0,.838.2,1.485,1.485,0,0,0,.859-.289c.6-.41,1.237-.765,1.857-1.109.241-.134.482-.267.72-.4a3.918,3.918,0,0,1,1.956-.557,3.932,3.932,0,0,1,1.946.549c.491.278.988.567,1.468.845l.83.48a2.381,2.381,0,0,0,1.191.344,2.345,2.345,0,0,0,1.144-.318c.872-.485,1.731-.992,2.382-1.38a.576.576,0,0,0,.057-.1,1.163,1.163,0,0,1,.072-.132c.034-.051.066-.111.1-.174a1.049,1.049,0,0,1,.351-.439c2.435-1.431,4.921-2.866,7.326-4.255l.3-.172a.974.974,0,0,1,.49-.155,1.016,1.016,0,0,1,.755.475l.042.052v13.207l-.033.049a.984.984,0,0,1-.746.519,1.029,1.029,0,0,1-.657-.31l-.351.2c-.382.22-.778.447-1.165.674a.99.99,0,0,1-.508.153.905.905,0,0,1-.425-.111.174.174,0,0,0-.068-.012.116.116,0,0,0-.037,0c-.417.231-.838.477-1.246.715l-.252.147.045.129a3.56,3.56,0,0,1,.176.613,3.282,3.282,0,0,1-2.139,3.109,2.692,2.692,0,0,1-.44,1.3c-.041.075-.082.151-.122.228a2.167,2.167,0,0,1-1.957,1.356l-.086,0c-.064.134-.126.265-.188.4-.175.37-.34.719-.529,1.064a2,2,0,0,1-1.772,1.138,2.345,2.345,0,0,1-1.065-.273c-.059.115-.117.23-.175.345-.187.373-.381.758-.605,1.118A1.94,1.94,0,0,1-2036.238,140.911Zm-4.8-5.534a2.5,2.5,0,0,1,2.656,2.843.247.247,0,0,0,.08.132c.535.327,1.106.659,1.7.988a.763.763,0,0,0,.364.111.6.6,0,0,0,.5-.36c.115-.194.224-.4.33-.6l.031-.057a.616.616,0,0,0-.271-.977c-.153-.09-.306-.178-.46-.266-.258-.147-.524-.3-.782-.46a.706.706,0,0,1-.257-1.006.7.7,0,0,1,.6-.344.841.841,0,0,1,.362.085c.083.039.159.084.233.128l.905.525c.618.358,1.256.729,1.886,1.088a.822.822,0,0,0,.4.126c.2,0,.369-.125.517-.381.121-.209.239-.429.343-.623.25-.466.184-.711-.264-.974q-.788-.462-1.579-.917l-.621-.359-.221-.127c-.153-.087-.312-.177-.466-.272a.729.729,0,0,1-.321-1.013.674.674,0,0,1,.606-.368.972.972,0,0,1,.456.125c.061.033.122.068.181.1l1.1.639q1.206.7,2.414,1.4a1.037,1.037,0,0,0,.49.17c.133,0,.315-.052.55-.456q.144-.247.285-.5c.293-.516.23-.751-.279-1.046l-1.978-1.143-1.559-.9-.047-.027a1.529,1.529,0,0,1-.285-.194.685.685,0,0,1-.132-.924.688.688,0,0,1,.583-.349.782.782,0,0,1,.3.066,3.033,3.033,0,0,1,.333.175l1.38.8q1.312.76,2.626,1.516a.815.815,0,0,0,.4.125.608.608,0,0,0,.516-.382c.07-.125.139-.255.2-.38l.1-.185c.3-.555.24-.766-.292-1.074l-2.238-1.3-1.732-1c-.024-.014-.052-.027-.08-.04a.529.529,0,0,1-.294-.246,1.316,1.316,0,0,1-.14-.726.587.587,0,0,1,.614-.466.838.838,0,0,1,.147.013,1.44,1.44,0,0,1,.453.187l1.424.821c.723.418,1.471.85,2.209,1.271a.421.421,0,0,0,.17.054h0c.531-.292,1.046-.592,1.591-.91l.324-.189-.138-.24c-.178-.309-.346-.6-.51-.9a.721.721,0,0,1,.223-1.012.723.723,0,0,1,.381-.111.761.761,0,0,1,.65.392c.161.264.316.536.466.8.1.17.194.339.292.508.05.085.105.168.165.255l1.024-.594-4.483-7.78-1.034.6c.044.08.083.149.123.218q.263.457.527.914c.515.892,1.048,1.815,1.56,2.731a1.06,1.06,0,0,1,.115.744.819.819,0,0,1-.552.458.631.631,0,0,1-.164.022.735.735,0,0,1-.625-.444q-.954-1.665-1.914-3.327c-.034-.059-.071-.117-.111-.178l-.643.374c-.577.337-1.174.685-1.766,1.013a3.861,3.861,0,0,1-1.881.52,3.851,3.851,0,0,1-1.922-.546q-.476-.273-.951-.549c-.45-.261-.917-.532-1.377-.792a2.39,2.39,0,0,0-1.178-.332,2.44,2.44,0,0,0-1.221.354q-1.846,1.065-3.69,2.134l-.622.36c-.049.028-.1.058-.145.088a1.886,1.886,0,0,0,1.68,1.109,2.025,2.025,0,0,0,.38-.037,3.823,3.823,0,0,0,1.073-.464l.041-.023a2.4,2.4,0,0,1,1.114-.39,1.956,1.956,0,0,1,1.224.609,1.561,1.561,0,0,0,1.018.379,1.558,1.558,0,0,0,1.458-1.021c.011-.029.02-.059.03-.089a1.135,1.135,0,0,1,.078-.2.693.693,0,0,1,.624-.425.788.788,0,0,1,.26.047.691.691,0,0,1,.478.838,2.827,2.827,0,0,1-.113.384l-.014.039.432.25c.442.255.876.506,1.311.759a1.038,1.038,0,0,1,.545.6.663.663,0,0,1-.092.52.649.649,0,0,1-.575.337,1.272,1.272,0,0,1-.625-.2l-.489-.284c-.418-.243-.85-.494-1.279-.731a.268.268,0,0,0-.108-.021l-.025,0a2.944,2.944,0,0,1-1.879.654,3.085,3.085,0,0,1-2.167-.879.331.331,0,0,0-.151-.028.335.335,0,0,0-.111.016,3.078,3.078,0,0,0-.465.247c-.1.058-.2.118-.3.172a3.507,3.507,0,0,1-1.62.406,3.4,3.4,0,0,1-2.87-1.607c-.514-.81-.543-1.2-.069-1.875l-3.038-1.728-4.032,7,.314.183c.477.278.927.54,1.388.79a.158.158,0,0,0,.044,0,.353.353,0,0,0,.151-.035c.289-.159.58-.329.861-.493.338-.2.688-.4,1.04-.591a2.52,2.52,0,0,1,1.2-.306,2.491,2.491,0,0,1,2.41,1.824,2.593,2.593,0,0,1-.093,1.641,2.536,2.536,0,0,1,1.609,2.408h.042a2.552,2.552,0,0,1,1.849.706A2.585,2.585,0,0,1-2041.036,135.377Zm.174,1.456a1.059,1.059,0,0,0-.467.11,10.112,10.112,0,0,0-.972.558.542.542,0,0,0-.194.779c.145.279.3.555.474.822a.565.565,0,0,0,.465.3h0a.668.668,0,0,0,.306-.083c.333-.173.65-.357.942-.546a.985.985,0,0,0,.478-.892A1.03,1.03,0,0,0-2040.863,136.833Zm-2.788-2.57a.33.33,0,0,0-.105.019l-.408.219c-.441.235-.9.479-1.316.756a.466.466,0,0,0-.086.631,10.063,10.063,0,0,0,.509.884.543.543,0,0,0,.449.271h0a.513.513,0,0,0,.24-.062,15.539,15.539,0,0,0,1.465-.855,1,1,0,0,0,.336-1.16,1.091,1.091,0,0,0-1.048-.707Zm-2.575-2.574a1.065,1.065,0,0,0-.494.123c-.48.249-.948.531-1.382.8a.551.551,0,0,0-.2.8c.147.281.3.549.456.794a.584.584,0,0,0,.477.309h0a.677.677,0,0,0,.322-.092c.414-.226.854-.481,1.385-.8a1.02,1.02,0,0,0,.485-.894A1.052,1.052,0,0,0-2046.225,131.689Zm-3.4-.145a.882.882,0,0,0,.116.028l.09.019.081-.019a.687.687,0,0,0,.176-.053l.467-.263c.55-.309,1.118-.628,1.656-.971a1.012,1.012,0,0,0,.294-1.388,1.055,1.055,0,0,0-.894-.517.987.987,0,0,0-.471.12c-.845.453-1.478.823-2.052,1.2a.778.778,0,0,0-.269.408,9.061,9.061,0,0,0,.748,1.345Zm27.906-6.833v-9.059l-3.915,2.265Z" transform="translate(0 -28.687)" stroke="rgba(0,0,0,0)" strokeWidth="1" fill="url(#radial-gradient)"/>
    <path id="Path_96" data-name="Path 96" d="M-2018.622,129.183c-.378.554-.7.579-1.219.082-.543.313-1.093.626-1.638.946a.708.708,0,0,1-.746.037.348.348,0,0,0-.284-.007c-.553.307-1.1.629-1.638.943a6.464,6.464,0,0,1,.262.86,3.083,3.083,0,0,1-2.037,2.9.836.836,0,0,0-.111.051,2.838,2.838,0,0,1-.534,1.57,1.957,1.957,0,0,1-1.989,1.243c-.268.549-.5,1.07-.769,1.567a1.823,1.823,0,0,1-2.625.765c-.063-.033-.127-.063-.128-.063-.289.55-.54,1.1-.859,1.618a1.785,1.785,0,0,1-2.426.587c-.637-.35-1.262-.723-1.835-1.053-.554.343-1.059.679-1.585.976a1.792,1.792,0,0,1-2.539-.676c-.283-.48-.525-.983-.792-1.486a4.508,4.508,0,0,1-1.159-.023,1.71,1.71,0,0,1-.9-.588,18.423,18.423,0,0,1-1.024-1.785l.09-.055h-.42a1.553,1.553,0,0,1-1.233-.483,3.679,3.679,0,0,1-1.11-2.46c-1.118-.17-1.483-1.123-1.888-1.992a2.249,2.249,0,0,1-.082-1.117c.023-.234-.007-.34-.208-.445-.36-.187-.7-.407-1.057-.6-.268-.149-.505-.393-.871-.172-.1.062-.331-.018-.468-.094-.844-.474-1.676-.968-2.515-1.449a.711.711,0,0,1-.38-.677q0-5.838,0-11.677a.619.619,0,0,1,.992-.594c.812.457,1.617.927,2.42,1.4a.561.561,0,0,1,.284.78c-.16.29-.478.347-.842.14-.577-.328-1.152-.663-1.78-1.025v.411c0,3.353,0,6.707-.007,10.06a.512.512,0,0,0,.31.526c.566.3,1.117.638,1.712.982l4.674-8.11-1.366-.792c-.248.428-.488.839-.726,1.252-.555.963-1.106,1.93-1.667,2.89a.528.528,0,0,1-.756.254.542.542,0,0,1-.18-.777c.033-.064.069-.126.1-.188l2.078-3.605c.065-.113.128-.228.2-.355l-.181-.125c-.332-.222-.422-.508-.25-.787a.554.554,0,0,1,.815-.131c.468.264.931.537,1.4.806s.94.523,1.39.815a.842.842,0,0,1,.354.456.612.612,0,0,0,.336.451c.771.433,1.531.883,2.3,1.322a5.457,5.457,0,0,0,.544.272,1.776,1.776,0,0,0,1.881-.1c.814-.561,1.7-1.012,2.563-1.5a3.526,3.526,0,0,1,3.712-.008c.769.436,1.531.884,2.3,1.325a2.415,2.415,0,0,0,2.523.027c.8-.447,1.6-.913,2.387-1.383.09-.053.126-.195.191-.292.126-.189.212-.45.389-.554,2.533-1.489,5.078-2.957,7.623-4.427.4-.233.656-.155,1,.274Zm-14.833-3.523c.638.369,1.259.727,1.877,1.086.444.258.573.547.385.856s-.5.325-.94.069c-.59-.34-1.175-.688-1.771-1.017a.378.378,0,0,0-.334-.011,2.882,2.882,0,0,1-3.8-.2.532.532,0,0,0-.467-.056,7.985,7.985,0,0,0-.785.428,3.192,3.192,0,0,1-4.24-1.135c-.512-.808-.5-1.113.051-1.832l-3.39-1.928-4.223,7.332c.651.376,1.255.736,1.873,1.072a.467.467,0,0,0,.379-.031c.638-.351,1.257-.739,1.9-1.083a2.315,2.315,0,0,1,3.339,1.4,2.489,2.489,0,0,1-.155,1.694,2.4,2.4,0,0,1,1.666,2.5,2.441,2.441,0,0,1,1.949.646,2.471,2.471,0,0,1,.728,1.9.552.552,0,0,0,.1.026,2.319,2.319,0,0,1,2.557,2.652.411.411,0,0,0,.172.3q.841.513,1.7.991a.751.751,0,0,0,1.124-.319c.128-.216.246-.438.364-.659a.8.8,0,0,0-.342-1.232c-.412-.243-.832-.471-1.238-.723a.519.519,0,0,1-.195-.744.533.533,0,0,1,.72-.185c.1.046.188.1.281.157.91.526,1.818,1.057,2.731,1.578a.769.769,0,0,0,1.175-.326c.12-.207.233-.418.346-.628a.784.784,0,0,0-.336-1.229c-.732-.429-1.467-.852-2.2-1.277-.228-.132-.459-.257-.682-.4a.538.538,0,0,1-.255-.757.545.545,0,0,1,.8-.167c.074.039.146.082.218.124q1.737,1,3.475,2.01c.594.343.952.243,1.3-.355q.145-.248.286-.5c.342-.6.249-.96-.35-1.307q-1.767-1.024-3.537-2.045a1.659,1.659,0,0,1-.3-.2.494.494,0,0,1-.1-.68.487.487,0,0,1,.651-.209,3.209,3.209,0,0,1,.347.185c1.324.765,2.646,1.533,3.972,2.294a.766.766,0,0,0,1.173-.329c.106-.187.2-.379.3-.569.346-.647.26-.968-.365-1.33q-1.984-1.151-3.97-2.3c-.1-.06-.255-.1-.292-.194a1.168,1.168,0,0,1-.129-.616.428.428,0,0,1,.54-.3,1.265,1.265,0,0,1,.391.165c1.212.7,2.42,1.4,3.634,2.092a.444.444,0,0,0,.346.062c.7-.384,1.384-.79,2.095-1.2-.259-.453-.507-.873-.741-1.3a.534.534,0,0,1,.156-.757.542.542,0,0,1,.767.218c.261.429.5.87.756,1.3.081.139.176.269.271.414l1.344-.78-4.674-8.112-1.363.791c.088.157.151.272.216.385.7,1.213,1.4,2.421,2.086,3.643a.869.869,0,0,1,.1.6.64.64,0,0,1-.417.325c-.263.071-.443-.107-.573-.332q-.955-1.665-1.914-3.328c-.064-.112-.138-.218-.215-.339-.867.5-1.708,1-2.563,1.476a3.468,3.468,0,0,1-3.615-.025c-.778-.445-1.549-.9-2.329-1.341a2.458,2.458,0,0,0-2.588.023q-2.158,1.244-4.312,2.494c-.1.059-.2.123-.3.183a2.078,2.078,0,0,0,2.344,1.331,4.129,4.129,0,0,0,1.171-.508,1.457,1.457,0,0,1,2.122.2,1.745,1.745,0,0,0,2.779-.72,2.352,2.352,0,0,1,.1-.269.5.5,0,0,1,.652-.287.5.5,0,0,1,.354.621A5.415,5.415,0,0,1-2033.455,125.66Zm13.738-8.531-4.368,2.527,4.368,7.579Zm-27.894,16.47a1.648,1.648,0,0,0,.353-.1c.715-.406,1.439-.8,2.132-1.239a1.2,1.2,0,0,0,.355-1.649,1.218,1.218,0,0,0-1.621-.468c-.7.377-1.4.771-2.066,1.209-.185.121-.4.486-.345.63a9.978,9.978,0,0,0,.837,1.494C-2047.912,133.557-2047.73,133.559-2047.611,133.6Zm4.431.941a1.239,1.239,0,0,0-1.819-1.088c-.477.247-.938.524-1.395.806a.735.735,0,0,0-.272,1.055c.144.275.3.546.464.808a.734.734,0,0,0,1.052.283c.471-.257.934-.53,1.393-.809A1.213,1.213,0,0,0-2043.179,134.539Zm1.36,1.338a.615.615,0,0,0-.22.046c-.585.319-1.184.617-1.738.984a.645.645,0,0,0-.151.878,10.14,10.14,0,0,0,.518.9.7.7,0,0,0,.938.275,15.451,15.451,0,0,0,1.483-.866,1.19,1.19,0,0,0,.41-1.381A1.281,1.281,0,0,0-2041.819,135.877Zm3.989,3.806a1.226,1.226,0,0,0-1.774-1.1,10.155,10.155,0,0,0-.991.568.731.731,0,0,0-.261,1.029c.148.285.309.565.482.836a.726.726,0,0,0,1.021.279c.327-.17.648-.355.958-.555A1.181,1.181,0,0,0-2037.83,139.683Z" transform="translate(-1.809 -30.496)" stroke="rgba(0,0,0,0)" strokeWidth="1" fill="url(#radial-gradient)"/>
    <path id="Path_97" data-name="Path 97" d="M-1929.507,89.395a.822.822,0,0,1-.79-.583,4.1,4.1,0,0,0-2.336-2.332.809.809,0,0,1-.563-.81.81.81,0,0,1,.563-.761,4.245,4.245,0,0,0,2.362-2.365,1.165,1.165,0,0,1,.389-.43c.041-.032.079-.062.1-.084l.06-.058.084,0a.954.954,0,0,1,.919.589,3.878,3.878,0,0,0,1.076,1.558,10.1,10.1,0,0,0,1.12.7l.133.075a.912.912,0,0,1,.572.776.835.835,0,0,1-.6.825,4.069,4.069,0,0,0-2.3,2.315.826.826,0,0,1-.791.583Zm0-2.268,1.429-1.433-1.428-1.431-1.426,1.433Z" transform="translate(-112.254)" stroke="rgba(0,0,0,0)" strokeWidth="1" fill="url(#radial-gradient)"/>
    <path id="Path_98" data-name="Path 98" d="M-1927.838,84.02a.764.764,0,0,1,.757.478,4.036,4.036,0,0,0,1.135,1.63,11.462,11.462,0,0,0,1.273.785c.252.143.467.293.474.614a.654.654,0,0,1-.477.644,4.287,4.287,0,0,0-2.408,2.419.642.642,0,0,1-.614.464.641.641,0,0,1-.615-.464,4.313,4.313,0,0,0-2.44-2.436.626.626,0,0,1-.444-.627.627.627,0,0,1,.445-.589,4.451,4.451,0,0,0,2.465-2.466C-1928.2,84.264-1927.946,84.125-1927.838,84.02Zm-1.556,3.526,1.695,1.7,1.7-1.705-1.7-1.7Z" transform="translate(-114.062 -1.851)" stroke="rgba(0,0,0,0)" strokeWidth="1" fill="url(#radial-gradient)"/>
    <path id="Path_99" data-name="Path 99" d="M-1847.366,109.279a.928.928,0,0,1-.517-.258c-.054-.043-.1-.083-.152-.115a.263.263,0,0,1-.1-.144,3.315,3.315,0,0,0-1.891-1.9.8.8,0,0,1-.548-.781.8.8,0,0,1,.538-.745,3.358,3.358,0,0,0,1.911-1.922.78.78,0,0,1,.751-.523.79.79,0,0,1,.757.529,3.37,3.37,0,0,0,1.915,1.919.861.861,0,0,1,.533.878l0,.07-.045.055c-.012.014-.032.048-.052.08a.877.877,0,0,1-.368.382,3.714,3.714,0,0,0-2.026,2.022.868.868,0,0,1-.691.455Zm.005-2.414.778-.76-.779-.791-.784.777Z" transform="translate(-186.96 -18.912)" stroke="rgba(0,0,0,0)" strokeWidth="1" fill="url(#radial-gradient)"/>
    <path id="Path_100" data-name="Path 100" d="M-1842.555,108.028c-.072.089-.173.332-.346.407a3.9,3.9,0,0,0-2.127,2.122.683.683,0,0,1-.523.339c-.194-.006-.382-.217-.571-.341-.017-.011-.023-.041-.032-.063a3.524,3.524,0,0,0-1.993-2,.613.613,0,0,1-.43-.6.607.607,0,0,1,.42-.571,3.567,3.567,0,0,0,2.015-2.026.59.59,0,0,1,.578-.4.6.6,0,0,1,.575.41,3.579,3.579,0,0,0,2.019,2.024A.669.669,0,0,1-1842.555,108.028Zm-3-1.178-1.059,1.049,1.057,1.042,1.05-1.026Z" transform="translate(-188.768 -20.721)" stroke="rgba(0,0,0,0)" strokeWidth="1" fill="url(#radial-gradient)"/>
  </g>
</svg>
