<svg xmlns="http://www.w3.org/2000/svg" xmlns:xlink="http://www.w3.org/1999/xlink" width="32.651" height="38.727" viewBox="0 0 32.651 38.727">
  <defs>
    <radialGradient id="radial-gradient" cx="-0.057" cy="0" r="2.226" gradientTransform="matrix(0.984, 0.179, 0.095, -0.521, -0.001, 0.01)" gradientUnits="objectBoundingBox">
      <stop offset="0" stop-color="#bf2ed1"/>
      <stop offset="0.226" stop-color="#ab45db"/>
      <stop offset="0.456" stop-color="#9f53e1"/>
      <stop offset="0.648" stop-color="#9162e7"/>
      <stop offset="0.833" stop-color="#8571ed"/>
      <stop offset="1" stop-color="#7286f5"/>
    </radialGradient>
  </defs>
  <g id="Group_163" data-name="Group 163" transform="translate(1486.645 -83.649)">
    <path id="Path_89" data-name="Path 89" d="M-1470.279,121.876a5.54,5.54,0,0,1-1.835-.329,25.881,25.881,0,0,1-9.383-5.3,13.349,13.349,0,0,1-4.376-7.486,16.32,16.32,0,0,1-.253-2.71c-.026-1.331-.021-2.683-.016-3.991q0-.818,0-1.635V98.52q0-2.359,0-4.717a4.369,4.369,0,0,1,2.8-4.291c4-1.766,7.615-3.375,11.064-4.918a4.817,4.817,0,0,1,1.97-.445,4.6,4.6,0,0,1,1.88.417q2.125.947,4.253,1.89c2.3,1.022,4.684,2.079,7.022,3.128A4.254,4.254,0,0,1-1454.5,93.7c.016,4.311.011,8.544,0,12.478a13.329,13.329,0,0,1-4.533,9.976,25.817,25.817,0,0,1-9.645,5.452A4.962,4.962,0,0,1-1470.279,121.876ZM-1470.3,86.2a2.586,2.586,0,0,0-1.07.245c-3.407,1.524-7.062,3.148-11.176,4.965a2.32,2.32,0,0,0-1.524,2.339c.005,2.034.005,4.1,0,6.1,0,2.052,0,4.174.005,6.26a12.25,12.25,0,0,0,.132,1.847,11.31,11.31,0,0,0,3.748,6.7,23.324,23.324,0,0,0,9.322,5.095,1.485,1.485,0,0,0,.434.056,5.24,5.24,0,0,0,.8-.085l.039-.006a4.12,4.12,0,0,0,.831-.259c.087-.034.174-.068.262-.1a22.951,22.951,0,0,0,8.024-4.666,11.306,11.306,0,0,0,3.929-8.953c-.033-1.265-.024-2.551-.016-3.794,0-.573.008-1.146.007-1.719V98.3q0-2.31,0-4.619A2.244,2.244,0,0,0-1458,91.449l-4.9-2.179q-3.188-1.416-6.375-2.836A2.487,2.487,0,0,0-1470.3,86.2Z" transform="translate(0 0)" stroke="rgba(0,0,0,0)" strokeWidth="1" fill="url(#radial-gradient)"/>
    <path id="Path_90" data-name="Path 90" d="M-1484.138,102.221q0-3.312,0-6.623a4.156,4.156,0,0,1,2.68-4.1q5.538-2.448,11.065-4.918a4.311,4.311,0,0,1,3.683-.028c3.758,1.675,7.522,3.334,11.275,5.018a4.026,4.026,0,0,1,2.528,3.926q.023,6.238,0,12.477a13.071,13.071,0,0,1-4.468,9.826,25.894,25.894,0,0,1-9.571,5.408,4.893,4.893,0,0,1-3.308-.056,25.973,25.973,0,0,1-9.312-5.255,13.246,13.246,0,0,1-4.314-7.373,16.245,16.245,0,0,1-.25-2.676C-1484.164,105.969-1484.138,104.095-1484.138,102.221Zm29.579-.193c0-2.182,0-4.365,0-6.547a2.451,2.451,0,0,0-1.565-2.424q-5.638-2.51-11.277-5.015a2.635,2.635,0,0,0-2.265.014q-5.581,2.5-11.175,4.964a2.531,2.531,0,0,0-1.646,2.527c.011,4.121,0,8.242.01,12.363a12.566,12.566,0,0,0,.134,1.878,11.592,11.592,0,0,0,3.812,6.82,23.6,23.6,0,0,0,9.4,5.141,3.188,3.188,0,0,0,1.36-.028,6.18,6.18,0,0,0,1.131-.368,23.443,23.443,0,0,0,8.093-4.709,11.575,11.575,0,0,0,3.994-9.108C-1454.6,105.7-1454.559,103.863-1454.559,102.027Z" transform="translate(-1.794 -1.794)" stroke="rgba(0,0,0,0)" strokeWidth="1" fill="url(#radial-gradient)"/>
    <path id="Path_91" data-name="Path 91" d="M-1411.913,197.075a9.159,9.159,0,0,1-9.144-9.138,9.093,9.093,0,0,1,2.678-6.476,9.089,9.089,0,0,1,6.472-2.683h.018a9.158,9.158,0,0,1,9.125,9.164,9.159,9.159,0,0,1-9.145,9.133Zm0-16.246a7.11,7.11,0,0,0-7.1,7.091,7.108,7.108,0,0,0,7.084,7.107h.014a7.061,7.061,0,0,0,5.025-2.085,7.051,7.051,0,0,0,2.083-5.023,7.108,7.108,0,0,0-7.1-7.091v0Z" transform="translate(-58.404 -84.91)" stroke="rgba(0,0,0,0)" strokeWidth="1" fill="url(#radial-gradient)"/>
    <path id="Path_92" data-name="Path 92" d="M-1410.118,198.664a8.932,8.932,0,0,1-8.939-8.933,8.947,8.947,0,0,1,8.963-8.954,8.946,8.946,0,0,1,8.92,8.958A8.932,8.932,0,0,1-1410.118,198.664Zm0-16.246a7.326,7.326,0,0,0-7.308,7.3,7.321,7.321,0,0,0,7.289,7.313,7.32,7.32,0,0,0,7.327-7.313A7.325,7.325,0,0,0-1410.116,182.419Z" transform="translate(-60.199 -86.704)" stroke="rgba(0,0,0,0)" strokeWidth="1" fill="url(#radial-gradient)"/>
    <path id="Path_93" data-name="Path 93" d="M-1372.911,242.286a1.332,1.332,0,0,1-.917-.495l-.492-.491c-.527-.525-1.072-1.068-1.6-1.608a1.031,1.031,0,0,1-.2-1.267.96.96,0,0,1,.834-.518,1.03,1.03,0,0,1,.233.028,1.477,1.477,0,0,1,.642.377c.4.38.776.767,1.178,1.176l.32.325,3.534-3.542.106-.108a4.6,4.6,0,0,1,.35-.334,1.047,1.047,0,0,1,.666-.242,1.006,1.006,0,0,1,.729.307,1.023,1.023,0,0,1,.049,1.362,5.211,5.211,0,0,1-.4.42l-.123.121q-2,2-4,4A1.319,1.319,0,0,1-1372.911,242.286Z" transform="translate(-98.602 -135.884)" stroke="rgba(0,0,0,0)" strokeWidth="1" fill="url(#radial-gradient)"/>
    <path id="Path_94" data-name="Path 94" d="M-1371.131,241.9l3.68-3.688c.145-.145.284-.3.442-.429a.82.82,0,0,1,1.116.05.823.823,0,0,1,.038,1.088c-.154.188-.335.354-.507.526q-2,2-4,4c-.575.574-.957.572-1.536-.006-.7-.7-1.4-1.393-2.093-2.1a.821.821,0,0,1-.169-1.019.741.741,0,0,1,.843-.395,1.258,1.258,0,0,1,.547.325C-1372.226,240.778-1371.7,241.323-1371.131,241.9Z" transform="translate(-100.386 -137.679)" stroke="rgba(0,0,0,0)" strokeWidth="1" fill="url(#radial-gradient)"/>
  </g>
</svg>
