<svg xmlns="http://www.w3.org/2000/svg" xmlns:xlink="http://www.w3.org/1999/xlink" width="32.436" height="42.334" viewBox="0 0 32.436 42.334">
  <defs>
    <radialGradient id="radial-gradient" cx="-0.057" cy="0" r="2.226" gradientTransform="matrix(0.984, 0.179, 0.095, -0.521, -0.001, 0.01)" gradientUnits="objectBoundingBox">
      <stop offset="0" stop-color="#bf2ed1"/>
      <stop offset="0.226" stop-color="#ab45db"/>
      <stop offset="0.456" stop-color="#9f53e1"/>
      <stop offset="0.648" stop-color="#9162e7"/>
      <stop offset="0.833" stop-color="#8571ed"/>
      <stop offset="1" stop-color="#7286f5"/>
    </radialGradient>
  </defs>
  <g id="Group_157" data-name="Group 157" transform="translate(0)">
    <path id="Path_71" data-name="Path 71" d="M-647.337,154.022a1.4,1.4,0,0,1-.647-.858c-.6-1.713-1.214-3.422-1.824-5.131-.045-.126-.1-.25-.157-.4-1.016.273-2.008.539-3,.807-.928.251-1.856.5-2.782.76a.924.924,0,0,1-1.084-.263.915.915,0,0,1,.011-1.079c1.353-2.583,2.7-5.172,4.056-7.752a.416.416,0,0,0-.083-.592,16.038,16.038,0,0,1-4.79-13.011,16.269,16.269,0,0,1,12.07-14.289c.6-.152,1.056.068,1.179.574.115.473-.17.872-.767,1.032a14.358,14.358,0,0,0-8.4,5.944,14.634,14.634,0,0,0,6.061,21.472,14.572,14.572,0,0,0,20.435-11.159,14.593,14.593,0,0,0-10.662-16.238c-.08-.021-.159-.044-.237-.07a.828.828,0,0,1-.612-.98.777.777,0,0,1,1.012-.6,21.472,21.472,0,0,1,3.126,1.139,15.717,15.717,0,0,1,9,12.393,15.745,15.745,0,0,1-4.593,13.7.558.558,0,0,0-.115.792c1.352,2.553,2.682,5.117,4.016,7.68.3.568.2,1.069-.293,1.26a1.443,1.443,0,0,1-.831.018c-1.622-.419-3.236-.867-4.853-1.305-.289-.078-.579-.153-.9-.239-.381,1.062-.752,2.094-1.121,3.126-.291.816-.552,1.644-.882,2.444a4.076,4.076,0,0,1-.616.826h-.5a4.316,4.316,0,0,1-.624-.732c-1.507-2.855-2.995-5.72-4.489-8.582-.072-.139-.149-.275-.25-.46-.109.2-.183.329-.252.46-1.494,2.862-2.982,5.727-4.489,8.582a4.311,4.311,0,0,1-.624.732Zm4.061-9.92a16.376,16.376,0,0,1-8.034-3.233l-3.283,6.3c1.662-.452,3.21-.875,4.759-1.294a.878.878,0,0,1,1.245.649c.312.866.616,1.735.925,2.6.227.637.457,1.274.72,2Zm14.912,3.055-3.284-6.291a16.363,16.363,0,0,1-8.029,3.24l3.67,7.026c.552-1.547,1.068-2.994,1.584-4.442.312-.874.568-1.011,1.45-.775.57.153,1.139.31,1.709.463Z" transform="translate(657.691 -111.688)" fill="url(#radial-gradient)"/>
    <path id="Path_72" data-name="Path 72" d="M-517.037,108c.066.046.132.09.2.138a.783.783,0,0,1,.336.93.773.773,0,0,1-.8.579.771.771,0,0,1-.76-.579.785.785,0,0,1,.336-.93c.065-.047.131-.092.2-.137Z" transform="translate(533.498 -108)" fill="url(#radial-gradient)"/>
    <path id="Path_73" data-name="Path 73" d="M-596.183,157.625a12.125,12.125,0,0,1-12.1,12.113,12.127,12.127,0,0,1-12.1-12.117,12.133,12.133,0,0,1,12.1-12.118A12.134,12.134,0,0,1-596.183,157.625Zm-1.651.018a10.478,10.478,0,0,0-10.389-10.486,10.477,10.477,0,0,0-10.51,10.447,10.469,10.469,0,0,0,10.389,10.48A10.467,10.467,0,0,0-597.833,157.643Z" transform="translate(624.496 -141.368)" fill="url(#radial-gradient)"/>
    <path id="Path_74" data-name="Path 74" d="M-565.278,211.46c.087-.572.174-1.268.3-1.957a1.182,1.182,0,0,0-.37-1.19c-.444-.411-.848-.864-1.28-1.288a1.421,1.421,0,0,1-.427-1.539,1.4,1.4,0,0,1,1.223-.967c.61-.1,1.219-.206,1.83-.29a1.136,1.136,0,0,0,.947-.691c.269-.572.573-1.127.863-1.689a1.382,1.382,0,0,1,1.274-.832,1.389,1.389,0,0,1,1.309.843c.289.562.6,1.117.863,1.689a1.158,1.158,0,0,0,.994.687c.585.077,1.166.187,1.749.276a1.414,1.414,0,0,1,1.255.985,1.436,1.436,0,0,1-.44,1.538c-.442.433-.859.893-1.309,1.317a1.1,1.1,0,0,0-.343,1.081c.107.61.2,1.222.291,1.834a1.419,1.419,0,0,1-.533,1.47,1.41,1.41,0,0,1-1.592.076c-.573-.3-1.155-.575-1.727-.874a1.028,1.028,0,0,0-1.02.006c-.621.323-1.24.654-1.878.941A1.409,1.409,0,0,1-565.278,211.46Zm4.457-8.568c-.615.921-.823,1.888-1.614,2.471s-1.8.489-2.819.782c.438.412.823.76,1.191,1.125a2.55,2.55,0,0,1,.729,2.381c-.084.483-.145.969-.227,1.526.473-.237.885-.422,1.277-.644a2.671,2.671,0,0,1,2.781,0c.391.217.8.4,1.261.632-.077-.534-.125-1-.213-1.453a2.606,2.606,0,0,1,.785-2.518c.351-.34.684-.7,1.025-1.049l.056-.159A3.724,3.724,0,0,1-560.821,202.892Z" transform="translate(577.113 -190.763)" fill="url(#radial-gradient)"/>
  </g>
</svg>
